<?xml version="1.0" encoding="utf-8"?>
<!-- Generator: Adobe Illustrator 23.0.2, SVG Export Plug-In . SVG Version: 6.00 Build 0)  -->
<svg version="1.1" id="Layer_1" xmlns="http://www.w3.org/2000/svg" xmlns:xlink="http://www.w3.org/1999/xlink" x="0px" y="0px"
	 viewBox="0 0 230.6 320.9" style="enable-background:new 0 0 230.6 320.9;" xml:space="preserve">
<style type="text/css">
	.st0{fill:#E6E6E6;stroke:#023F2C;stroke-width:0.25;}
	.st1{fill:#002C1B;}
	.st2{fill:#023F2C;}
</style>
<g>
	<g>
		<path class="st0" d="M9.6,50l-4.3-2.4l-5.1,2.8l5,18.7l1.7-1.7l12.9,11.1l-6,3.9l-0.1,5.2l-3.1,0.1l0.5,3.5l7.1,8.8
			c0,0-0.1,1.9-0.2,2.6c-0.1,0.7-0.5,2-0.3,2.7c0.2,0.9,1.9,2.1,2.2,2.9c0.3,0.6,0.6,2,0.3,2.6c-0.2,0.5-1.3,0.9-1.8,1.1
			c-0.6,0.3-1.9,0.8-2.6,1c-0.5,0.2-1.9,0.2-2.1,0.8c-0.2,0.4,0.5,1.3,0.8,1.6c0.4,0.5,1.6,1,2.2,1.2c0.8,0.3,2.6,0.8,3.5,0.8
			c0.9,0,2.6-0.5,3.4-0.8c0.4-0.1,1.1-0.9,1.5-0.8c0.4,0.2,0.2,1.2,0.3,1.7c0.2,1,0.7,2.8,0.6,3.8c-0.1,1-0.9,2.8-1.5,3.6
			c-0.8,1.1-3.2,2.6-4.4,3.3c-1.3,0.8-4.3,1.7-5.7,2.4c-0.8,0.4-3,1.8-3,1.8l-0.1,3.4l4.4,3l0.8,2.2l-3.3,2.7l1,3.3l3.2,2.4
			l-2.8,4.4l-4.7-0.3l4.9,10.2l12.4,10l-0.4,7.1l-2.2-0.2l3.4,3.3l-3.2,6.6l1,3.6l3.1,0.4l2.8,5.3l-3.4,1.9l1.3,3.8l-4.7,5.2
			l9.6,11.8L23.3,228l-8.7,7.8l-10.3,4.6l2,6.7l-1.2,4.3l4.4,2.1L9,260.4l3,4.1l-2.7,3l8.2,19.7l-8.4,6.1l7.8,11l4.9-0.6l0.1,6.2
			l1.3,2.2l5.1-0.1l0.1,2.9l-0.8,0.1l3.6,5.1l8.2,1.4l2.6-2.6l0.6-6l1.9-1.5l1.1-6l6.6-3.1l4.7,0.5l4.3-1l7.5,0.1l-0.3,7.6l12.5,2.9
			l1.2,2.3l4.6,0.1l0.4-1.6l-2.3-6.5l4-2.3l-2.1-4.2l2.3-1.1l5.1,5.2l0.7-1l-1.7-2.6l8.7-3.5l1.3,0.2l2.2,1.8l1.3,0.1l0.2-0.9
			l1.7,0.3l5.4,4.7l7.7-2l8.4-4.5l-2-4.5l0.1-2.4l7.4,0.3l0.7-1.7l-1.5-2.8l9.8-9.1l3.8-5.3l-1.8-3l7.2-10.2l-1.1-3.7l0.2-7.1
			l-1.7-2.5l1.1-9.8l2.1-2.2l10-2.8l0.5-8c-0.1,0.1-0.2,0.1-0.3,0.2c-0.7,0.5-2.4,1.3-3.3,1.5c-1.7,0.3-5.1,0.2-6.7,0
			c-2-0.3-6.1-1.3-8-2.1c-2-0.8-5.7-3-7.4-4.3c-2.1-1.6-5.6-5.6-7.6-7.5c-1.7-1.6-5.1-4.9-7-6.3c-1.7-1.2-5.5-3.1-7.2-4.3
			c-0.8-0.6-2.3-2.1-3.2-2.6c-0.5-0.3-1.9-0.3-2.3-0.8c-0.6-0.8-0.1-2.9-0.2-3.8c-0.2-1.5-1-4.5-1.6-5.9c-0.5-1.3-2.2-3.7-2.6-5.1
			c-0.5-1.6-0.9-5-0.5-6.6c0.2-0.9,1.2-2.6,2-3c0.6-0.3,2.1-0.3,2.7,0c0.9,0.4,2.4,2,2.9,2.9c0.8,1.4,1.1,4.6,1.5,6.1
			c0.5,1.7,1.3,5.1,2,6.7c0.5,1.2,1.7,3.6,2.4,4.7c0.5,0.8,1.8,2.3,2.5,3c1.4,1.3,4.9,3.2,6.3,4.5c1.5,1.3,4,4.2,5.3,5.6
			c1.7,1.8,5,5.3,6.7,7c1.3,1.2,3.9,3.6,5.4,4.5c1.3,0.8,4.2,1.9,5.7,2.1c1.2,0.1,3.7,0,4.8-0.5c0.7-0.3,2-1.3,2.3-2
			c0.2-0.5,0.1-1.7-0.1-2.2c-0.3-0.6-1.5-1.2-1.8-1.8c-0.1-0.3-0.2-1.1,0-1.3c0.3-0.3,1.3-0.4,1.7-0.3c0.7,0.2,1.5,1.6,2,2.2
			c0.5,0.5,1.2,1.9,1.9,2c0.3,0,1-0.3,1.1-0.6c0.2-0.5-0.4-1.6-0.3-2.2c0.1-0.5,0.4-1.7,0.8-2c0.6-0.4,2.2-0.3,2.9-0.3
			c0.9-0.1,2.7-0.2,3.6-0.1c0.9,0.1,2.8,0.6,3.6,1c1,0.5,2.7,1.8,3.4,2.7c0.8,0.9,1.8,3.2,2.1,4.4c0.5,1.8,0.4,5.6,0.5,7.5
			c0.1,2.1,0.5,6.3,0.3,8.4c0,0.2-0.1,0.5-0.1,0.7c0.3-0.2,0.6-0.5,0.8-0.7c0.5-0.5,1.3-1.8,1.9-2.3c0.4-0.3,1.4-1.1,1.9-1
			c0.6,0.1,1.4,1,1.7,1.6c0.3,0.5,0.2,1.7,0.2,2.3c0,0.6-0.4,1.7-0.3,2.2c0.1,0.4,1,1.2,1,1.2l8.9,0.2c0,0,0.6-1.5,0.7-2
			c0.1-0.4,0-1.5,0.3-1.8c0.2-0.3,1-0.3,1.3-0.4c0.4-0.2,1.3-0.4,1.5-0.7c0.2-0.4-0.3-1.1-0.3-1.5c0-0.6,0.5-1.7,0.7-2.3
			c0.3-0.7,0.9-2,1.3-2.6c0.3-0.5,1.6-1.7,1.6-1.7l2.7,0.2l1.6-7.5l9.2-4.5l-2-0.6l-3.7-3.5l0.4-2.8l2.8-2.7l5.4-12.7l4,3l3.3-5.5
			l1.2,0.6l1.6-14l-7.7,0.2l5.6-8.8l-4.9-0.1l-5.8-9.4l10.2-5.3l-2.9-2.9l-8.3-1.3l-0.9-6.2l-7.8-2.9l-5.6,4.7l-0.8,2.5l-9.2,0.5
			l-1.8,1.8l-1.4,1.6l-3.6-1.5l-4.5-0.5l-4.8,0.7l-4.8-0.6l-5.3,0.5l-5.1-0.1l-4.1-4.4l-1.9,0.7l-1.7,0.6l-0.4-1.7l-0.9-1.8
			l-0.1-1.7l3.1-0.4l1.8-0.6l0.5-2.2l-1-4.4l-0.8-4l-1-0.6l-0.8-0.6l0.8-1.6l-0.3-1.4l-2.2-1.8l-2.4-2l-0.2-1.5l-1.1-1.3l-1.5-0.2
			l-4.3,1.4l-5.5,1.4l-6.1,0.7l-3.3-0.2l-2.5-1.6l-0.3-2l-1.1-0.4l-2.6,0.5l-2.7-1.1l-4.6-0.7l2.8-5.2l2.9,2l1.3-0.7l-0.2-5.7
			l-1.1-3.6h-4.4l-1.9-1.1l-3.2-8.6l0.7-7l-1.5-0.9h-2.1l-2,0c-0.1,0.3-0.1,0.7-0.1,0.9c0,0.8,0.9,2.4,0.9,3.2
			c0.1,1.1-0.1,3.3-0.4,4.4c-0.2,0.8-1.1,2.4-1.3,3.2c-0.4,1.2-1,3.6-1.1,4.8c-0.1,1.6,0.8,4.8,0.5,6.4c-0.2,1.1-1.4,3.1-1.9,4.2
			c-0.7,1.3-2.5,3.7-2.9,5.1c-0.5,1.8-0.5,5.6-0.4,7.5c0.1,1.3,0.3,4,0.7,5.2c0.4,1.1,2.2,3,2.4,4.2c0.1,0.8-0.2,2.6-0.8,3.1
			c-0.6,0.5-2.4,0.1-3.2,0c-1-0.1-3-0.2-3.8-0.7c-1.1-0.8-2.4-3.4-2.8-4.7c-0.4-1.2-0.2-3.9-0.4-5.2c-0.2-1-0.6-3-1.2-3.7
			c-0.6-0.6-2.5-0.4-3-1c-0.4-0.6-0.3-2.1-0.1-2.8c0.2-0.7,1.8-1.7,1.9-2.5c0.1-0.6-0.7-1.6-1-2.1c-0.3-0.4-1.4-0.9-1.6-1.3
			c-0.2-0.5,0-1.6,0.4-2c0.5-0.5,2.1,0,2.8-0.2c0.5-0.2,1.5-0.7,1.8-1.1c0.5-0.7,0.5-2.4,0.8-3.2c0.4-1.1,1.8-3,2.2-4
			c0.6-1.5,1.4-4.8,1.3-6.4c-0.1-1.1-0.9-3.2-1.3-4.2c-0.6-1.3-2-3.8-3-4.8c-0.9-0.9-3-2.2-4.2-2.6c-0.8-0.3-2.5-0.3-3.3-0.5
			c-0.6-0.1-2-0.2-2.4-0.6c-0.4-0.4-0.5-1.7-0.3-2.3c0.2-0.6,1.3-1.3,1.9-1.6c1.3-0.5,4.1-0.2,5.5-0.4c0.9-0.2,2.8-0.4,3.5-0.9
			c0.6-0.4,1.6-1.5,1.8-2.2c0.1-0.7-0.8-2.2-0.9-2.9c-0.2-0.7-0.3-2.3-0.4-3c-0.1-1-0.7-3.1-0.6-4.2c0.1-1,1.7-2.7,1.5-3.6
			c-0.2-0.9-1.8-2.1-2.6-2.5c-0.7-0.3-2.2-0.1-2.9-0.3c-0.9-0.3-2.2-1.6-3-2.1c-1-0.6-3.4-1.2-3.9-2.2c-0.3-0.5-0.3-2.1,0.2-2.5
			c0.5-0.4,1.9-0.1,2.5,0.1c0.5,0.2,1.4,1.1,2,1.1c0.6,0.1,1.9-0.8,2.5-0.6c0.5,0.2,0.9,1.5,1.5,1.7c0.9,0.4,2.8-0.3,3.7-0.3
			c0.8,0,2.3-0.1,3,0.1c0.7,0.2,2,1.1,2.7,1.5c0.3,0.2,1,0.6,1.3,0.6c0.9,0.1,2.5-1,3.4-0.9c0.4,0,1.1,0.3,1.6,0.5l0.7-3
			c-0.3,0.1-0.8,0-1-0.1c-0.5-0.1-1.3-0.8-1.7-1.1c-0.5-0.4-1.3-1.6-1.9-1.9c-0.6-0.4-2-0.7-2.7-1c-0.8-0.3-2.4-0.7-3.2-1
			c-0.7-0.2-2.1-0.8-2.8-1.1c-0.6-0.3-1.9-0.8-2.4-1.4c-0.4-0.5-0.8-1.9-0.8-2.6c-0.1-1,0.3-3,0.4-3.9c0.1-0.8,0.2-2.3,0.3-3.1
			c0.1-0.5,0.7-1.6,0.5-2.1c-0.3-0.8-2.2-1.5-2.8-2.1c-0.6-0.5-1.8-1.7-2.2-2.4c-0.4-0.7-0.3-2.4-0.9-3c-0.6-0.6-2.3-0.6-3.1-0.8
			c-1-0.3-2.8-1.1-3.8-1.4c-1.9-0.5-5.8-0.8-7.8-1.1c-0.9-0.1-2.8-0.8-3.7-0.6c-0.5,0.1-1.4,0.9-1.8,1.3c-0.3,0.4-0.6,1.4-1,1.7
			c-0.4,0.3-1.6,0.4-2.1,0.6c-1.1,0.2-4.2,0.6-4.4,0.6c-0.3,0-2.1,1.2-2.8,1.7c-0.6,0.4-1.9,1.4-2.6,1.6c-0.5,0.2-1.6,0.2-2.1,0.1
			c-1.2,0-3.6-0.1-4.7-0.6c-0.7-0.4-1.9-1.6-2.2-2.4c-0.5-1.1-0.8-3.6-0.8-4.8c0-0.7,0.6-2.3,0.1-2.8c-0.4-0.4-1.7-0.4-2.3-0.3
			c-0.7,0-2.2,0.4-2.9,0.7c-0.6,0.3-1.5,1.3-2.1,1.7c-1,0.8-3,2.2-4,3c-1,0.7-3.1,2.2-4,3c-0.8,0.7-2.5,2.2-3.1,3.1
			c-0.6,0.8-1.3,2.6-1.9,3.4c-0.2,0.3-0.7,1-1,1.1c-0.4,0.2-1.4-0.2-1.9-0.3c-0.9-0.2-2.5-1-3.4-1.1c-0.6,0-1.9,0.1-2.4,0.4
			c-0.7,0.4-1.4,1.9-2.1,2.3c-0.4,0.2-1.4,0.6-1.9,0.5c0,0,0,0,0,0l4.1,4.9L9.6,50z"/>
		<g>
			<path class="st1" d="M58.1,198.1v-8.6h1v5.1l4.9-5.1h1.2l-3.7,3.7l3.8,4.8h-1.2l-3.3-4.1l-1.8,1.8v2.3H58.1z"/>
			<path class="st1" d="M68.2,198.1v-8.6h1v8.6H68.2z"/>
			<path class="st1" d="M72.9,198.1v-8.6h6.2v0.9h-5.2v2.9h4.7v0.9h-4.7v3h5.3v0.9H72.9z"/>
			<path class="st1" d="M85.2,198.1l-3.7-8.6h1.1l3,7.4l3.1-7.4h1l-3.7,8.6H85.2z"/>
		</g>
	</g>
</g>
<path class="st2" d="M208.3,196.8c-3.7-5.9-7.3-11.8-9.9-18.1c-1.8-4.3-1.4-8.4,1.5-12.1c3-3.7,7.1-4.5,11.6-3.4
	c4.3,1.1,6.7,4.1,7.5,8.4c0.4,2.2,0.2,4.3-0.6,6.4C215.9,184.7,212.1,190.6,208.3,196.8z M208.2,177.8c2.1,0,3.8-1.6,3.9-3.7
	c0-2.1-1.6-3.9-3.8-3.9c-2.1,0-3.8,1.7-3.8,3.7C204.4,176,206.2,177.7,208.2,177.8z"/>
<path class="st2" d="M186,186.7c-3.7-5.9-7.3-11.8-9.9-18.1c-1.8-4.3-1.4-8.4,1.5-12.1c3-3.7,7.1-4.5,11.6-3.4
	c4.3,1.1,6.7,4.1,7.5,8.4c0.4,2.2,0.2,4.3-0.6,6.4C193.5,174.6,189.8,180.6,186,186.7z M185.9,167.7c2.1,0,3.8-1.6,3.9-3.7
	c0-2.1-1.6-3.9-3.8-3.9c-2.1,0-3.8,1.7-3.8,3.7C182.1,165.9,183.8,167.7,185.9,167.7z"/>
<path class="st2" d="M212.1,154.7c-3.7-5.9-7.3-11.8-9.9-18.1c-1.8-4.3-1.4-8.4,1.5-12.1c3-3.7,7.1-4.5,11.6-3.4
	c4.3,1.1,6.7,4.1,7.5,8.4c0.4,2.2,0.2,4.3-0.6,6.4C219.6,142.6,215.9,148.6,212.1,154.7z M212,135.7c2.1,0,3.8-1.6,3.9-3.7
	c0-2.1-1.6-3.9-3.8-3.9c-2.1,0-3.8,1.7-3.8,3.7C208.2,133.9,209.9,135.7,212,135.7z"/>
<path class="st2" d="M193.9,230.8c-3.7-5.9-7.3-11.8-9.9-18.1c-1.8-4.3-1.4-8.4,1.5-12.1c3-3.7,7.1-4.5,11.6-3.4
	c4.3,1.1,6.7,4.1,7.5,8.4c0.4,2.2,0.2,4.3-0.6,6.4C201.4,218.7,197.6,224.7,193.9,230.8z M193.8,211.8c2.1,0,3.8-1.6,3.9-3.7
	c0-2.1-1.6-3.9-3.8-3.9c-2.1,0-3.8,1.7-3.8,3.7C190,210,191.7,211.7,193.8,211.8z"/>
<path class="st2" d="M154.4,201.7c-3.7-5.9-7.3-11.8-9.9-18.1c-1.8-4.3-1.4-8.4,1.5-12.1c3-3.7,7.1-4.5,11.6-3.4
	c4.3,1.1,6.7,4.1,7.5,8.4c0.4,2.2,0.2,4.3-0.6,6.4C162,189.6,158.2,195.6,154.4,201.7z M154.3,182.7c2.1,0,3.8-1.6,3.9-3.7
	c0-2.1-1.6-3.9-3.8-3.9c-2.1,0-3.8,1.7-3.8,3.7C150.5,180.9,152.3,182.7,154.3,182.7z"/>
<path class="st2" d="M169,165.9c-3.7-5.9-7.3-11.8-9.9-18.1c-1.8-4.3-1.4-8.4,1.5-12.1c3-3.7,7.1-4.5,11.6-3.4
	c4.3,1.1,6.7,4.1,7.5,8.4c0.4,2.2,0.2,4.3-0.6,6.4C176.6,153.8,172.8,159.8,169,165.9z M168.9,146.9c2.1,0,3.8-1.6,3.9-3.7
	c0-2.1-1.6-3.9-3.8-3.9c-2.1,0-3.8,1.7-3.8,3.7C165.2,145.2,166.9,146.9,168.9,146.9z"/>
<path class="st2" d="M135.8,270.5c-3.7-5.9-7.3-11.8-9.9-18.1c-1.8-4.3-1.4-8.4,1.5-12.1c3-3.7,7.1-4.5,11.6-3.4
	c4.3,1.1,6.7,4.1,7.5,8.4c0.4,2.2,0.2,4.3-0.6,6.4C143.4,258.4,139.6,264.3,135.8,270.5z M135.8,251.5c2.1,0,3.8-1.6,3.9-3.7
	c0-2.1-1.6-3.9-3.8-3.9c-2.1,0-3.8,1.7-3.8,3.7C132,249.7,133.7,251.4,135.8,251.5z"/>
<path class="st2" d="M115.3,296.2c-3.7-5.9-7.3-11.8-9.9-18.1c-1.8-4.3-1.4-8.4,1.5-12.1c3-3.7,7.1-4.5,11.6-3.4
	c4.3,1.1,6.7,4.1,7.5,8.4c0.4,2.2,0.2,4.3-0.6,6.4C122.9,284.1,119.1,290.1,115.3,296.2z M115.2,277.2c2.1,0,3.8-1.6,3.9-3.7
	c0-2.1-1.6-3.9-3.8-3.9c-2.1,0-3.8,1.7-3.8,3.7C111.5,275.4,113.2,277.2,115.2,277.2z"/>
<path class="st2" d="M139.6,156.7c-3.7-5.9-7.3-11.8-9.9-18.1c-1.8-4.3-1.4-8.4,1.5-12.1c3-3.7,7.1-4.5,11.6-3.4
	c4.3,1.1,6.7,4.1,7.5,8.4c0.4,2.2,0.2,4.3-0.6,6.4C147.2,144.6,143.4,150.6,139.6,156.7z M139.6,137.7c2.1,0,3.8-1.6,3.9-3.7
	c0-2.1-1.6-3.9-3.8-3.9c-2.1,0-3.8,1.7-3.8,3.7C135.8,135.9,137.5,137.7,139.6,137.7z"/>
<path class="st2" d="M86.8,184.7c-3.7-5.9-7.3-11.8-9.9-18.1c-1.8-4.3-1.4-8.4,1.5-12.1c3-3.7,7.1-4.5,11.6-3.4
	c4.3,1.1,6.7,4.1,7.5,8.4c0.4,2.2,0.2,4.3-0.6,6.4C94.4,172.6,90.6,178.6,86.8,184.7z M86.7,165.7c2.1,0,3.8-1.6,3.9-3.7
	c0-2.1-1.6-3.9-3.8-3.9c-2.1,0-3.8,1.7-3.8,3.7C83,163.9,84.7,165.7,86.7,165.7z"/>
<path class="st2" d="M58.1,169.7c-3.7-5.9-7.3-11.8-9.9-18.1c-1.8-4.3-1.4-8.4,1.5-12.1c3-3.7,7.1-4.5,11.6-3.4
	c4.3,1.1,6.7,4.1,7.5,8.4c0.4,2.2,0.2,4.3-0.6,6.4C65.7,157.6,61.9,163.6,58.1,169.7z M58,150.7c2.1,0,3.8-1.6,3.9-3.7
	c0-2.1-1.6-3.9-3.8-3.9c-2.1,0-3.8,1.7-3.8,3.7C54.2,148.9,56,150.7,58,150.7z"/>
<path class="st2" d="M41.5,191c-3.7-5.9-7.3-11.8-9.9-18.1c-1.8-4.3-1.4-8.4,1.5-12.1c3-3.7,7.1-4.5,11.6-3.4
	c4.3,1.1,6.7,4.1,7.5,8.4c0.4,2.2,0.2,4.3-0.6,6.4C49,178.9,45.3,184.9,41.5,191z M41.4,172c2.1,0,3.8-1.6,3.9-3.7
	c0-2.1-1.6-3.9-3.8-3.9c-2.1,0-3.8,1.7-3.8,3.7C37.6,170.2,39.3,171.9,41.4,172z"/>
<path class="st2" d="M37.7,152.7c-3.7-5.9-7.3-11.8-9.9-18.1c-1.8-4.3-1.4-8.4,1.5-12.1c3-3.7,7.1-4.5,11.6-3.4
	c4.3,1.1,6.7,4.1,7.5,8.4c0.4,2.2,0.2,4.3-0.6,6.4C45.2,140.6,41.5,146.6,37.7,152.7z M37.6,133.7c2.1,0,3.8-1.6,3.9-3.7
	c0-2.1-1.6-3.9-3.8-3.9c-2.1,0-3.8,1.7-3.8,3.7C33.8,131.9,35.5,133.7,37.6,133.7z"/>
<path class="st2" d="M58.1,122.1c-3.7-5.9-7.3-11.8-9.9-18.1c-1.8-4.3-1.4-8.4,1.5-12.1c3-3.7,7.1-4.5,11.6-3.4
	c4.3,1.1,6.7,4.1,7.5,8.4c0.4,2.2,0.2,4.3-0.6,6.4C65.7,110,61.9,116,58.1,122.1z M58,103.1c2.1,0,3.8-1.6,3.9-3.7
	c0-2.1-1.6-3.9-3.8-3.9c-2.1,0-3.8,1.7-3.8,3.7C54.2,101.3,56,103.1,58,103.1z"/>
<path class="st2" d="M35.3,313.2c-3.7-5.9-7.3-11.8-9.9-18.1c-1.8-4.3-1.4-8.4,1.5-12.1c3-3.7,7.1-4.5,11.6-3.4
	c4.3,1.1,6.7,4.1,7.5,8.4c0.4,2.2,0.2,4.3-0.6,6.4C42.9,301.1,39.1,307.1,35.3,313.2z M35.3,294.2c2.1,0,3.8-1.6,3.9-3.7
	c0-2.1-1.6-3.9-3.8-3.9c-2.1,0-3.8,1.7-3.8,3.7C31.5,292.4,33.2,294.2,35.3,294.2z"/>
<path class="st2" d="M24.4,272.5c-3.7-5.9-7.3-11.8-9.9-18.1c-1.8-4.3-1.4-8.4,1.5-12.1c3-3.7,7.1-4.5,11.6-3.4
	c4.3,1.1,6.7,4.1,7.5,8.4c0.4,2.2,0.2,4.3-0.6,6.4C32,260.4,28.2,266.4,24.4,272.5z M24.4,253.5c2.1,0,3.8-1.6,3.9-3.7
	c0-2.1-1.6-3.9-3.8-3.9c-2.1,0-3.8,1.7-3.8,3.7C20.6,251.7,22.3,253.4,24.4,253.5z"/>
<path class="st2" d="M47.2,234c-3.7-5.9-7.3-11.8-9.9-18.1c-1.8-4.3-1.4-8.4,1.5-12.1c3-3.7,7.1-4.5,11.6-3.4
	c4.3,1.1,6.7,4.1,7.5,8.4c0.4,2.2,0.2,4.3-0.6,6.4C54.7,221.9,50.9,227.8,47.2,234z M47.1,215c2.1,0,3.8-1.6,3.9-3.7
	c0-2.1-1.6-3.9-3.8-3.9c-2.1,0-3.8,1.7-3.8,3.7C43.3,213.2,45,214.9,47.1,215z"/>
<path class="st2" d="M31.5,110.9c-3.7-5.9-7.3-11.8-9.9-18.1c-1.8-4.3-1.4-8.4,1.5-12.1c3-3.7,7.1-4.5,11.6-3.4
	c4.3,1.1,6.7,4.1,7.5,8.4c0.4,2.2,0.2,4.3-0.6,6.4C39.1,98.8,35.3,104.8,31.5,110.9z M31.5,91.9c2.1,0,3.8-1.6,3.9-3.7
	c0-2.1-1.6-3.9-3.8-3.9c-2.1,0-3.8,1.7-3.8,3.7C27.7,90.1,29.4,91.9,31.5,91.9z"/>
<path class="st2" d="M81.6,106.1c-3.7-5.9-7.3-11.8-9.9-18.1c-1.8-4.3-1.4-8.4,1.5-12.1c3-3.7,7.1-4.5,11.6-3.4
	c4.3,1.1,6.7,4.1,7.5,8.4c0.4,2.2,0.2,4.3-0.6,6.4C89.1,94,85.4,100,81.6,106.1z M81.5,87.1c2.1,0,3.8-1.6,3.9-3.7
	c0-2.1-1.6-3.9-3.8-3.9c-2.1,0-3.8,1.7-3.8,3.7C77.7,85.3,79.4,87.1,81.5,87.1z"/>
<path class="st2" d="M54.3,67.2c-3.7-5.9-7.3-11.8-9.9-18.1c-1.8-4.3-1.4-8.4,1.5-12.1c3-3.7,7.1-4.5,11.6-3.4
	c4.3,1.1,6.7,4.1,7.5,8.4c0.4,2.2,0.2,4.3-0.6,6.4C61.9,55.1,58.1,61,54.3,67.2z M54.2,48.1c2.1,0,3.8-1.6,3.9-3.7
	c0-2.1-1.6-3.9-3.8-3.9c-2.1,0-3.8,1.7-3.8,3.7C50.5,46.4,52.2,48.1,54.2,48.1z"/>
</svg>
