<?xml version="1.0" encoding="utf-8"?>
<!-- Generator: Adobe Illustrator 23.0.2, SVG Export Plug-In . SVG Version: 6.00 Build 0)  -->
<svg version="1.1" id="Layer_1" xmlns="http://www.w3.org/2000/svg" xmlns:xlink="http://www.w3.org/1999/xlink" x="0px" y="0px"
	 viewBox="0 0 230.2 118.2" style="enable-background:new 0 0 230.2 118.2;" xml:space="preserve">
<style type="text/css">
	.st0{fill:#E6E6E6;stroke:#023F2C;stroke-width:0.25;}
	.st1{fill:#002C1B;}
	.st2{fill:#FFFFFF;}
	.st3{fill:#023F2C;}
</style>
<g>
	<path class="st0" d="M67.2,62.9c0-0.5-0.2-0.9-0.6-1.2c-0.4-0.3-0.9-0.4-1.6-0.4h-2.6v3.5H65c0.7,0,1.2-0.2,1.6-0.5
		C67,63.9,67.2,63.5,67.2,62.9z"/>
	<path class="st0" d="M228.1,36.8c-0.7-1.1-2-3.4-2.3-4.6c-0.3-1.2,0.3-3.7,0.1-4.9c-0.1-0.7-0.8-2-1-2.7c0-0.1-0.1-0.3-0.2-0.4
		c-0.5,0-1.1,0-1.4,0c-0.7-0.1-1.9-1-2.5-1.3c-0.9-0.5-2.7-1.5-3.7-1.7c-0.5-0.1-1.6-0.2-2.1,0c-0.4,0.1-0.9,0.9-1.3,1
		c-0.6,0.2-2-0.6-2.6-0.3c-0.5,0.2-0.9,1.2-1.1,1.7c-0.2,0.4-0.5,1.3-0.8,1.6c-0.4,0.4-1.6,0.7-2.1,0.6c-0.9-0.1-2.3-1.5-3.1-1.7
		c-0.7-0.2-2.1,0-2.8,0c-0.8,0-2.4,0-3.1,0.3c-0.7,0.2-1.8,1.2-2.4,1.6c-0.3,0.2-1,0.9-1.4,1c-0.6,0.2-1.9,0.3-2.4-0.1
		c-0.4-0.4,0-1.7-0.3-2.1c-0.4-0.4-1.7-0.5-2.3-0.5c-0.6,0-1.7,0.4-2.3,0.3c-0.6-0.2-1.3-1.4-1.9-1.7c-0.7-0.4-2.4-0.9-3.2-0.7
		c-0.6,0.1-1.6,1.2-2.1,1.5c-0.5,0.3-1.6,0.7-2.2,0.8c-0.8,0.2-2.5,0.5-3.3,0.3c-0.6-0.2-1.5-1-1.9-1.5c-0.4-0.5-0.6-2-1.2-2.4
		c-0.8-0.6-3-0.7-4.1-0.8c-1,0-2.9,0.1-3.8,0.5c-0.5,0.2-1.2,0.9-1.6,1.2c-0.4,0.2-1.3,0.6-1.7,0.8c-0.9,0.3-3.1,0.2-3.9,0.8
		c-0.4,0.4-0.6,1.5-0.8,2c-0.3,0.8-0.9,2.4-1.5,3.1c-0.6,0.8-2.1,2.3-3,2.6c-0.7,0.3-2.4,0.3-3.2,0.1c-1-0.3-2.5-1.9-3.3-2.6
		c-0.9-0.8-2.6-2.6-3.7-3.2c-0.8-0.4-2.5-0.8-3.4-0.9c-0.2,0-0.5,0-0.7,0c-1.3,0.1-3,0.5-4,0.5c-1.3,0.1-4,0.4-5.3,0.4
		c-1.6,0-4.7-0.3-6.2-0.8c-1-0.3-3-1.3-3.7-2c-0.6-0.5-1.2-2-1.7-2.6c-0.5-0.6-1.4-1.7-2-2.1c-0.3-0.2-1-0.4-1.4-0.3
		c-0.4,0.1-0.9,1.1-1.3,1.3c-0.7,0.4-2.4,1-3.2,0.9c-0.6-0.1-1.5-1-1.9-1.4c-0.3-0.3-1-1.1-1-1.6c-0.2-1.1,1.3-3.2,1.3-4.3
		c0-0.7-0.2-2.2-0.6-2.8c-0.3-0.4-1.1-1-1.5-1.2c-0.4-0.2-1.3-0.3-1.8-0.3c-0.4,0-1.2,0.4-1.6,0.6c-0.7,0.4-2,1.4-2.7,1.9
		c-0.6,0.4-1.8,1.1-2.5,1.3c-0.6,0.2-2,0.3-2.6,0.1c-0.7-0.2-1.8-1.1-2.3-1.7c-0.6-0.7-1.3-2.5-1.9-3.3c-0.4-0.6-1.4-1.6-1.9-2.1
		c-0.5-0.4-1.4-1.3-2-1.5c-1-0.3-3.2,0-4.3,0.1c-0.9,0.1-2.7,0.7-3.6,0.6c-0.8-0.1-2.5-0.8-3.2-1.2C73,2.6,72,1.8,71.3,1.1l-6.2,2.6
		c0,0-0.2,1.9-0.2,2.6c-0.1,1.4-0.1,4.3,0,5.7c0.1,1.5,0.8,4.3,1,5.8c0.2,1.7,0.1,5,0.2,6.7c0.1,1.5,0.1,4.6,0.3,6.2
		c0.1,0.9,1,2.5,1,3.3c0,0.6-0.5,1.9-0.9,2.3c-0.6,0.5-2.2,1-3,1c-1.3-0.1-3.7-1.6-4.9-2.1c-1-0.4-2.9-1.4-4-1.5
		c-1.3-0.1-4,0.4-5.2,0.8c-2.1,0.8-5.7,3.3-7.5,4.6c-1.7,1.2-5,3.5-6.5,5c-1.1,1.1-2.8,3.6-3.7,4.7c-0.7,0.9-2.2,2.6-3.1,3.3
		c-0.7,0.6-2.6,1.5-3.3,2.2c-0.7,0.8-1.1,3-1.7,3.9c-0.5,0.7-1.7,1.7-2.4,2.2c-0.8,0.7-2.8,1.6-3.6,2.3c-0.9,0.8-2.3,2.9-3.3,3.5
		c-0.6,0.3-2.2,0.3-2.8,0.5c-0.6,0.2-1.7,0.6-2.1,1c-1.1,1-2.2,4-2.9,5.3c-0.9,1.7-2.9,5-3.5,6.8c-0.4,1.1-0.9,3.3-1,4.5
		c-0.1,1,0.1,3,0.3,3.9c0.2,0.8,0.8,2.3,1.1,3c0.5,1,2.1,2.8,2.4,3.9c0.3,1.2-0.1,3.7-0.3,4.9c-0.2,1.5-0.9,4.4-1.4,5.8
		c-0.5,1.4-2.1,3.8-2.7,5.1c-0.3,0.6-0.8,2-1.1,2.9c1.3,0.3,3.2,0.8,4.2,1.1c1.6,0.4,4.9,1.3,6.5,1.7c0.9,0.3,2.6,0.9,3.5,1.1
		c0.4,0.1,1.3,0.4,1.6,0.1c0.3-0.2,0.2-1.1,0.2-1.5c0-0.6-0.1-1.7-0.1-2.3c0.1-0.9,0.8-2.7,1.1-3.6c0.5-1.4,1.5-4.1,2.3-5.3
		c0.9-1.3,3.3-3.4,4.4-4.5c1.1-1,3.4-3,4.7-3.7c0.5-0.3,1.7-0.4,2.3-0.6c0.6-0.2,1.9-0.7,2.5-1c0.7-0.3,1.9-1.3,2.6-1.5
		c0.7-0.3,2.3-0.5,3-0.6c1.3-0.1,3.9-0.2,5.2-0.1c1.5,0.1,4.3,0.8,5.7,0.9c1.6,0.2,4.8,0.4,6.4,0.3c1-0.1,3.1-0.7,4.1-0.8
		c1-0.1,3.1-0.4,4.2-0.3c0.9,0.1,2.6,0.8,3.5,1c1.3,0.2,3.9,0.2,5.2,0.1c1.1-0.1,3.1-0.5,4.2-0.8c1-0.3,2.9-1.6,3.9-1.7
		c1.1-0.1,3.3,0.8,4.4,0.8c1.4-0.1,4.1-1.3,5.5-1.6c1.4-0.3,4.3-1,5.7-0.8c1,0.1,2.9,0.9,3.9,1.2c0.8,0.3,2.3,1.1,3.1,1.2
		c0.7,0.1,2.3,0,3-0.2c0.9-0.3,2.4-1.4,3.2-1.9c1.2-0.8,3.8-2.2,4.8-3.2c0.7-0.7,1.8-2.4,2.4-3.2c0.9-1.2,2.4-3.9,3.3-5.1
		c1-1.4,3.3-4,4.6-5.2c0.6-0.6,2.2-1.5,2.8-2.1c0.7-0.6,1.9-2.3,2.7-2.8c0.8-0.5,2.9-0.6,3.7-1.2c0.4-0.3,0.8-1.2,1.2-1.6
		c0.3-0.3,1-0.9,1.5-1.1c0.5-0.2,1.5-0.4,2-0.3c0.6,0,1.8,0.5,2.4,0.8c0.5,0.2,1.5,0.9,2.1,1c0.6,0,1.7-0.4,2.1-0.7
		c0.5-0.3,1.1-1.4,1.5-1.8c0.5-0.5,1.5-1.6,2-2c0.7-0.6,2.3-1.5,3-1.9c0.6-0.4,2-1,2.6-1.4c0.6-0.4,1.7-1.4,2.1-2
		c0.3-0.4,0.8-1.4,0.7-1.9c-0.1-0.5-1.4-1.2-1.3-1.7c0-0.6,1.3-1.2,1.7-1.6c0.4-0.5,1.1-1.7,1.7-1.9c0.5-0.2,1.6,0.2,2.1,0.4
		c0.9,0.5,1.9,2.4,2.6,3c0.3,0.3,1,0.8,1.5,0.8c0.7,0,1.9-0.8,2.5-1.2c0.3-0.3,1.1-0.9,1.1-1.4c0-0.5-1.1-1.2-1.5-1.5
		c-0.7-0.6-2.1-1.8-2.8-2.4c-0.5-0.4-1.8-1.1-2.1-1.7c-0.3-0.6-0.3-1.9-0.3-2.5c0-0.6,0.3-1.7,0.6-2.1c0.3-0.4,1-0.9,1.5-1
		c0.8-0.1,2.4,0.8,3.3,1c0.9,0.3,2.8,0.7,3.7,1c0.8,0.3,2.6,0.7,3.3,1.2c0.7,0.6,1.4,2.3,1.9,3.1c0.3,0.5,0.8,1.8,1.4,2.1
		c1,0.4,3-0.7,4-0.9c1-0.2,3-0.2,3.9-0.4c0.7-0.2,2.2-0.5,2.8-1c0.4-0.4,0.6-1.5,0.8-2c0.2-0.7,0.1-2.5,0.8-2.7
		c1-0.3,2.7,1.8,3.5,2.6c0.9,0.8,2.2,3.3,3.3,3.7c0.9,0.4,3.1-0.2,4-0.5c1.1-0.4,3.1-1.6,4.2-2.2c1-0.6,3.1-1.8,4-2.5
		c0.7-0.5,1.9-1.8,2.6-2.3c0.6-0.3,1.8-0.8,2.4-0.8c0.8,0,2.2,0.6,2.9,1c0.6,0.4,1.5,1.4,2,1.9c0.4,0.4,0.9,1.7,1.5,1.9
		c0.4,0.2,1.4-0.2,1.8-0.3c0.8-0.3,2.2-1.1,3-1.5c1.1-0.6,3.4-1.8,4.4-2.5c0.1,0,0.1-0.1,0.2-0.2C229.6,38.7,228.5,37.4,228.1,36.8z
		 M37.1,68.7c-0.5,0.2-1.2,0.4-1.9,0.4c-1.2,0-2.3-0.4-3.1-1.3c-0.8-0.9-1.2-1.9-1.2-3.1c0-1.2,0.4-2.3,1.2-3.1s1.9-1.3,3.1-1.3
		c0.7,0,1.3,0.1,1.8,0.3c0.5,0.2,1,0.6,1.5,1l-0.6,0.7c-0.8-0.8-1.7-1.2-2.7-1.2c-0.9,0-1.7,0.3-2.4,1c-0.6,0.7-0.9,1.5-0.9,2.5
		c0,1,0.3,1.8,1,2.5s1.4,1,2.4,1c0.6,0,1-0.1,1.5-0.3c0.4-0.2,0.9-0.5,1.3-0.9l0.6,0.7C38.1,68.1,37.6,68.4,37.1,68.7z M48.4,68.9
		h-1V65h-4.9v3.9h-1v-8.6h1v3.8h4.9v-3.8h1V68.9z M58.3,68.9H52v-8.6h6.2v0.9H53v2.9h4.7V65H53v3h5.3V68.9z M67.3,68.9l-2.5-3.3
		h-2.4v3.3h-1v-8.6h3.7c1.1,0,1.9,0.3,2.4,0.9c0.4,0.4,0.7,1,0.7,1.7c0,0.7-0.2,1.2-0.6,1.7s-1,0.7-1.7,0.8l2.6,3.5H67.3z
		 M78.7,68.9H78l-5.5-7v7h-0.9v-8.6h0.9l5.4,6.9v-6.9h0.9V68.9z M83.4,68.9h-1v-8.6h1V68.9z M91,69h-0.9l-3.7-8.6h1.1l3,7.4l3.1-7.4
		h1L91,69z M103.7,61.2h-2.9v7.7h-1v-7.7h-2.9v-0.9h6.7V61.2z M111.6,68.3c-0.5,0.4-1.2,0.7-2.1,0.7c-1.3,0-2.5-0.5-3.5-1.4l0.6-0.7
		c0.5,0.4,0.9,0.7,1.4,0.9c0.5,0.2,1,0.3,1.6,0.3c0.6,0,1-0.1,1.4-0.4s0.5-0.6,0.5-1.1c0-0.4-0.2-0.7-0.5-1
		c-0.3-0.2-0.9-0.5-1.8-0.6c-1-0.2-1.8-0.5-2.2-0.9c-0.4-0.4-0.7-0.9-0.7-1.6c0-0.7,0.3-1.2,0.8-1.7c0.5-0.4,1.2-0.7,2-0.7
		c1.1,0,2.1,0.4,3,1.1l-0.6,0.7c-0.8-0.6-1.6-0.9-2.5-0.9c-0.5,0-1,0.1-1.3,0.4c-0.3,0.3-0.5,0.6-0.5,1c0,0.4,0.2,0.8,0.5,1
		c0.3,0.2,0.9,0.5,1.8,0.7c1,0.2,1.7,0.5,2.1,0.9s0.7,0.9,0.7,1.6C112.4,67.3,112.1,67.9,111.6,68.3z M116.6,68.9h-1v-8.6h1V68.9z"
		/>
	<path class="st1" d="M36.7,67.8c-0.4,0.2-0.9,0.3-1.5,0.3c-0.9,0-1.7-0.3-2.4-1s-1-1.5-1-2.5c0-1,0.3-1.8,0.9-2.5
		c0.6-0.7,1.4-1,2.4-1c1,0,1.9,0.4,2.7,1.2l0.6-0.7c-0.5-0.5-1-0.8-1.5-1c-0.5-0.2-1.1-0.3-1.8-0.3c-1.2,0-2.3,0.4-3.1,1.3
		s-1.2,1.9-1.2,3.1c0,1.2,0.4,2.3,1.2,3.1c0.8,0.9,1.8,1.3,3.1,1.3c0.7,0,1.4-0.1,1.9-0.4c0.5-0.2,1-0.6,1.5-1.1L38,66.9
		C37.5,67.3,37.1,67.6,36.7,67.8z"/>
	<polygon class="st1" points="47.4,64.1 42.5,64.1 42.5,60.3 41.5,60.3 41.5,68.9 42.5,68.9 42.5,65 47.4,65 47.4,68.9 48.4,68.9 
		48.4,60.3 47.4,60.3 	"/>
	<polygon class="st1" points="53,65 57.7,65 57.7,64.1 53,64.1 53,61.2 58.2,61.2 58.2,60.3 52,60.3 52,68.9 58.3,68.9 58.3,68 
		53,68 	"/>
	<path class="st1" d="M67.6,64.6c0.4-0.4,0.6-1,0.6-1.7c0-0.7-0.2-1.3-0.7-1.7c-0.6-0.6-1.4-0.9-2.4-0.9h-3.7v8.6h1v-3.3h2.4
		l2.5,3.3h1.2l-2.6-3.5C66.6,65.3,67.1,65,67.6,64.6z M62.4,64.7v-3.5H65c0.7,0,1.2,0.1,1.6,0.4c0.4,0.3,0.6,0.7,0.6,1.2
		c0,0.6-0.2,1-0.6,1.3c-0.4,0.3-0.9,0.5-1.6,0.5H62.4z"/>
	<polygon class="st1" points="77.8,67.2 72.4,60.3 71.5,60.3 71.5,68.9 72.4,68.9 72.4,61.9 78,68.9 78.7,68.9 78.7,60.3 77.8,60.3 
			"/>
	<rect x="82.5" y="60.3" class="st1" width="1" height="8.6"/>
	<polygon class="st1" points="90.5,67.7 87.5,60.3 86.4,60.3 90.1,69 91,69 94.6,60.3 93.6,60.3 	"/>
	<polygon class="st1" points="96.9,61.2 99.8,61.2 99.8,68.9 100.8,68.9 100.8,61.2 103.7,61.2 103.7,60.3 96.9,60.3 	"/>
	<path class="st1" d="M109.6,64.1c-0.9-0.2-1.5-0.4-1.8-0.7c-0.3-0.2-0.5-0.6-0.5-1c0-0.4,0.2-0.7,0.5-1c0.3-0.3,0.8-0.4,1.3-0.4
		c0.9,0,1.7,0.3,2.5,0.9l0.6-0.7c-0.9-0.7-1.9-1.1-3-1.1c-0.8,0-1.5,0.2-2,0.7c-0.5,0.4-0.8,1-0.8,1.7c0,0.7,0.2,1.2,0.7,1.6
		c0.4,0.4,1.2,0.7,2.2,0.9c0.9,0.2,1.5,0.4,1.8,0.6c0.3,0.2,0.5,0.6,0.5,1c0,0.4-0.2,0.8-0.5,1.1s-0.8,0.4-1.4,0.4
		c-0.6,0-1.1-0.1-1.6-0.3c-0.5-0.2-0.9-0.5-1.4-0.9l-0.6,0.7c1,0.9,2.2,1.4,3.5,1.4c0.9,0,1.6-0.2,2.1-0.7s0.8-1,0.8-1.8
		c0-0.7-0.2-1.2-0.7-1.6S110.6,64.4,109.6,64.1z"/>
	<rect x="115.6" y="60.3" class="st1" width="1" height="8.6"/>
</g>
<g>
	<path class="st2" d="M86.3,21.4c0-2.1-1.6-3.9-3.8-3.9c-2.1,0-3.8,1.7-3.8,3.7c0,2,1.7,3.8,3.7,3.8C84.5,25.1,86.2,23.5,86.3,21.4z
		"/>
	<path class="st3" d="M93.2,19c-0.8-4.3-3.2-7.3-7.5-8.4c-4.5-1.2-8.6-0.3-11.6,3.4c-2.9,3.6-3.2,7.8-1.5,12.1
		c2.6,6.4,6.2,12.2,9.9,18.1C86.3,37.9,90,32,92.6,25.3C93.4,23.2,93.6,21.1,93.2,19z M78.7,21.2c0-2.1,1.8-3.8,3.8-3.7
		c2.1,0,3.8,1.8,3.8,3.9c0,2.1-1.8,3.7-3.9,3.7C80.3,25,78.6,23.3,78.7,21.2z"/>
</g>
<g>
	<path class="st2" d="M107.5,34.7c0-2.1-1.6-3.9-3.8-3.9c-2.1,0-3.8,1.7-3.8,3.7c0,2,1.7,3.8,3.7,3.8
		C105.7,38.4,107.4,36.8,107.5,34.7z"/>
	<path class="st3" d="M114.4,32.3c-0.8-4.3-3.2-7.3-7.5-8.4c-4.5-1.2-8.6-0.3-11.6,3.4c-2.9,3.6-3.2,7.8-1.5,12.1
		c2.6,6.4,6.2,12.2,9.9,18.1c3.8-6.1,7.5-12.1,10.1-18.7C114.6,36.6,114.8,34.5,114.4,32.3z M99.9,34.6c0-2.1,1.8-3.8,3.8-3.7
		c2.1,0,3.8,1.8,3.8,3.9c0,2.1-1.8,3.7-3.9,3.7C101.5,38.4,99.8,36.6,99.9,34.6z"/>
</g>
</svg>
