<?xml version="1.0" encoding="utf-8"?>
<!-- Generator: Adobe Illustrator 23.0.2, SVG Export Plug-In . SVG Version: 6.00 Build 0)  -->
<svg version="1.1" id="Layer_1" xmlns="http://www.w3.org/2000/svg" xmlns:xlink="http://www.w3.org/1999/xlink" x="0px" y="0px"
	 viewBox="0 0 145.6 266.2" style="enable-background:new 0 0 145.6 266.2;" xml:space="preserve">
<style type="text/css">
	.st0{fill:#E6E6E6;stroke:#023F2C;stroke-width:0.25;}
	.st1{fill:#002C1B;}
	.st2{fill:#FFFFFF;}
	.st3{fill:#023F2C;}
</style>
<g>
	<path class="st0" d="M140.7,180.9l0.2-9.1l0.9-4.9l-3-5.3l4.8-3.2l-1.7-3.9l-5.8-0.7l-2.2-4.2l4.2-2.3l0.3-6.7l-4.1-2.1l5.9-8.9
		l3.3,0.2l0.7-1.8l-4.6-1.9l0.8-5.2l3.9-1.9l-1.1-4.5l-6.6,2l-0.5-7.1l-11.1-9.3l-0.1-3.4l-3.7-1.9l5-11.1l-3.9-6.8l3.2-1l4.6,1.3
		l5-4.6l-5.1-3.1l0.7-9.6l5,0.7l0.5-3.9l-1.9-0.3l-2.1-3.4l-2-7.1l-2.4-0.1l-0.3,3.4l-4.1-0.2l-0.6-3.1l-6.6-3l-0.1-4.3l-5.8-6.1
		l-1.3-0.2l-0.2-3l-7.8-3.3l6.4-11.9l0.4-2.8l-1-1.6l-2.4-0.4l-3-3.3l-0.2-0.3l-0.3,0.1l-4.2-0.2L94.6,0l-4.1,1.5L89.2,5l-5.1,0.2
		L81.4,8l-5.7-3.6l-4.8,2.7c0,0-0.2,2-0.7,2.4c-0.5,0.3-1.7-0.3-2.2-0.3c-0.9,0-2.8,0.1-3.7,0.5c-0.6,0.3-1.7,1.4-2.1,2
		c-0.4,0.8-0.4,2.6-0.6,3.4c-0.3,1.1-0.9,3.4-1.4,4.5c-0.2,0.4-0.5,1.4-0.9,1.7c-0.4,0.2-1.5-0.2-1.9-0.1c-1.6,0.5-3.9,3.1-5.2,4.2
		c-0.9,0.7-2.8,2.1-3.5,3c-0.5,0.7-0.9,2.5-1.4,3.2c-0.7,1-2.6,2.7-3.5,3.5c-1.1,0.9-3.5,2.7-4.8,3.3c-1,0.4-3.1,0.6-4.1,0.7
		c-0.6,0.1-1.9,0-2.5,0.2c-0.8,0.3-2.1,1.6-2.8,2.2c-1.2,1.1-3.1,3.5-4.3,4.6c-1.1,1.1-3.3,3.2-4.7,3.9c-1,0.5-3.7,1.2-5.4,1.5
		l-0.1,1.8l4.3,1.4l0.5,2.7l-4.3,1l-1.4,5.3l2.9,2l-0.7,3l-0.9,3.6l-5.8-0.1c0,0-0.4,2.4-0.6,3.2c-0.1,0.6-0.4,1.8-0.7,2.3
		c-0.4,0.7-1.7,1.6-2,2.4c-0.1,0.4,0.1,1.4,0.2,1.9c0.1,0.9,0,2.6,0.2,3.5c0.1,0.7,0.6,2.1,0.9,2.8c0.5,0.9,1.7,2.6,2.3,3.5
		c0.5,0.8,1.6,2.4,1.9,3.3c0.3,0.9,0.3,2.9,0.3,3.9c0,1.1-0.6,3.2-0.6,4.3c0.1,1.4,0.9,4,1.3,5.2c0.2,0.7,1,1.9,1.2,2.5
		c0.3,1,0.9,3.1,0.8,4.2c0,0.6-0.3,1.9-0.6,2.5c-0.3,0.5-1.4,1.2-1.8,1.7c-0.5,0.7-1.2,2.3-1.5,3.1c-0.1,0.5,0.2,1.8-0.2,2.2
		c-0.3,0.5-1.6,0.7-2,1c-0.5,0.4-1.7,1.2-2,1.8c-0.3,0.8,0.1,2.6,0.3,3.5c0.2,1.2,0.9,3.6,1.1,4.8c0.2,0.9,0.5,2.8,0.6,3.8
		c0.2,1.4,0.4,4.1,0.4,5.5c0,1.4-0.6,4-0.6,5.4c0,1.4,0.2,4.2,0.5,5.5c0.3,1.2,1.6,3.4,1.8,4.6c0.2,1.1,0.1,3.5-0.3,4.6
		c-0.2,0.6-1.1,1.6-1.5,2.1c-0.5,0.5-1.6,1.3-2.1,1.9c-0.5,0.6-1.6,1.8-1.8,2.5c-0.5,1.4-0.2,4.6-0.1,6.1c0.1,1.7,0.9,5,1,6.7
		c0.1,1.7-0.2,5.2-0.3,7c0,0.8,0.2,2.4-0.1,3.2c-0.3,0.7-1.4,1.8-1.8,2.4c-0.6,0.8-1.8,2.2-2.2,3c-0.5,1-1,3-1.1,4.1
		c-0.1,1,0,3.2,0.5,4.2c0.3,0.5,1.5,1,1.8,1.5c0.4,0.7,0.7,2.3,0.6,3.1c-0.1,0.7-1.1,1.9-1.2,2.5c-0.3,1.4,0.3,4.2,0.4,5.7
		c0,1.5-0.2,4.4-0.2,5.8c0,1.7-0.2,5.2,0.2,6.9c0.3,1.2,1.7,3.5,2.4,4.6c0.3,0.5,1.3,1.4,1.5,2c0.2,0.7-0.2,2.2,0.1,2.9
		c0.2,0.4,1.1,0.9,1.4,1.2c0.5,0.8,0.8,2.6,1,3.4c0.3,0.9,0.7,2.8,1.1,3.7c0.7,1.4,3,3.6,3.9,4.8c0.5,0.7,1.6,2.1,2.5,3.2
		c0.3,0,0.5,0,0.7,0c0.9,0.1,2.6,0.5,3.4,0.9c1.1,0.6,2.7,2.4,3.7,3.2c0.8,0.7,2.3,2.2,3.3,2.6c0.8,0.2,2.4,0.2,3.2-0.1
		c0.9-0.4,2.4-1.8,3-2.6c0.5-0.7,1.1-2.3,1.5-3.1c0.2-0.5,0.4-1.7,0.8-2c0.8-0.6,2.9-0.5,3.9-0.8c0.4-0.1,1.3-0.5,1.7-0.8
		c0.4-0.2,1.1-1,1.6-1.2c0.9-0.4,2.8-0.5,3.8-0.5c1,0,3.3,0.1,4.1,0.8c0.5,0.4,0.8,1.9,1.2,2.4c0.4,0.5,1.3,1.3,1.9,1.5
		c0.8,0.2,2.5-0.1,3.3-0.3c0.6-0.1,1.7-0.6,2.2-0.8c0.6-0.3,1.5-1.4,2.1-1.5c0.8-0.2,2.5,0.3,3.2,0.7c0.6,0.3,1.3,1.5,1.9,1.7
		c0.6,0.2,1.7-0.3,2.3-0.3c0.6,0,1.9,0.1,2.3,0.5c0.4,0.4,0,1.7,0.3,2.1c0.4,0.4,1.8,0.3,2.4,0.1c0.4-0.1,1-0.7,1.4-1
		c0.6-0.4,1.7-1.4,2.4-1.6c0.7-0.3,2.3-0.2,3.1-0.3c0.7,0,2.2-0.2,2.8,0c0.9,0.2,2.2,1.6,3.1,1.7c0.6,0.1,1.7-0.3,2.1-0.6
		c0.3-0.3,0.6-1.2,0.8-1.6c0.3-0.4,0.7-1.5,1.1-1.7c0.6-0.3,1.9,0.5,2.6,0.3c0.4-0.1,0.9-0.8,1.3-1c0.5-0.2,1.6-0.1,2.1,0
		c1,0.2,2.8,1.3,3.7,1.7c0.6,0.3,1.8,1.2,2.5,1.3c0.3,0,0.8,0.1,1.4,0c-0.3-0.9-0.9-2.3-1.1-3c-0.4-1-1.3-3-1.5-4
		c-0.2-1,0.1-3,0.1-3.9c0-0.9-0.1-3.5-0.1-3.5l-0.8-5.8l3.5-2.3c0,0-1.9-5.6-2.3-7.5c-0.6-2.7-1.1-8.2-1.2-11
		c-0.1-2.8,0.6-11,0.6-11l7.6-7.5c0,0,1-0.3,1.1-0.6c0.3-0.5-0.2-1.8-0.2-2.4c0.1-0.6,0.7-1.6,0.7-2.2c0-0.6-0.8-1.6-0.8-2.2
		c0-0.4,0.5-1.7,0.5-1.7l6.7-3h1.3l0.1-2.2l5.1,0.7l5.3,1.4l5.9,2.9l3.6-5.4l4.6,1.6l1.9-3.8L140.7,180.9z M24.9,156.7l-3.3-4.1
		l-1.8,1.8v2.3h-1v-8.6h1v5.1l4.9-5.1H26l-3.7,3.7l3.8,4.8H24.9z M35.7,156.7h-1v-3.9h-4.9v3.9h-1v-8.6h1v3.8h4.9v-3.8h1V156.7z
		 M47.6,156.7h-1v-6.9l-3.1,4.6h0l-3.1-4.6v6.9h-0.9v-8.6h1l3.1,4.7l3.1-4.7h1V156.7z M57.4,156.7h-6.2v-8.6h6.2v0.9h-5.2v2.9h4.7
		v0.9h-4.7v3h5.3V156.7z M66.4,156.7h-5.8v-8.6h1v7.7h4.8V156.7z M76.6,156.7h-0.8l-5.5-7v7h-0.9v-8.6h0.9l5.4,6.9v-6.9h0.9V156.7z
		 M81.3,156.7h-1v-8.6h1V156.7z M91.2,149h-2.9v7.7h-1V149h-2.9v-0.9h6.7V149z M99.1,156.2c-0.5,0.4-1.2,0.7-2.1,0.7
		c-1.3,0-2.5-0.5-3.5-1.4l0.6-0.7c0.5,0.4,0.9,0.7,1.4,0.9c0.5,0.2,1,0.3,1.6,0.3c0.6,0,1-0.1,1.4-0.4s0.5-0.6,0.5-1.1
		c0-0.4-0.2-0.7-0.5-1c-0.3-0.2-0.9-0.5-1.8-0.6c-1-0.2-1.8-0.5-2.2-0.9s-0.7-0.9-0.7-1.6c0-0.7,0.3-1.2,0.8-1.7
		c0.5-0.4,1.2-0.7,2-0.7c1.1,0,2.1,0.4,3,1.1l-0.6,0.7c-0.8-0.6-1.6-0.9-2.5-0.9c-0.5,0-1,0.1-1.3,0.4c-0.3,0.3-0.5,0.6-0.5,1
		c0,0.4,0.2,0.8,0.5,1c0.3,0.2,0.9,0.5,1.8,0.7c1,0.2,1.7,0.5,2.1,0.9s0.7,0.9,0.7,1.6C99.9,155.1,99.6,155.7,99.1,156.2z
		 M109.2,156.7l-3.3-4.1l-1.8,1.8v2.3h-1v-8.6h1v5.1l4.9-5.1h1.2l-3.7,3.7l3.8,4.8H109.2z M116.3,153.3v3.4h-1v-3.4l-3.6-5.2h1.2
		l2.9,4.3l2.9-4.3h1.1L116.3,153.3z M123.7,156.7h-1v-8.6h1V156.7z"/>
	<polygon class="st1" points="26,148.1 24.7,148.1 19.8,153.3 19.8,148.1 18.8,148.1 18.8,156.7 19.8,156.7 19.8,154.4 21.6,152.6 
		24.9,156.7 26.1,156.7 22.3,151.9 	"/>
	<polygon class="st1" points="34.8,151.9 29.8,151.9 29.8,148.1 28.9,148.1 28.9,156.7 29.8,156.7 29.8,152.9 34.8,152.9 
		34.8,156.7 35.7,156.7 35.7,148.1 34.8,148.1 	"/>
	<polygon class="st1" points="43.5,152.8 40.3,148.1 39.4,148.1 39.4,156.7 40.3,156.7 40.3,149.8 43.4,154.4 43.5,154.4 
		46.6,149.8 46.6,156.7 47.6,156.7 47.6,148.1 46.6,148.1 	"/>
	<polygon class="st1" points="52.2,152.8 56.8,152.8 56.8,151.9 52.2,151.9 52.2,149 57.4,149 57.4,148.1 51.2,148.1 51.2,156.7 
		57.4,156.7 57.4,155.8 52.2,155.8 	"/>
	<polygon class="st1" points="61.6,148.1 60.6,148.1 60.6,156.7 66.4,156.7 66.4,155.8 61.6,155.8 	"/>
	<polygon class="st1" points="75.7,155 70.3,148.1 69.4,148.1 69.4,156.7 70.3,156.7 70.3,149.7 75.9,156.7 76.6,156.7 76.6,148.1 
		75.7,148.1 	"/>
	<rect x="80.4" y="148.1" class="st1" width="1" height="8.6"/>
	<polygon class="st1" points="84.5,149 87.3,149 87.3,156.7 88.3,156.7 88.3,149 91.2,149 91.2,148.1 84.5,148.1 	"/>
	<path class="st1" d="M97.1,152c-0.9-0.2-1.5-0.4-1.8-0.7c-0.3-0.2-0.5-0.6-0.5-1c0-0.4,0.2-0.7,0.5-1c0.3-0.3,0.8-0.4,1.3-0.4
		c0.9,0,1.7,0.3,2.5,0.9l0.6-0.7c-0.9-0.7-1.9-1.1-3-1.1c-0.8,0-1.5,0.2-2,0.7c-0.5,0.4-0.8,1-0.8,1.7c0,0.7,0.2,1.2,0.7,1.6
		s1.2,0.7,2.2,0.9c0.9,0.2,1.5,0.4,1.8,0.6c0.3,0.2,0.5,0.6,0.5,1c0,0.4-0.2,0.8-0.5,1.1S97.6,156,97,156c-0.6,0-1.1-0.1-1.6-0.3
		c-0.5-0.2-0.9-0.5-1.4-0.9l-0.6,0.7c1,0.9,2.2,1.4,3.5,1.4c0.9,0,1.6-0.2,2.1-0.7s0.8-1,0.8-1.8c0-0.7-0.2-1.2-0.7-1.6
		S98.1,152.2,97.1,152z"/>
	<polygon class="st1" points="110.2,148.1 109,148.1 104,153.3 104,148.1 103.1,148.1 103.1,156.7 104,156.7 104,154.4 105.9,152.6 
		109.2,156.7 110.4,156.7 106.5,151.9 	"/>
	<polygon class="st1" points="115.8,152.4 112.9,148.1 111.8,148.1 115.3,153.3 115.3,156.7 116.3,156.7 116.3,153.3 119.9,148.1 
		118.7,148.1 	"/>
	<rect x="122.7" y="148.1" class="st1" width="1" height="8.6"/>
</g>
<g>
	<path class="st2" d="M49.5,98.3c0-2.1-1.6-3.9-3.8-3.9c-2.1,0-3.8,1.7-3.8,3.7c0,2,1.7,3.8,3.7,3.8C47.7,102,49.4,100.4,49.5,98.3z
		"/>
	<path class="st3" d="M56.4,95.9c-0.8-4.3-3.2-7.3-7.5-8.4c-4.5-1.2-8.6-0.3-11.6,3.4c-2.9,3.6-3.2,7.8-1.5,12.1
		c2.6,6.4,6.2,12.2,9.9,18.1c3.8-6.1,7.5-12.1,10.1-18.7C56.6,100.2,56.8,98.1,56.4,95.9z M41.9,98.2c0-2.1,1.8-3.8,3.8-3.7
		c2.1,0,3.8,1.8,3.8,3.9c0,2.1-1.8,3.7-3.9,3.7C43.5,102,41.8,100.2,41.9,98.2z"/>
</g>
<g>
	<path class="st2" d="M42.3,55c0-2.1-1.6-3.9-3.8-3.9c-2.1,0-3.8,1.7-3.8,3.7c0,2,1.7,3.8,3.7,3.8C40.6,58.7,42.3,57.1,42.3,55z"/>
	<path class="st3" d="M49.2,52.6c-0.8-4.3-3.2-7.3-7.5-8.4c-4.5-1.2-8.6-0.3-11.6,3.4c-2.9,3.6-3.2,7.8-1.5,12.1
		c2.6,6.4,6.2,12.2,9.9,18.1c3.8-6.1,7.5-12.1,10.1-18.7C49.5,56.9,49.6,54.8,49.2,52.6z M34.7,54.8c0-2.1,1.8-3.8,3.8-3.7
		c2.1,0,3.8,1.8,3.8,3.9c0,2.1-1.8,3.7-3.9,3.7C36.4,58.6,34.7,56.9,34.7,54.8z"/>
</g>
<g>
	<path class="st2" d="M73.9,72c0-2.1-1.6-3.9-3.8-3.9c-2.1,0-3.8,1.7-3.8,3.7c0,2,1.7,3.8,3.7,3.8C72.2,75.7,73.9,74.1,73.9,72z"/>
	<path class="st3" d="M80.8,69.6c-0.8-4.3-3.2-7.3-7.5-8.4c-4.5-1.2-8.6-0.3-11.6,3.4c-2.9,3.6-3.2,7.8-1.5,12.1
		c2.6,6.4,6.2,12.2,9.9,18.1c3.8-6.1,7.5-12.1,10.1-18.7C81.1,73.9,81.2,71.8,80.8,69.6z M66.3,71.9c0-2.1,1.8-3.8,3.8-3.7
		c2.1,0,3.8,1.8,3.8,3.9c0,2.1-1.8,3.7-3.9,3.7C68,75.7,66.3,73.9,66.3,71.9z"/>
</g>
<g>
	<path class="st2" d="M103.7,62.4c0-2.1-1.6-3.9-3.8-3.9c-2.1,0-3.8,1.7-3.8,3.7c0,2,1.7,3.8,3.7,3.8
		C102,66.1,103.7,64.5,103.7,62.4z"/>
	<path class="st3" d="M110.6,60c-0.8-4.3-3.2-7.3-7.5-8.4c-4.5-1.2-8.6-0.3-11.6,3.4c-2.9,3.6-3.2,7.8-1.5,12.1
		c2.6,6.4,6.2,12.2,9.9,18.1c3.8-6.1,7.5-12.1,10.1-18.7C110.9,64.3,111,62.2,110.6,60z M96.1,62.3c0-2.1,1.8-3.8,3.8-3.7
		c2.1,0,3.8,1.8,3.8,3.9c0,2.1-1.8,3.7-3.9,3.7C97.8,66.1,96.1,64.3,96.1,62.3z"/>
</g>
<g>
	<path class="st2" d="M86.1,24.6c0-2.1-1.6-3.9-3.8-3.9c-2.1,0-3.8,1.7-3.8,3.7c0,2,1.7,3.8,3.7,3.8C84.3,28.3,86,26.7,86.1,24.6z"
		/>
	<path class="st3" d="M93,22.2c-0.8-4.3-3.2-7.3-7.5-8.4c-4.5-1.2-8.6-0.3-11.6,3.4c-2.9,3.6-3.2,7.8-1.5,12.1
		c2.6,6.4,6.2,12.2,9.9,18.1c3.8-6.1,7.5-12.1,10.1-18.7C93.2,26.5,93.4,24.4,93,22.2z M78.5,24.5c0-2.1,1.8-3.8,3.8-3.7
		c2.1,0,3.8,1.8,3.8,3.9c0,2.1-1.8,3.7-3.9,3.7C80.1,28.3,78.4,26.5,78.5,24.5z"/>
</g>
</svg>
