<?xml version="1.0" encoding="utf-8"?>
<!-- Generator: Adobe Illustrator 23.0.2, SVG Export Plug-In . SVG Version: 6.00 Build 0)  -->
<svg version="1.1" id="Layer_1" xmlns="http://www.w3.org/2000/svg" xmlns:xlink="http://www.w3.org/1999/xlink" x="0px" y="0px"
	 viewBox="0 0 236.9 254" style="enable-background:new 0 0 236.9 254;" xml:space="preserve">
<style type="text/css">
	.st0{fill:#E6E6E6;stroke:#023F2C;stroke-width:0.25;}
	.st1{fill:#002C1B;}
	.st2{fill:#FFFFFF;}
	.st3{fill:#023F2C;}
</style>
<g>
	<path class="st0" d="M234.9,104c-0.5,0.5-0.8,0.8-0.8,0.8l-15.7-18.6l-0.3-13l4.8-2.5l-0.2-3.1l-5.2-1.1l-4.3-0.9l-0.6-6.2
		c0,0-0.4-1.6-0.8-1.9c-0.4-0.4-1.4-0.6-1.9-0.8c-0.7-0.3-2.1-0.9-2.8-1.2c-0.4-0.2-1.2-0.7-1.7-0.8c-0.6-0.1-1.9,0-2.5,0.2
		c-0.8,0.1-2.3,0.8-3.1,0.9c-0.4,0.1-1.3-0.1-1.8,0c-0.6,0.2-1.7,1.1-2.3,1.3c-0.4,0.2-1.2,0.6-1.6,0.6c-2,0.3-6.1,0.1-7.8-0.8
		c-0.4-0.2-1.1-1-1.2-1.4c-0.2-0.5,0.2-1.6,0.2-2.1c0-0.6-0.2-2.5-0.2-2.5l-5.9-3.4l-4.1-1.8c0,0-0.6-1.3-0.7-1.7
		c-0.1-0.8,0.5-2.5,0.6-3.3c0.1-1,0.5-3.1,0.4-4.1c0-0.5-0.2-1.6-0.5-2c-0.3-0.3-1.2-0.5-1.5-0.8c-0.6-0.7-0.7-2.8-1-3.7
		c-0.2-0.4-0.4-1.3-0.8-1.6c-0.7-0.6-2.7-0.8-3.6-1.1c-1-0.3-3.2-0.7-4.2-1.1c-0.5-0.2-1.5-0.8-1.9-1.2c-0.4-0.5-1-1.8-1.1-2.4
		c-0.1-0.3,0.2-1,0.1-1.3c-0.2-0.6-1.2-1.3-1.7-1.7c-0.4-0.4-1.1-1.3-1.6-1.3c-0.7,0-1.9,1.1-2.4,1.6c-0.5,0.4-1.4,1.4-1.9,1.9
		c-0.4,0.4-1.1,1.7-1.7,1.7c-0.5,0-0.9-1.1-1.2-1.4c-2.2-2.2-7.1-6.2-9.5-8.3c-1.2-1.1-3.8-3-4.9-4.2c-0.6-0.6-1.7-1.9-2.1-2.7
		c-0.4-1-0.5-3.2-0.8-4.3c-0.2-0.5-0.7-1.6-1.2-2.5c0,0.1,0,0.3,0,0.4c0,0.7-0.5,1.9-0.5,2.6c-0.1,0.8,0,2.4,0.1,3.2
		c0.2,1.4,1.5,4.2,1.8,5.6c0.3,1.6,0.3,5,0.4,6.6c0.1,1.2,0.4,3.6,0.2,4.8c-0.2,1.2-1.5,3.3-2,4.4c-0.6,1.2-1.6,3.5-2.3,4.6
		c-0.3,0.4-1,1.3-1.4,1.6c-1.1,0.8-3.6,1.6-4.8,2.1c-0.9,0.4-2.6,1.5-3.6,1.8c-0.6,0.2-2,0.5-2.6,0.6c-1.6,0.1-4.7-0.4-6.3-0.6
		c-1-0.1-3-0.6-3.9-0.5c-0.7,0.1-2.1,0.6-2.7,1c-0.6,0.3-1.7,1.1-2.1,1.6c-0.8,1-1.5,3.6-1.9,4.8c-0.3,0.8-0.6,2.6-1.1,3.2
		c-0.5,0.6-2.2,1.2-2.9,1.7c-1.8,1.1-5.2,3.6-7,4.8c-3.1,2-9.4,5.7-12.4,7.8c-2.1,1.5-6,4.7-7.9,6.3c-1.3,1-3.8,2.9-5,4
		c-1.5,1.3-4.3,4.1-5.7,5.5c-1.7,1.7-4.8,5.4-6.5,7.2c-3.2,3.3-10.2,9.3-13.4,12.7c-1.7,1.7-4.7,5.4-6.3,7.2
		c-2.9,3.3-8.4,9.9-11.4,13.1c-1.6,1.7-4.9,5.2-6.5,6.8c-1.2,1.1-3.6,3.3-4.8,4.4c-1.6,1.3-5.3,3.5-6.5,5.2c-0.7,1-1.4,3.5-1.8,4.7
		c-0.1,0.5-0.7,1.6-0.4,2c0.3,0.4,1.6-0.1,2.1-0.1c0.6,0,1.7,0.3,2.3,0.5c0.4,0.2,1.4,0.5,1.7,0.9c0.5,0.8,0,2.7,0.1,3.6
		c0,1.5,0.1,4.4,0.1,5.9c0,2.2-0.2,6.7-0.3,8.9c-0.1,2.5,0.1,7.4-0.2,9.9c-0.1,0.9-0.3,2.8-0.6,3.6c-0.3,0.9-1.4,2.4-1.8,3.3
		c-0.3,0.8-0.9,2.6-0.9,3.5c0,0.6,0.2,2,0.5,2.5c0.3,0.4,1.3,0.8,1.8,1.1c0.5,0.3,1.5,1,1.9,1.5c0.3,0.5,0.6,1.7,0.7,2.3
		c0.1,0.6,0,2,0.3,2.6c0.4,0.8,1.8,1.8,2.4,2.4c0.8,1,2.5,2.9,2.9,4c0.4,1,0.9,3.4,0.4,4.4c-0.3,0.6-1.6,1.4-2.3,1.7
		c-0.4,0.1-1.1,0.2-1.8,0.2l8.6,9.2l-5.6,3l1.2,5.5l4.5,5.4l2.8,9l9.8-2.2l7.5,9.8l5.6-0.2l5.7,3.1l3.8,5.6l10.7,2.1l0.9-2.8
		l2.1-6.4l1.7-7.3l4-1.1l0.1-3.6l-2.2-4.2l3.3-9.5l8.9-7.7v-2.9l8.1-4.7l6.6,2.7l5-1l8.8,0.3l2.6-1.9l4.3,1.9l4.9,1.2l5.9-1l6.2-2.5
		l3.6-2h3.8l1.2,3.4l4-0.4l1.5-7.6l-0.8-1.6l-9.8-1.5l-0.3-4.2L136,187l2.9-4.3l4.3,2.1l2.6-4.4l0.4-4.8l-1.8-3.9l4.3-4.7l-1.5-2.6
		l3-6.8l5.4-0.6l0.8,4.7l1.7,0.9l4.5-1.3l13.2,5.2l0.1-1.5l-1.5-6.9l13.1-4.4l8.2-6l5.1-7.1l5.5-0.6l2.6-5.5c0,0-0.9-2-1.2-2.7
		c-0.3-0.9-1-2.8-0.8-3.7c0.1-0.7,0.8-2,1.4-2.4c1-0.7,3.5-0.7,4.6-1c1.1-0.2,3.2-1,4.3-1c0.6,0,1.7,0.6,2.3,0.5
		c0.6-0.1,1.5-0.8,2-1c0.6-0.3,1.8-0.9,2.5-0.9c0.3,0,0.9,0.1,1,0.3c0.4,0.5,0.1,1.9,0.3,2.5c0.2,0.5,1,1.4,1.5,1.5
		c0.4,0.1,1.7-0.6,1.7-0.6l4.6-4.1l3.7-12.7L234.9,104z M91.7,132.9h-5.8v-8.6h1v7.7h4.8V132.9z M97.1,133h-0.9l-3.7-8.6h1.1l3,7.4
		l3.1-7.4h1L97.1,133z M104.7,132.9h-1v-8.6h1V132.9z M112.2,133h-0.9l-3.7-8.6h1.1l3,7.4l3.1-7.4h1L112.2,133z"/>
	<polygon class="st1" points="86.9,124.4 85.9,124.4 85.9,132.9 91.7,132.9 91.7,132.1 86.9,132.1 	"/>
	<polygon class="st1" points="96.7,131.8 93.6,124.4 92.5,124.4 96.2,133 97.1,133 100.8,124.4 99.7,124.4 	"/>
	<rect x="103.8" y="124.4" class="st1" width="1" height="8.6"/>
	<polygon class="st1" points="111.8,131.8 108.8,124.4 107.7,124.4 111.4,133 112.2,133 115.9,124.4 114.9,124.4 	"/>
</g>
<g>
	<path class="st2" d="M150.2,43.1c0-2.1-1.6-3.9-3.8-3.9c-2.1,0-3.8,1.7-3.8,3.7c0,2,1.7,3.8,3.7,3.8
		C148.4,46.8,150.1,45.2,150.2,43.1z"/>
	<path class="st3" d="M157.1,40.7c-0.8-4.3-3.2-7.3-7.5-8.4c-4.5-1.2-8.6-0.3-11.6,3.4c-2.9,3.6-3.2,7.8-1.5,12.1
		c2.6,6.4,6.2,12.2,9.9,18.1c3.8-6.1,7.5-12.1,10.1-18.7C157.3,44.9,157.5,42.8,157.1,40.7z M142.5,42.9c0-2.1,1.8-3.8,3.8-3.7
		c2.1,0,3.8,1.8,3.8,3.9c0,2.1-1.8,3.7-3.9,3.7C144.2,46.7,142.5,45,142.5,42.9z"/>
</g>
<g>
	<path class="st2" d="M53.2,204.5c0-2.1-1.6-3.9-3.8-3.9c-2.1,0-3.8,1.7-3.8,3.7c0,2,1.7,3.8,3.7,3.8
		C51.5,208.2,53.2,206.6,53.2,204.5z"/>
	<path class="st3" d="M60.1,202.1c-0.8-4.3-3.2-7.3-7.5-8.4c-4.5-1.2-8.6-0.3-11.6,3.4c-2.9,3.6-3.2,7.8-1.5,12.1
		c2.6,6.4,6.2,12.2,9.9,18.1c3.8-6.1,7.5-12.1,10.1-18.7C60.4,206.4,60.5,204.3,60.1,202.1z M45.6,204.4c0-2.1,1.8-3.8,3.8-3.7
		c2.1,0,3.8,1.8,3.8,3.9c0,2.1-1.8,3.7-3.9,3.7C47.3,208.2,45.6,206.4,45.6,204.4z"/>
</g>
<g>
	<path class="st2" d="M96.4,176c0-2.1-1.6-3.9-3.8-3.9c-2.1,0-3.8,1.7-3.8,3.7c0,2,1.7,3.8,3.7,3.8C94.6,179.7,96.3,178.1,96.4,176z
		"/>
	<path class="st3" d="M103.3,173.6c-0.8-4.3-3.2-7.3-7.5-8.4c-4.5-1.2-8.6-0.3-11.6,3.4c-2.9,3.6-3.2,7.8-1.5,12.1
		c2.6,6.4,6.2,12.2,9.9,18.1c3.8-6.1,7.5-12.1,10.1-18.7C103.5,177.9,103.7,175.8,103.3,173.6z M88.8,175.9c0-2.1,1.8-3.8,3.8-3.7
		c2.1,0,3.8,1.8,3.8,3.9c0,2.1-1.8,3.7-3.9,3.7C90.4,179.7,88.7,177.9,88.8,175.9z"/>
</g>
</svg>
