<svg id="Layer_1" data-name="Layer 1" xmlns="http://www.w3.org/2000/svg" viewBox="0 0 230.58 320.88"><defs><style>.cls-1{fill:#e6e6e6;stroke:#023f2c;stroke-width:0.25px;}.cls-2{fill:#002c1b;}.cls-3{fill:#023f2c;}</style></defs><title>Kiev</title>
    <path class="cls-1" d="M9.55,50,5.26,47.57l-5,2.83,5,18.69,1.74-1.66L19.8,78.5l-6,3.88-.07,5.19-3.12.07.49,3.46,7.13,8.79s-.15,1.92-.21,2.56a10.47,10.47,0,0,0-.28,2.7c.25.88,1.87,2.06,2.22,2.91a4.49,4.49,0,0,1,.34,2.63c-.22.48-1.33.87-1.8,1.1s-1.91.8-2.56,1-1.87.25-2.07.77.45,1.27.76,1.59a7.32,7.32,0,0,0,2.21,1.17,13,13,0,0,0,3.46.77,13.8,13.8,0,0,0,3.39-.84c.39-.14,1.09-.94,1.46-.76s.21,1.25.27,1.66A18.71,18.71,0,0,1,26,121a9.91,9.91,0,0,1-1.53,3.6,19,19,0,0,1-4.36,3.32c-1.33.77-4.3,1.66-5.67,2.35-.78.4-3,1.8-3,1.8l-.07,3.4,4.43,3,.76,2.22-3.25,2.7,1,3.25,3.18,2.42-2.76,4.36-4.71-.27L15,163.36l12.39,10L27,180.45l-2.22-.2,3.39,3.32L25,190.14l1,3.6,3.11.42,2.77,5.33-3.39,1.87,1.31,3.8-4.7,5.19,9.55,11.84L23.26,228l-8.72,7.75L4.23,240.39l2,6.72L5.06,251.4l4.36,2.07L9,260.4l3,4.08-2.7,3,8.23,19.65L9.07,293.2l7.82,11,4.91-.63.14,6.23L23.26,312l5.12-.07.14,2.9-.76.12,3.6,5.15,8.16,1.41,2.6-2.56.62-6,1.87-1.49,1.07-6,6.58-3.08,4.72.47,4.31-1,7.53.05-.26,7.63L81,312.46l1.19,2.34,4.62.05.36-1.56-2.33-6.54,4-2.28-2.13-4.16L89,299.22l5.14,5.25.67-1-1.66-2.65,8.67-3.48,1.35.16,2.18,1.76,1.35.06.21-.94,1.66.26,5.4,4.67,7.68-2,8.36-4.52-2-4.51.11-2.39,7.37.31.73-1.66-1.51-2.75,9.76-9.08,3.84-5.35-1.82-3,7.22-10.18-1.09-3.73.16-7.12-1.67-2.49,1.15-9.81,2.13-2.23,10-2.8.52-8c-.09.08-.18.14-.26.2a12.27,12.27,0,0,1-3.32,1.45,26.75,26.75,0,0,1-6.75,0,42.27,42.27,0,0,1-8-2.07,43.57,43.57,0,0,1-7.37-4.26c-2.12-1.61-5.65-5.64-7.58-7.47-1.71-1.62-5.07-4.94-7-6.34-1.67-1.24-5.45-3.06-7.16-4.25-.85-.59-2.32-2.09-3.22-2.6-.53-.3-1.92-.34-2.29-.83-.57-.77,0-2.89-.2-3.84a39.08,39.08,0,0,0-1.56-5.92c-.51-1.33-2.21-3.71-2.6-5.09-.45-1.6-.93-5-.51-6.64a6.14,6.14,0,0,1,2-3,4.3,4.3,0,0,1,2.7,0,8.42,8.42,0,0,1,2.9,2.91c.77,1.37,1,4.6,1.46,6.12.45,1.7,1.32,5.11,2,6.75a34.24,34.24,0,0,0,2.39,4.67,21.18,21.18,0,0,0,2.49,3c1.42,1.32,4.87,3.2,6.33,4.47s4,4.21,5.3,5.6c1.67,1.75,5,5.31,6.75,7a40.91,40.91,0,0,0,5.39,4.46,20.41,20.41,0,0,0,5.71,2.08,12.4,12.4,0,0,0,4.78-.52,5.54,5.54,0,0,0,2.28-2,3.69,3.69,0,0,0-.1-2.18c-.25-.57-1.53-1.19-1.76-1.77a1.8,1.8,0,0,1,0-1.35,2.13,2.13,0,0,1,1.66-.31c.69.24,1.47,1.64,2,2.18s1.2,1.87,1.87,2a1.55,1.55,0,0,0,1.14-.62c.25-.49-.38-1.63-.31-2.18a3.76,3.76,0,0,1,.83-2c.58-.44,2.18-.26,2.91-.31a24.47,24.47,0,0,1,3.63-.11,14.66,14.66,0,0,1,3.63,1,14.06,14.06,0,0,1,3.43,2.7,15.77,15.77,0,0,1,2.08,4.36c.47,1.81.42,5.6.51,7.48a73.81,73.81,0,0,1,.32,8.4c0,.22-.06.46-.1.73.32-.25.63-.5.79-.66.53-.51,1.3-1.81,1.87-2.28.42-.35,1.39-1.11,1.94-1s1.4,1.05,1.66,1.56a6.71,6.71,0,0,1,.24,2.25,11,11,0,0,0-.28,2.25,5.46,5.46,0,0,0,1,1.24l8.86.21s.58-1.49.73-2,0-1.45.34-1.79,1-.29,1.35-.42,1.28-.36,1.46-.73-.33-1.13-.32-1.52a9.7,9.7,0,0,1,.7-2.28,16.51,16.51,0,0,1,1.28-2.6,20.71,20.71,0,0,1,1.55-1.69l2.67.24,1.59-7.51,9.2-4.47-2-.59-3.7-3.53.38-2.76,2.77-2.7,5.4-12.67,4,3L228,188l1.23.62,1.59-14-7.74.21,5.56-8.77-4.88-.06-5.82-9.39,10.18-5.3-2.91-2.9-8.25-1.35-.89-6.23-7.78-2.91-5.61,4.72-.78,2.55-9.19.47-1.81,1.81-1.4,1.56-3.59-1.51-4.51-.46-4.83.67-4.83-.62-5.34.47-5.09-.06-4.1-4.41-1.92.68-1.66.62-.37-1.71-.88-1.82-.1-1.71,3.06-.42,1.76-.57.47-2.23-1-4.36-.78-4.05-1-.62-.83-.58.77-1.55-.31-1.4-2.23-1.82-2.44-2-.15-1.51-1.09-1.3-1.51-.15-4.26,1.4-5.5,1.35-6.12.73-3.27-.16-2.5-1.61-.26-2-1.09-.42-2.64.47-2.7-1.09-4.57-.68,2.8-5.24,2.91,2,1.35-.72-.21-5.66-1.09-3.64h-4.41l-1.87-1.14-3.22-8.56.68-7-1.46-.93h-2.07l-2,0a4.76,4.76,0,0,0-.11.92c0,.84.86,2.38.93,3.22a16.84,16.84,0,0,1-.41,4.36c-.21.85-1.08,2.39-1.35,3.22a27.14,27.14,0,0,0-1.14,4.77c-.13,1.61.79,4.85.52,6.44a20.56,20.56,0,0,1-1.87,4.15c-.67,1.31-2.49,3.68-2.91,5.09-.53,1.79-.49,5.6-.41,7.47a24.31,24.31,0,0,0,.72,5.19c.39,1.14,2.23,3,2.39,4.16.11.8-.19,2.62-.83,3.11s-2.42.08-3.22,0c-1-.09-3-.17-3.84-.72-1.12-.78-2.39-3.38-2.8-4.68s-.16-3.91-.42-5.19c-.2-1-.55-3-1.24-3.73s-2.54-.4-3-1a4.28,4.28,0,0,1-.11-2.81c.23-.74,1.8-1.71,1.87-2.49a4.38,4.38,0,0,0-1-2.07c-.31-.41-1.39-.87-1.56-1.35a2.55,2.55,0,0,1,.42-2c.53-.46,2.14,0,2.8-.2a4.68,4.68,0,0,0,1.77-1.15c.48-.67.53-2.44.83-3.21.42-1.08,1.78-3,2.18-4a22.17,22.17,0,0,0,1.35-6.44,15.51,15.51,0,0,0-1.35-4.15,21.9,21.9,0,0,0-3-4.78,15.55,15.55,0,0,0-4.15-2.59,28.15,28.15,0,0,0-3.33-.52c-.6-.13-2-.17-2.38-.63a3.06,3.06,0,0,1-.32-2.28,4.22,4.22,0,0,1,1.87-1.56c1.28-.52,4.14-.18,5.5-.41a12,12,0,0,0,3.53-.94,4.86,4.86,0,0,0,1.77-2.18c.14-.75-.76-2.16-.93-2.9s-.31-2.26-.42-3a21.79,21.79,0,0,1-.62-4.15c.11-1,1.66-2.67,1.45-3.63S90.76,58.85,90,58.47s-2.23-.06-2.91-.31a24.44,24.44,0,0,1-3-2.08c-1-.6-3.42-1.19-4-2.18a2.85,2.85,0,0,1,.21-2.49c.47-.42,1.89-.07,2.49.1s1.41,1.06,2,1.14,1.88-.81,2.5-.62.94,1.45,1.45,1.66c.87.35,2.8-.29,3.74-.31a14.4,14.4,0,0,1,3,.1,20.2,20.2,0,0,1,2.7,1.46,5.48,5.48,0,0,0,1.35.62c.88.07,2.54-1,3.42-.93a4.75,4.75,0,0,1,1.63.53l.7-3a2.94,2.94,0,0,1-1-.08A7,7,0,0,1,102.51,51c-.52-.43-1.31-1.58-1.87-1.94a15.48,15.48,0,0,0-2.7-1c-.79-.26-2.4-.69-3.18-1S92.66,46.3,92,46a8.51,8.51,0,0,1-2.36-1.38A6.6,6.6,0,0,1,88.8,42a26.48,26.48,0,0,1,.42-4c.07-.77.15-2.34.27-3.11.09-.53.68-1.58.49-2.08-.31-.82-2.18-1.48-2.84-2.07a13.38,13.38,0,0,1-2.21-2.43c-.39-.67-.34-2.43-.9-3s-2.35-.59-3.12-.83c-1-.3-2.82-1.14-3.8-1.39-1.9-.47-5.82-.8-7.76-1.1-.93-.15-2.81-.84-3.73-.63a4.94,4.94,0,0,0-1.8,1.32c-.32.36-.59,1.37-1,1.66a6.61,6.61,0,0,1-2.15.55c-1.09.22-4.15.56-4.43.56a22.34,22.34,0,0,0-2.77,1.66,15.34,15.34,0,0,1-2.63,1.59,8.48,8.48,0,0,1-2.14.14c-1.19,0-3.65-.08-4.71-.62a6.94,6.94,0,0,1-2.21-2.36A16.19,16.19,0,0,1,41,21.13c0-.71.59-2.29.14-2.84s-1.71-.37-2.29-.35a9.46,9.46,0,0,0-2.91.7,17.74,17.74,0,0,0-2.07,1.73c-1,.77-3,2.23-4,3s-3.06,2.16-4,3a27.68,27.68,0,0,0-3.11,3.11c-.59.78-1.3,2.61-1.87,3.39-.23.31-.68,1-1,1.11a4.54,4.54,0,0,1-1.87-.28,30.41,30.41,0,0,0-3.39-1.1,5.8,5.8,0,0,0-2.42.41c-.68.37-1.42,1.89-2.08,2.29a3.06,3.06,0,0,1-1.87.48h0l4.1,4.93Z"/>
    <path class="cls-2" d="M58.07,198.09v-8.56h1v5.11L64,189.53H65.2l-3.67,3.74,3.83,4.82H64.15l-3.29-4.15L59,195.79v2.3Z"/>
    <path class="cls-2" d="M68.17,198.09v-8.56h1v8.56Z"/>
    <path class="cls-2" d="M72.87,198.09v-8.56h6.18v.88H73.83v2.92H78.5v.88H73.83v3h5.28v.88Z"/>
    <path class="cls-2" d="M85.23,198.15l-3.68-8.62h1.07l3,7.37,3.06-7.37h1l-3.68,8.62Z"/>
    <path class="cls-1" d="M167,219.8a4.68,4.68,0,0,1,2-.83,5.31,5.31,0,0,1,2.6,1.35,14,14,0,0,1,2.38,5.4c.34,1.84-.2,5.61-.41,7.47-.14,1.26-.65,3.74-.83,5-.12.85-.65,2.6-.42,3.42a5.07,5.07,0,0,0,2.18,2.7,5.48,5.48,0,0,0,3.85-1c.86-.78,1.31-3.24,1.66-4.36a50.87,50.87,0,0,0,1.25-5c0-.27.08-.51.1-.73a73.81,73.81,0,0,0-.32-8.4c-.09-1.88,0-5.67-.51-7.48A15.77,15.77,0,0,0,178.4,213a14.06,14.06,0,0,0-3.43-2.7,14.66,14.66,0,0,0-3.63-1,24.47,24.47,0,0,0-3.63.11c-.73.05-2.33-.13-2.91.31a3.76,3.76,0,0,0-.83,2c-.07.55.56,1.69.31,2.18a1.55,1.55,0,0,1-1.14.62c-.67-.1-1.41-1.47-1.87-2s-1.28-1.94-2-2.18a2.13,2.13,0,0,0-1.66.31,1.8,1.8,0,0,0,0,1.35c.23.58,1.51,1.2,1.76,1.77a3.69,3.69,0,0,1,.1,2.18,5.54,5.54,0,0,1-2.28,2,12.4,12.4,0,0,1-4.78.52,20.41,20.41,0,0,1-5.71-2.08,40.91,40.91,0,0,1-5.39-4.46c-1.78-1.65-5.08-5.21-6.75-7-1.34-1.39-3.84-4.34-5.3-5.6s-4.91-3.15-6.33-4.47a21.18,21.18,0,0,1-2.49-3,34.24,34.24,0,0,1-2.39-4.67c-.65-1.64-1.52-5-2-6.75-.41-1.52-.69-4.75-1.46-6.12a8.42,8.42,0,0,0-2.9-2.91,4.3,4.3,0,0,0-2.7,0,6.14,6.14,0,0,0-2,3c-.42,1.61.06,5,.51,6.64.39,1.38,2.09,3.76,2.6,5.09a39.08,39.08,0,0,1,1.56,5.92c.15,1-.37,3.07.2,3.84.37.49,1.76.53,2.29.83.9.51,2.37,2,3.22,2.6,1.71,1.19,5.49,3,7.16,4.25,1.89,1.4,5.25,4.72,7,6.34,1.93,1.83,5.46,5.86,7.58,7.47a43.57,43.57,0,0,0,7.37,4.26,42.27,42.27,0,0,0,8,2.07,26.75,26.75,0,0,0,6.75,0,12.27,12.27,0,0,0,3.32-1.45c.08-.06.17-.12.26-.2C165.52,221.39,166.36,220.22,167,219.8Z"/>

    <g class="zzz">
        <path class="cls-3 zzz" d="M33.14,59.74C26.68,49.38,20.41,39.26,15.89,28.2c-3.06-7.48-2.51-14.7,2.6-21C23.73.74,30.92-.71,38.69,1.34,46.12,3.3,50.36,8.47,51.77,16a19.86,19.86,0,0,1-1,11.1C46.3,38.65,39.72,49.07,33.14,59.74ZM33,26.61a6.59,6.59,0,1,0,.18-13.18A6.72,6.72,0,0,0,26.48,20,6.65,6.65,0,0,0,33,26.61Z"/>
    </g>

    <g class="test2">
        <path class="cls-3" d="M79.55,97.77C73.09,87.41,66.82,77.29,62.3,66.22c-3.06-7.47-2.52-14.69,2.6-21,5.24-6.46,12.43-7.91,20.2-5.86,7.43,2,11.66,7.13,13.08,14.65a19.86,19.86,0,0,1-1,11.1C92.7,76.68,86.13,87.1,79.55,97.77Zm-.14-33.13a6.56,6.56,0,0,0,6.75-6.4,6.63,6.63,0,0,0-6.57-6.78A6.72,6.72,0,0,0,72.89,58,6.65,6.65,0,0,0,79.41,64.64Z"/>
    </g>

    <path class="cls-3" d="M44.67,146.38C38.21,136,31.94,125.9,27.42,114.83c-3.06-7.48-2.51-14.7,2.6-21,5.24-6.46,12.43-7.91,20.2-5.86,7.43,2,11.67,7.13,13.08,14.65a19.86,19.86,0,0,1-1,11.1C57.83,125.28,51.25,135.7,44.67,146.38Zm-.14-33.14a6.59,6.59,0,1,0,.19-13.17A6.71,6.71,0,0,0,38,106.58,6.64,6.64,0,0,0,44.53,113.24Z"/>
    <path class="cls-3" d="M125.17,161.6c-6.46-10.36-12.73-20.48-17.25-31.55-3.06-7.47-2.51-14.69,2.6-21,5.24-6.46,12.43-7.91,20.2-5.86,7.43,2,11.67,7.13,13.08,14.65a19.86,19.86,0,0,1-1,11.1C138.33,140.51,131.75,150.93,125.17,161.6ZM125,128.47a6.59,6.59,0,1,0,.18-13.18,6.72,6.72,0,0,0-6.7,6.51A6.65,6.65,0,0,0,125,128.47Z"/>
    <path class="cls-3" d="M202.58,181.89c-6.47-10.37-12.73-20.48-17.26-31.55-3.06-7.48-2.51-14.7,2.6-21,5.24-6.45,12.44-7.91,20.21-5.86,7.42,2,11.66,7.14,13.07,14.66a19.74,19.74,0,0,1-1,11.09C215.73,160.8,209.16,171.21,202.58,181.89Zm-.15-33.14a6.56,6.56,0,0,0,6.76-6.39,6.63,6.63,0,0,0-6.57-6.78,6.72,6.72,0,0,0-6.71,6.51A6.63,6.63,0,0,0,202.43,148.75Z"/>
    <path class="cls-3" d="M157.53,202.7c-6.46-10.37-12.73-20.48-17.25-31.55-3.06-7.48-2.51-14.7,2.6-21,5.24-6.46,12.43-7.91,20.2-5.86,7.43,2,11.67,7.13,13.08,14.65a19.86,19.86,0,0,1-1,11.1C170.69,181.6,164.11,192,157.53,202.7Zm-.14-33.14a6.56,6.56,0,0,0,6.75-6.4,6.62,6.62,0,0,0-6.57-6.77,6.71,6.71,0,0,0-6.7,6.51A6.64,6.64,0,0,0,157.39,169.56Z"/>
    <path class="cls-3" d="M26.54,254.89c-6.46-10.37-12.72-20.48-17.25-31.55-3.06-7.48-2.51-14.7,2.6-21,5.24-6.46,12.44-7.91,20.21-5.86,7.42,2,11.66,7.13,13.07,14.65a19.77,19.77,0,0,1-1,11.1C39.7,233.79,33.13,244.21,26.54,254.89Zm-.14-33.14a6.56,6.56,0,0,0,6.76-6.4,6.63,6.63,0,0,0-6.57-6.77,6.71,6.71,0,0,0-6.71,6.51A6.64,6.64,0,0,0,26.4,221.75Z"/>
    <path class="cls-3" d="M119.56,267.71c-6.46-10.37-12.73-20.49-17.26-31.55-3-7.48-2.51-14.7,2.6-21,5.25-6.46,12.44-7.91,20.21-5.86,7.43,2,11.66,7.13,13.08,14.65a19.86,19.86,0,0,1-1,11.1C132.71,246.61,126.14,257,119.56,267.71Zm-.14-33.14a6.59,6.59,0,1,0,.18-13.17,6.59,6.59,0,1,0-.18,13.17Z"/>
    <path class="cls-3" d="M68.37,289.76c-6.46-10.37-12.73-20.48-17.26-31.55-3-7.48-2.51-14.7,2.6-21,5.25-6.46,12.44-7.91,20.21-5.86,7.43,2,11.66,7.13,13.08,14.66a19.83,19.83,0,0,1-1,11.09C81.52,268.66,75,279.08,68.37,289.76Zm-.14-33.14A6.56,6.56,0,0,0,75,250.23a6.63,6.63,0,0,0-6.57-6.78,6.71,6.71,0,0,0-6.7,6.51A6.64,6.64,0,0,0,68.23,256.62Z"/></svg>