<?xml version="1.0" encoding="utf-8"?>
<!-- Generator: Adobe Illustrator 23.0.2, SVG Export Plug-In . SVG Version: 6.00 Build 0)  -->
<svg version="1.1" id="Layer_1" xmlns="http://www.w3.org/2000/svg" xmlns:xlink="http://www.w3.org/1999/xlink" x="0px" y="0px"
	 viewBox="0 0 271.1 250.5" style="enable-background:new 0 0 271.1 250.5;" xml:space="preserve">
<style type="text/css">
	.st0{fill:#E6E6E6;stroke:#023F2C;stroke-width:0.25;}
	.st1{fill:#002C1B;}
	.st2{fill:#023F2C;}
</style>
<g>
	<polygon class="st0" points="128.4,113.4 132.3,113.4 130.3,109 	"/>
	<path class="st0" d="M143.4,110.5c0-0.5-0.2-0.9-0.6-1.2c-0.4-0.3-0.9-0.4-1.6-0.4h-2.6v3.5h2.6c0.7,0,1.2-0.2,1.6-0.5
		C143.2,111.5,143.4,111.1,143.4,110.5z"/>
	<path class="st0" d="M269.5,77.7c-0.6-0.5-2.4-0.6-3.2-0.9c-0.5-0.2-1.4-0.5-1.7-0.8c-0.4-0.4-0.9-1.5-0.7-2
		c0.1-0.3,0.9-0.4,1.1-0.7c0.2-0.3,0.2-1.2,0.5-1.5c0.4-0.3,1.4,0,1.9-0.1c0.3-0.1,1.1-0.3,1.3-0.7c0.4-0.7-0.1-2.5-0.3-3.4
		c-0.2-0.7-0.9-1.9-1.3-2.5c-0.6-0.7-2.4-1.7-2.7-2.5c-0.1-0.3,0-1.2,0.1-1.8c0,0-0.1,0-0.1-0.1c-0.8-0.4-1.9-2-2.5-2.6
		c-0.9-1-2.7-2.9-3.7-3.9c-1.3-1.3-3.9-4-5.3-5.2c-1.5-1.3-4.8-3.7-6.6-4.6c-0.6-0.3-2-0.8-2.7-0.9c-0.9-0.1-2.8,0.2-3.7,0
		c-0.5-0.1-1.6-0.6-2-0.9c-0.6-0.5-1.4-1.8-1.9-2.4c-0.7-0.8-2.1-2.2-2.8-3c-1-1.1-3.1-3.3-3.7-4.6c-0.7-1.4-1.2-4.5-1.5-6.1
		c-0.2-1.4-0.2-4.3-0.6-5.7c-0.2-0.8-0.7-2.3-1.1-3c-0.3-0.6-0.9-1.6-1.4-2.1c-0.9-0.9-3.3-2.2-4.4-3c-1.2-0.8-3.8-2.3-4.6-3.5
		c-0.9-1.2-1.4-4.5-2.3-5.8c-0.6-0.9-2.1-2.4-3-2.9c-0.4-0.2-1.3-0.6-1.8-0.6c-1,0.1-2.8,1.2-3.7,1.6c-1.1,0.5-3.3,1.3-4.4,1.9
		c-1.2,0.6-3.4,2.2-4.4,3c-1.1,0.8-3.1,2.6-4.2,3.3c-0.7,0.5-2.1,1.5-2.9,1.7c-0.9,0.3-2.9-0.1-3.9,0c-0.7,0.1-2.1,0.4-2.8,0.6
		c-1,0.3-2.7,1.4-3.7,1.7c-1.1,0.3-3.5,0.1-4.7,0.1c-1.8,0.1-5.4,0.2-7.1,0.6c-1.5,0.4-4.2,1.8-5.5,2.6c-1.3,0.8-3.7,2.5-4.8,3.5
		c-1,0.9-3,2.9-3.9,4c-0.6,0.8-1.4,2.8-2.1,3.7c-0.8,1-2.6,2.9-3.7,3.4c-0.9,0.4-3.1,0.4-4.1,0.1c-0.8-0.2-2.3-1.1-2.8-1.7
		c-0.6-0.8-0.9-2.8-1.1-3.7c-0.2-0.6-0.1-2.1-0.6-2.6c-0.4-0.3-1.5-0.3-1.9-0.3c-1-0.2-3.1-0.4-4.2-0.6c-1.2-0.2-3.5-0.5-4.7-0.6
		c-0.5,0-1.6-0.1-2.1-0.1c-0.9,0.1-2.7,0.8-3.6,0.9c-1,0.1-3.1,0.5-4.1,0.1c-0.8-0.3-2.2-1.5-2.8-2.2c-1-1.2-2-4.3-2.9-5.5
		c-0.8-1.1-2.9-3.1-4-4c-0.9-0.7-2.7-2-3.7-2.5c-1.1-0.5-3.7-0.9-4.8-1.4c-0.7-0.3-1.9-1.3-2.6-1.5C95.9,6.1,94,6,93,6
		c-1.1,0-3.2,0.2-4.2,0.4c-1.7,0.4-4.9,1.4-6.4,2.2c-1.2,0.7-3.2,2.5-4.2,3.4c-1.2,1-3.3,3.3-4.5,4.3c-0.7,0.5-2,1.6-2.8,1.9
		c-1,0.4-3.2,0.8-4.3,1c-0.6,0.1-1.7,0.2-2.5,0.2c-0.1,0.7-0.3,1.6-0.4,2c-0.1,0.5-0.4,1.6-0.8,2.1c-0.3,0.4-1.1,1-1.5,1
		c-0.4,0-0.9-0.7-1.2-1c-0.3-0.2-0.7-0.9-1.1-1c-0.6-0.2-1.9,0.2-2.6,0.3c-0.6,0.1-1.9,0.5-2.5,0.7c-0.5,0.2-1.9,0.5-2.1,1
		c-0.2,0.4,0.8,1.3,0.6,1.8c-0.1,0.3-0.7,0.7-1,0.9c-0.2,0.1-0.7,0.5-0.9,0.4c-0.7-0.1-1.6-1.3-2.1-1.8c-0.7-0.7-1.9-2.1-2.5-2.8
		c-0.4-0.4-0.9-1.7-1.5-1.7c-0.3,0-0.6,0.7-0.9,0.9c-0.5,0.4-1.7,0.9-2.3,1.1c-0.8,0.4-2.4,1-3.2,1.3c-0.4,0.1-1.2,0.3-1.5,0.6
		c-0.2,0.2-0.5,0.8-0.5,1.1c0,0.4,0.2,1.1,0.4,1.4c0.2,0.3,1,0.7,1.2,1.1c0.1,0.3,0.2,1,0.1,1.2c-0.1,0.3-0.8,0.6-1.1,0.6
		c-0.6,0.2-1.9,0.1-2.5,0.1c-0.7,0-2.3-0.4-2.9,0c-0.3,0.2-0.7,0.9-0.7,1.3c0,0.5,0.7,1.3,0.7,1.8c0,0.4-0.3,1-0.5,1.3
		c-0.2,0.4-0.9,0.9-1.3,1.1c-0.3,0.2-0.8,0.6-1.1,0.6c-0.6,0.1-1.7-0.3-2.2-0.4c-0.9-0.2-2.5-0.7-3.4-0.9c-0.4-0.1-1.2-0.4-1.6-0.4
		c-0.5,0.1-1.2,0.8-1.5,1.1c-0.6,0.5-1.6,1.7-2,2.4c-0.3,0.5-0.5,1.7-0.6,2.3c-0.1,0.6,0.1,1.9,0,2.5c-0.1,0.4-0.2,1.3-0.5,1.6
		c-0.2,0.2-0.9,0.1-1.2,0.1c-0.7,0-2.2,0.3-2.9,0.2c-0.4-0.1-1.1-0.6-1.4-0.8c-0.4-0.2-1-1-1.5-0.9C7.9,44.2,5,49.2,5,49.2
		s2.3,6.6,0.9,8.6c-0.4,0.5-1.9,0.3-2.4,0.6c-0.3,0.2-0.9,0.8-1,1.2c-0.3,0.7,0.1,2.3,0.1,3.1c-0.1,1.1-0.4,3.3-0.9,4.2
		c-0.2,0.3-0.8,0.8-1,1.1c-0.2,0.6-0.2,2,0,2.7c0.2,0.8,1.1,2.2,1.5,3c0.3,0.7,0.8,2.3,1.2,2.9c0.6,0.8,2.3,1.9,3,2.6
		c1,0.8,2.8,2.7,3.9,3.1c0.4,0.2,1.4,0.3,1.8,0.1c0.4-0.2,0.7-1.3,1.2-1.4c1-0.1,2,2.5,3,2.5c0.5,0,1.5-1.3,1.5-1.3l1,3h7.8l2.6,1.5
		l1.4,14.3c0,0,0.5,1.3,0.9,1.6c0.6,0.3,1.9-0.2,2.6-0.2c0.6,0,1.9,0,2.3,0.4c0.3,0.4-0.2,1.6,0,2.1c0.2,0.5,1.7,1.3,1.7,1.3
		l10.2,0.7l6.7,10.7c0,0-0.1,1.9-0.3,2.5c-0.2,0.6-1.2,1.5-1.3,2.1c-0.1,0.6,0,1.8,0.3,2.3c0.2,0.4,1.2,0.7,1.3,1.1
		c0.1,0.6-0.7,1.6-0.9,2.2c-0.3,0.8-0.7,2.7-1.4,3.2c-0.5,0.4-1.9,0.3-2.5,0.2c-0.7-0.2-1.8-1.5-2.5-1.7c-0.9-0.3-2.8-0.2-3.7-0.1
		c-0.7,0.1-2.1,0.1-2.6,0.6c-0.6,0.5-1,2.1-1.1,2.9c-0.1,0.7,0.2,2,0.4,2.6c0.3,0.7,1.1,1.9,1.6,2.4c0.6,0.7,2.1,1.7,2.6,2.4
		c0.5,0.8,1.6,2.7,1.3,3.6c-0.3,0.9-2.3,1.8-3,2.4c-0.6,0.5-1.9,1.5-2.3,2.1c-0.7,0.9-2,2.8-2,3.8c0,0.7,1.3,1.9,1.2,2.6
		c-0.1,0.6-0.9,1.6-1.5,1.9c-0.5,0.3-1.8,0.1-2.4,0c-0.5-0.1-1.5-0.8-2-0.9c-0.9-0.2-2.7,0.1-3.6-0.1c-0.7-0.1-1.9-0.9-2.5-1
		c-0.9-0.2-2.7,0-3.6-0.1c-1.2-0.1-3.7-0.7-4.9-0.9c-1.1-0.2-3.3-1.2-4.3-0.7c-1.6,0.8-2.5,4.6-3,6.3c-0.3,0.9-0.4,3.6-0.4,3.6
		l5.9,11.2c0.1,0,0.1-0.1,0.2-0.1c0.5-0.3,1.5-0.8,2.1-0.9c0.3-0.1,1-0.1,1.3,0c0.5,0.2,1,1.2,1.5,1.3c0.5,0.1,1.6-0.4,2.2-0.5
		c0.5-0.1,1.6-0.4,2.2-0.3c0.8,0.1,2.4,0.7,3.1,1.2c0.6,0.5,1.7,1.7,1.9,2.4c0.3,0.8-0.3,2.5,0,3.2c0.2,0.5,1,1.4,1.5,1.7
		c0.6,0.4,2,0.6,2.6,0.8c0.9,0.3,2.8,0.9,3.6,1.4c0.8,0.5,2.2,2.1,2.9,2.8c0.8,0.8,2.3,2.4,3.2,3.1c1.3,0.9,4.3,1.8,5.6,2.6
		c1,0.6,2.7,2.3,3.7,2.9c0.6,0.3,1.8,0.9,2.4,1c1.1,0.2,3.5-0.4,4.6-0.4c1.3,0,3.8,0,5.1,0.2c1.3,0.1,3.7,0.8,5,1
		c1.2,0.2,3.6,0.7,4.7,1c0.8,0.2,2.4,1,3.3,1c1.5,0,4.3-1.2,5.7-1.7c1.9-0.7,5.6-2.4,7.4-3.4c1-0.6,2.7-2.5,3.8-3.1
		c1-0.5,3.3-0.9,4.5-1.2c0.3-0.1,1.1-0.6,1.3-0.4c0.2,0.3-0.3,1-0.4,1.3c-0.2,0.6-0.9,1.7-1,2.3c-0.2,0.8-0.6,2.5-0.5,3.3
		c0.1,0.5,0.4,1.4,0.7,1.8c0.4,0.5,1.6,1.2,2,1.7c0.5,0.5,1.7,1.6,1.9,2.3c0.1,0.5,0,1.6-0.3,2.1c-0.1,0.2-0.7,0.4-0.8,0.7
		c-0.2,0.4-0.2,1.3-0.1,1.7c0.1,0.4,0.9,0.9,1.1,1.2c0.8,0.9,3.4,3.5,3.4,3.5l-0.2,2.5l6,3.4l0.4,4.3c0,0,0.2,2.9,0.6,3.8
		c0.2,0.5,1.4,1.7,1.4,1.7l3.9,3.6c0,0,1.8,1.6,2.5,1.9c0.9,0.4,3,0.1,3.7,0.7c0.8,0.7,1.4,2.9,1.3,3.9c0,0.5-1,1.2-1,1.7
		c0,0.8,1.4,1.8,1.7,2.5c0.3,0.6,0.6,2,0.7,2.7c0,0.7-0.6,2-0.4,2.7c0.2,0.5,0.9,1.4,1.5,1.6c0.5,0.2,2.1-0.3,2.1-0.3l13.5-14.9
		l4.2,3.3l5.2,2.6l3.8-4.1l4.1,1.6l1.6-11.8c0,0-1.9-3.6-2.6-4.7c-0.6-1-2.1-2.8-2.5-3.9c-0.2-0.5-0.5-1.5-0.4-2
		c0.2-0.5,1.6-1.3,1.6-1.3l6.6-0.3l3.7,3.3l2.4-1.7l0.9-2.5l7.9,0.3l6,7l1.8-1.3l-4.8-7.2l4-3.5l1.5,3l1.5-5.7l4.3-0.1l0.3,6.3
		l4.4-0.2l-0.3-8.8l3.9-4.8l9.2-0.4l-3.4-5.7c0,0-0.4-1.6-0.2-2.1c0.3-0.8,1.9-1.9,2.6-2.4c0.9-0.6,3-1,3.8-1.7
		c0.5-0.4,0.9-1.7,1.1-2.2c0.3-0.7,0.4-2.2,0.8-2.8c0.6-0.9,2.3-2.2,3.2-2.8c0.6-0.4,2.2-0.5,2.8-0.9c0.4-0.2,1-0.9,1.1-1.3
		c0.2-0.6-0.5-1.9-0.5-2.5c0-0.4,0.1-1.2,0.4-1.5c0.3-0.3,1.1-0.2,1.5-0.2c0.9,0,2.6,0.6,3.4,0.7c0.9,0.1,2.6,0.1,3.4-0.2
		c0.6-0.3,1.7-1.2,2-1.8c0.3-0.6,0.5-1.9,0.5-2.6c0-0.5-0.6-2-0.6-2l-7.6-2.6l-0.6-2.9l2-4.7l5.5,0.4l1.6-2.1l15.4,3l2.2-3.4
		l2.1-3.2l0-5.7l4.7,2.5c0,0,0.8-0.7,0.9-1c0.1-0.4,0.1-1.1,0-1.5c-0.2-0.4-0.9-1-1.3-1.3c-0.6-0.4-2-0.7-2.6-0.9
		c-0.7-0.3-2.1-0.8-2.5-1.3c-0.3-0.4-0.5-1.4-0.6-1.9c-0.4-1.4-1.2-4.3-1.4-5.7c-0.1-0.9-0.1-2.6-0.2-3.5c-0.2-0.8-0.7-2.2-1-3
		c-0.3-0.7-1.1-2.1-1.2-2.9c-0.1-1,0.4-3,0.6-4c0.2-0.8,0.3-2.6,0.9-3.1c0.3-0.3,1.3-0.4,1.7-0.6c0.4-0.2,1.1-0.6,1.3-1
		c0.2-0.3,0.4-1,0.2-1.3c-0.1-0.3-0.8-0.4-1.1-0.6c-0.4-0.2-1.3-0.3-1.6-0.7c-0.2-0.3,0-1.3,0.2-1.6c0.3-0.5,1.4-0.9,1.9-1.1
		c0.8-0.3,2.4-0.3,3.2-0.6c0.5-0.2,1.7-0.7,2-1.1c0.5-0.7,0.4-2.4,0.6-3.2c0.1-0.7,0.4-2.2,0.5-3c0.1-0.6,0.2-2,0.6-2.4
		c0.4-0.4,1.6-0.1,2-0.5c0.3-0.3,0.4-1.1,0.4-1.5c0-0.5-0.1-1.5-0.3-1.9c-0.4-1-1.8-2.8-2.5-3.7c-0.5-0.7-1.4-2.3-2.2-2.5
		c-0.5-0.2-1.8,1-2.2,0.6c-0.5-0.5,0.9-1.9,1.1-2.6c0.2-0.6,0.1-2,0.3-2.7c0.2-0.4,0.6-1.1,1-1.2c0.3-0.1,0.9,0,1.1,0.1
		c0.4,0.1,1,1,1.4,1c0.4,0,1.1-0.8,1.4-1c0.4-0.3,1.1-1.1,1.5-1.5c0.5-0.4,1.6-1.3,2.2-1.7c0.4-0.2,1.7-0.2,1.9-0.7
		C270.1,78.4,269.7,77.9,269.5,77.7z M112.2,116.5l-3.3-4.1l-1.8,1.8v2.3h-1v-8.6h1v5.1l4.9-5.1h1.2l-3.7,3.7l3.8,4.8H112.2z
		 M123.1,116.5h-1v-3.9h-4.9v3.9h-1v-8.6h1v3.8h4.9v-3.8h1V116.5z M133.6,116.5l-1-2.3H128l-1,2.3h-1l3.9-8.6h0.9l3.9,8.6H133.6z
		 M143.5,116.5l-2.5-3.3h-2.4v3.3h-1v-8.6h3.7c1.1,0,1.9,0.3,2.4,0.9c0.4,0.4,0.7,1,0.7,1.7c0,0.7-0.2,1.2-0.6,1.7s-1,0.7-1.7,0.8
		l2.6,3.5H143.5z M153.7,116.5l-3.3-4.1l-1.8,1.8v2.3h-1v-8.6h1v5.1l4.9-5.1h1.2l-3.7,3.7l3.8,4.8H153.7z M158.7,116.5h-1v-8.6h1
		V116.5z M166.2,116.6h-0.9l-3.7-8.6h1.1l3,7.4l3.1-7.4h1L166.2,116.6z"/>
	<polygon class="st1" points="113.3,107.9 112.1,107.9 107.1,113 107.1,107.9 106.2,107.9 106.2,116.5 107.1,116.5 107.1,114.2 
		109,112.4 112.2,116.5 113.5,116.5 109.6,111.7 	"/>
	<polygon class="st1" points="122.1,111.7 117.2,111.7 117.2,107.9 116.2,107.9 116.2,116.5 117.2,116.5 117.2,112.6 122.1,112.6 
		122.1,116.5 123.1,116.5 123.1,107.9 122.1,107.9 	"/>
	<path class="st1" d="M129.9,107.9l-3.9,8.6h1l1-2.3h4.7l1,2.3h1l-3.9-8.6H129.9z M128.4,113.4l2-4.4l1.9,4.4H128.4z"/>
	<path class="st1" d="M143.7,112.2c0.4-0.4,0.6-1,0.6-1.7c0-0.7-0.2-1.3-0.7-1.7c-0.6-0.6-1.4-0.9-2.4-0.9h-3.7v8.6h1v-3.3h2.4
		l2.5,3.3h1.2L142,113C142.7,112.9,143.3,112.6,143.7,112.2z M138.6,112.3v-3.5h2.6c0.7,0,1.2,0.1,1.6,0.4c0.4,0.3,0.6,0.7,0.6,1.2
		c0,0.6-0.2,1-0.6,1.3c-0.4,0.3-0.9,0.5-1.6,0.5H138.6z"/>
	<polygon class="st1" points="154.8,107.9 153.5,107.9 148.6,113 148.6,107.9 147.6,107.9 147.6,116.5 148.6,116.5 148.6,114.2 
		150.4,112.4 153.7,116.5 154.9,116.5 151.1,111.7 	"/>
	<rect x="157.7" y="107.9" class="st1" width="1" height="8.6"/>
	<polygon class="st1" points="165.8,115.3 162.8,107.9 161.7,107.9 165.4,116.6 166.2,116.6 169.9,107.9 168.9,107.9 	"/>
</g>
<path class="st2" d="M213.4,75.4c-3.7-5.9-7.3-11.8-9.9-18.1c-1.8-4.3-1.4-8.4,1.5-12.1c3-3.7,7.1-4.5,11.6-3.4
	c4.3,1.1,6.7,4.1,7.5,8.4c0.4,2.2,0.2,4.3-0.6,6.4C220.9,63.3,217.2,69.3,213.4,75.4z M213.3,56.4c2.1,0,3.8-1.6,3.9-3.7
	c0-2.1-1.6-3.9-3.8-3.9c-2.1,0-3.8,1.7-3.8,3.7C209.5,54.6,211.2,56.4,213.3,56.4z"/>
<path class="st2" d="M235.3,92.4c-3.7-5.9-7.3-11.8-9.9-18.1c-1.8-4.3-1.4-8.4,1.5-12.1c3-3.7,7.1-4.5,11.6-3.4
	c4.3,1.1,6.7,4.1,7.5,8.4c0.4,2.2,0.2,4.3-0.6,6.4C242.8,80.3,239,86.3,235.3,92.4z M235.2,73.4c2.1,0,3.8-1.6,3.9-3.7
	c0-2.1-1.6-3.9-3.8-3.9c-2.1,0-3.8,1.7-3.8,3.7C231.4,71.6,233.1,73.4,235.2,73.4z"/>
</svg>
