<?xml version="1.0" encoding="utf-8"?>
<!-- Generator: Adobe Illustrator 23.0.2, SVG Export Plug-In . SVG Version: 6.00 Build 0)  -->
<svg version="1.1" id="Layer_1" xmlns="http://www.w3.org/2000/svg" xmlns:xlink="http://www.w3.org/1999/xlink" x="0px" y="0px"
	 viewBox="0 0 224.2 288.5" style="enable-background:new 0 0 224.2 288.5;" xml:space="preserve">
<style type="text/css">
	.st0{fill:#E6E6E6;stroke:#023F2C;stroke-width:0.25;}
	.st1{fill:#002C1B;}
	.st2{fill:#023F2C;}
</style>
<g>
	<path class="st0" d="M223,252.5c-1-0.4-2.4-2.2-3.2-2.9c-0.6-0.5-1.8-1.6-2.3-2.2c-0.4-0.6-1-2.1-1.2-2.8c-0.3-0.8-0.2-2.7-0.7-3.4
		c-0.5-0.9-2.4-1.9-3.3-2.5c-0.6-0.4-1.7-1.2-2.3-1.5c-0.4-0.2-1.2-0.3-1.5-0.5c-0.3-0.2-0.8-0.9-1.1-1.2c-0.7-0.8-2-2.5-2.5-3.4
		c-0.8-1.4-2.1-4.5-2.5-6c-0.4-1.5-0.8-4.5-0.9-6c-0.1-1-0.2-3,0.1-3.9c0.3-0.9,1.5-2.5,1.9-3.3c0.5-0.9,1.7-2.7,1.9-3.7
		c0.2-1-0.2-3.2-0.2-4.2c-0.1-1.3,0.1-4.1-0.3-5.4c-0.3-1.2-1.5-3.4-2.1-4.5c-0.6-0.9-2.1-2.4-2.6-3.3c-0.7-1.2-1.5-3.7-1.9-5
		c-0.3-0.9-0.4-2.7-0.8-3.5c-0.4-0.6-1.7-1.5-2.2-2c-0.9-1-2.7-3-3.3-4.2c-0.4-0.8-1.2-2.8-0.9-3.7c0.2-0.8,1.6-1.8,2.3-2.2
		c0.9-0.5,3-0.3,3.8-0.9c0.4-0.3,1.2-1.3,1.2-1.8c0-0.8-1.4-2.1-2.1-2.6c-0.8-0.6-2.7-1.4-3.7-1.7c-1.3-0.3-4.1-0.3-5.5-0.3
		c-0.8,0-2.5,0.3-3.3,0.1c-0.9-0.2-2.5-1-3.1-1.7c-0.8-0.9-1.7-3.2-2.1-4.4c-0.5-1.6-0.8-5.1-1.2-6.8c-0.3-1.1-0.8-3.3-1.5-4.2
		c-0.7-1-2.8-2.3-3.9-2.8c-0.6-0.3-2.1-0.7-2.8-0.8c-1.2-0.1-3.7,0.6-4.9,0.9c-1.7,0.4-5.1,1.6-6.9,2.2c-1.6,0.5-4.7,1.7-6.2,2.3
		c-1.2,0.4-3.5,1.5-4.8,1.7c-0.8,0.1-2.4,0.3-3.2,0c-0.8-0.3-1.9-1.5-2.6-2.1c-1-0.8-2.8-2.5-3.7-3.3c-0.7-0.6-2-1.9-2.8-2.2
		c-0.5-0.2-1.8-0.3-2.4-0.3c-1.2,0.1-3.4,0.7-4.6,1c-0.8,0.2-2.3,0.8-3.1,0.6c-0.8-0.2-1.9-1.8-2.6-2.2c-0.5-0.3-1.7-0.9-2.3-1.1
		c-0.7-0.2-2.2-0.3-3-0.2c-0.9,0.1-2.3,1.2-3.2,1.4c-0.9,0.2-2.7,0.5-3.5,0.3c-0.6-0.1-1.6-0.5-2.1-0.8c-0.7-0.6-1.5-2.2-1.9-3
		c-0.3-0.7-1-2.3-0.9-3c0.1-0.7,0.9-1.8,1.5-2.3c0.7-0.6,2.6-0.9,3.3-1.5c0.6-0.5,1.6-2,1.7-2.8c0.1-0.7-0.4-2-0.8-2.6
		c-1-1.3-4.3-2.5-5.5-3.7c-0.5-0.5-1.6-1.7-1.8-2.4c-0.2-0.8,0-2.5,0.3-3.3c0.5-1.3,2.9-3.2,3.5-4.5c0.4-0.8,1.4-2.6,1.2-3.5
		c-0.3-1.2-2.9-2.4-3.7-3.3c-1-1-2.9-3-3.7-4.2c-0.8-1.1-1.7-3.9-2.6-4.9c-1.4-1.7-5.2-4-7-5.3c-0.5-0.4-1.9-0.7-2.2-1.3
		c-0.1-0.3,0-1,0.1-1.2c0.6-0.8,2.5-1.5,3.5-1.7c1.1-0.3,3.5-0.1,4.6-0.4c1.2-0.3,3.5-1.8,4.6-2.3c1.4-0.6,4.2-1.9,5.7-2.4
		c1.2-0.4,3.8-0.9,5.1-1.4c0.8-0.3,2.4-0.9,2.9-1.6c0.5-0.7,0.6-2.4,0.5-3.2c-0.2-0.9-1.6-2.4-2-3.2c-0.5-0.9-1.4-2.8-1.7-3.8
		c-0.3-1.2-0.1-3.8-0.6-5c-0.2-0.7-0.9-2.1-1.5-2.5c-0.6-0.4-2-0.3-2.7-0.3c-1,0-3,0.3-4,0.2c-0.6,0-2,0.1-2.5-0.3
		c-0.6-0.5-0.5-2.4-0.8-3.2c-0.4-1.1-1.2-3.3-1.9-4.3c-0.9-1.2-3.5-3-4.6-4.1c-0.7-0.7-2.2-2.1-2.8-3c-0.8-1.2-1.9-3.9-2.2-5.3
		c-0.2-1.1,0-3.4,0.1-4.5c0.1-1.5,0.8-4.5,0.8-6c0.1-1.1,0-3.2-0.1-4.2c-0.2-1-0.6-3.1-1.2-3.9c-0.6-0.9-2.5-2-3.4-2.6
		c-0.7-0.5-2.3-1.3-3-1.9c-1.1-0.9-3.2-3.1-4.1-4.2c-0.7-0.8-1.7-2.7-2.4-3.6c-0.6-0.9-1.8-2.7-2.6-3.5c-1.2-1.2-4-3.4-5.6-4.2
		C66.1,2,62.8,1.2,61.1,1c-1.2-0.1-3.6,0-4.8,0.3c-1.5,0.3-4.1,1.7-5.5,2.3c-1.1,0.4-3.4,1.2-4.5,1.7c-0.6,0.2-1.7,1.2-2.3,1
		c-0.4-0.1-0.6-1.1-0.8-1.5c-0.3-0.7-0.7-2.1-1-2.8c-0.3-0.4-0.9-1.3-1.4-1.5c-0.6-0.3-2.1,0-2.8-0.1c-0.9,0-2.5-0.1-3.8-0.2L32.9,4
		l-1.6,3.5l-0.6,4.2l-0.4,3.8L28,18.7l-1.2,3.5l0.6,3.2l2.5,2.4l3,2.2l3.2,1.2l1.6,1.7l0.4,2.2l1.2,1.6l1.3,0.2l1.6,2.4L42,41.2
		l-2.3,0.9h-2.1l-1.8,0.6l-2-1l-0.8-1.5l-2.3,0.6L28,41.3l-2,0.7l0.9,1.8l2.8,3l2.5,1.2l1.1,1.8l1.6,3.4l-1.2,3.3l-0.8,2.1l-2.2-0.9
		l-1.8-0.4l-1,0.9L25.6,58l-1.6-0.8l-1.8-0.1l-0.6,0.8l0.8,1.6l-0.6,1.7l-1.6,0.5l-1.7-1.5l-0.7-0.8l-2.4,1.8l-0.9,1.6l0.2,1.6
		l-0.2,2.5L13.4,69l-1.9,3.3L10,77.8l0,4.1l2.6,2.4l2,2.6l0.5,2.8l0.4,3.9l1.5,1.3l1.6,2.7l1.4,3.6l0.3,2.1l-1,0.6l-2.5-0.1
		l-1.7,0.8l1.2,2.1l1.2,2l1.1,1.6l-0.4,1.9l-2.2,1.4l-2.5,1.2l-1,1.2l0.2,3.1l1,1.9l1.1,1.9l1.8,2.4l-0.2,1.8l-1.3,2.4l-1.6,1.1
		l-2.4-0.5L9,127.9l-0.5-2.3l-0.5-2.1l-0.6-1.2L6.2,122L5,122.4l-1,1.5l0.1,1.6l1.2,1.8l1.7,3.6l1.3,1.1l1.3,1.7l-0.1,4.5l0.4,2.7
		l-1.2,3l-1.4,2l-0.2,2.2l-0.1,1.7l-1.8,1l-1.9,0.5l-1.2,1.4l0.1,1.8l0.8,2.2l-0.3,1.7l-1.5,2L0.9,163v1.3l1.3,0.1l1.2-0.9l1.5,0.6
		l16.7,17.5l0.3,8.6l-1.1,1.5l-3.2-0.1l0.6,8.4l-2.5,3.1l1.6,5.2l6.2,3.6l-0.2,2.2l-6.4-0.2l-1.1,3.6l-2.5,3l1,2.6l-2.1,3.6
		l-2.6,4.5l0.1,2c0.3-0.1,0.6-0.1,0.8-0.2c0.4-0.1,1.2-0.2,1.7-0.1c0.7,0.1,2.2,0.4,2.9,0.7c0.9,0.4,2.2,1.8,3.1,2.3
		c0.6,0.3,2,0.9,2.7,0.9c0.5,0,1.7-0.2,2.1-0.5c0.4-0.3,0.7-1.2,0.8-1.7c0.2-0.4,0.2-1.4,0.4-1.8c0.1-0.2,0.4-0.7,0.7-0.8
		c0.4,0,0.9,0.7,1.1,0.9c0.5,0.4,1.3,1.3,1.7,1.7c0.6,0.6,1.5,2,2.2,2.5c0.5,0.4,1.7,1,2.4,1c0.9,0.1,2.6-0.5,3.5-0.6
		c0.5-0.1,1.4-0.3,1.9-0.3c0.4,0,1.3,0.3,1.6,0.5c0.3,0.2,1.1,0.6,1.2,1c0.2,0.5-0.6,1.4-0.4,1.9c0.2,0.5,1.1,1.1,1.6,1.3
		c0.5,0.2,1.7-0.1,2.3-0.1c0.9,0.1,2.6,0.6,3.5,0.6c0.4,0,1.2-0.1,1.5-0.3c0.3-0.2,0.7-1,0.9-1.3c0.2-0.3,0.4-1,0.7-1.3
		c0.4-0.4,1.4-0.9,1.9-0.9c0.4,0,1.1,0.3,1.4,0.5c0.7,0.3,2,1.2,2.8,1.6c1,0.5,3.2,1.4,4.3,1.7c1.4,0.4,4.2,1.2,5.6,1.2
		c1.2,0.1,3.8-0.1,4.9-0.6c0.5-0.2,1.5-1,1.7-1.5c0.2-0.5-0.5-1.7-0.3-2.2c0.1-0.4,0.7-0.9,1.1-1.1c0.4-0.2,1.2-0.5,1.6-0.5
		c0.4,0,1.1,0.4,1.4,0.4c0.7,0,2-0.5,2.6-0.7c0.7-0.2,2.2-0.9,2.9-1.1c0.7-0.2,2.2-0.3,2.9-0.2c0.6,0.1,1.8,0.9,2.4,1
		c0.7,0.1,2.3-0.2,3-0.1c0.5,0.1,1.6,0.3,2.1,0.5c0.5,0.2,1.2,0.8,1.6,1.2c0.5,0.4,1.1,1.6,1.6,2c0.2,0.1,0.7,0.4,1,0.3
		c0.3-0.2,0.5-1,0.6-1.4c0.2-0.6,0.3-1.9,0.2-2.5c-0.1-0.5-1-1.4-1-1.9c-0.1-0.4,0-1.5,0.3-1.8c0.7-0.6,2.8-0.1,3.7-0.1
		c1.2,0,3.6-0.1,4.8,0c0.8,0.1,2.4,0.4,3.2,0.6c0.5,0.2,1.5,0.4,1.8,0.8c0.3,0.3,0.4,1.3,0.3,1.7c0,0.6-0.6,1.7-0.6,2.3
		c-0.1,1.1-0.1,3.3,0,4.4c0.1,1,0.4,3,0.7,4c0.3,0.9,1.2,2.8,1.8,3.6c0.7,1.1,2.6,2.9,3.5,3.9c0.6,0.6,2,1.7,2.6,2.4
		c0.3,0.4,1,1.3,1.1,1.8c0.1,0.3,0.1,0.8,0,1.1c-0.1,0.4-0.8,0.9-1,1.3c-0.2,0.4-0.7,1.2-0.6,1.7c0,0.5,0.5,1.4,0.9,1.6
		c0.4,0.2,1.2-0.2,1.7-0.1c0.5,0.1,1.5,0.5,2,0.6c0.8,0.3,2.5,0.9,3.2,1.3c0.5,0.3,1.6,1.1,1.8,1.7c0.2,0.5-0.2,1.6,0,2
		c0.2,0.4,1.1,1,1.6,1.2c0.5,0.2,1.7-0.1,2.2,0.2c0.3,0.2,0.3,1,0.5,1.3c0.2,0.4,0.9,1.1,0.9,1.6c0,0.4-0.4,1.2-0.6,1.5
		c-0.4,0.5-1.5,1.4-2.2,1.6c-0.5,0.2-1.9-0.1-2.1,0.4c-0.3,0.6,0.9,1.9,1.2,2.5c0.5,1,1.3,2.9,2,3.8c0.4,0.5,1.5,1.4,2.1,1.6
		c0.7,0.2,2.3-0.1,3.1,0c0.9,0.1,2.7,0.7,3.5,1c0.8,0.3,2.3,1.5,3.1,1.5c0.7,0,2.5-1,2.5-1l1.8-7.8l2.3,0.8l0.5,2.1l3.5,0.9l3.7-3.9
		l7.6,2.8c0,0,2.9-5,4.7-5.2c0.4-0.1,1.1,0.7,1.5,0.9c0.4,0.2,1,0.7,1.4,0.8c0.7,0.2,2.1-0.1,2.9-0.2c0.3,0,1,0.1,1.2-0.1
		c0.3-0.3,0.5-1.2,0.5-1.6c0.1-0.6-0.1-1.9,0-2.5c0.1-0.6,0.3-1.8,0.6-2.3c0.4-0.7,1.4-1.8,2-2.4c0.3-0.3,1-1,1.5-1.1
		c0.4-0.1,1.2,0.3,1.6,0.4c0.9,0.2,2.5,0.7,3.4,0.9c0.5,0.1,1.7,0.5,2.2,0.4c0.3-0.1,0.8-0.4,1.1-0.6c0.3-0.2,1-0.8,1.3-1.1
		c0.2-0.3,0.5-1,0.5-1.3c0-0.5-0.8-1.3-0.7-1.8c0-0.4,0.4-1.1,0.7-1.3c0.6-0.4,2.2,0,2.9,0c0.6,0,1.9,0.1,2.5-0.1
		c0.3-0.1,0.9-0.4,1.1-0.6c0.1-0.3,0.1-1-0.1-1.2c-0.2-0.4-1-0.8-1.2-1.1c-0.2-0.3-0.5-1.1-0.4-1.4c0-0.3,0.3-0.9,0.5-1.1
		c0.3-0.3,1.2-0.4,1.5-0.6c0.8-0.3,2.4-0.9,3.2-1.3c0.6-0.3,1.8-0.8,2.3-1.1c0.3-0.2,0.6-0.9,0.9-0.9c0.6,0,1.1,1.3,1.5,1.7
		c0.6,0.7,1.9,2.1,2.5,2.8c0.5,0.5,1.4,1.7,2.1,1.8c0.3,0,0.7-0.3,0.9-0.4c0.3-0.2,0.9-0.6,1-0.9c0.1-0.5-0.8-1.3-0.6-1.8
		c0.2-0.5,1.5-0.8,2.1-1c0.6-0.2,1.8-0.6,2.5-0.7c0.6-0.1,2-0.5,2.6-0.3c0.4,0.1,0.8,0.8,1.1,1c0.3,0.3,0.8,0.9,1.2,1
		c0.5,0,1.2-0.6,1.5-1c0.3-0.4,0.6-1.5,0.8-2.1c0.1-0.5,0.3-1.4,0.4-2C223.7,252.7,223.3,252.6,223,252.5z M82.6,183
		c-0.5,0.4-1.2,0.7-2.1,0.7c-1.3,0-2.5-0.5-3.5-1.4l0.6-0.7c0.5,0.4,0.9,0.7,1.4,0.9c0.5,0.2,1,0.3,1.6,0.3c0.6,0,1-0.1,1.4-0.4
		s0.5-0.6,0.5-1.1c0-0.4-0.2-0.7-0.5-1c-0.3-0.2-0.9-0.5-1.8-0.6c-1-0.2-1.8-0.5-2.2-0.9s-0.7-0.9-0.7-1.6c0-0.7,0.3-1.2,0.8-1.7
		c0.5-0.4,1.2-0.7,2-0.7c1.1,0,2.1,0.4,3,1.1l-0.6,0.7c-0.8-0.6-1.6-0.9-2.5-0.9c-0.5,0-1,0.1-1.3,0.4c-0.3,0.3-0.5,0.6-0.5,1
		c0,0.4,0.2,0.8,0.5,1c0.3,0.2,0.9,0.5,1.8,0.7c1,0.2,1.7,0.5,2.1,0.9s0.7,0.9,0.7,1.6C83.5,182,83.2,182.6,82.6,183z M93.6,179.9
		c0,1.2-0.3,2.2-1,2.8c-0.6,0.7-1.5,1-2.6,1c-1.1,0-1.9-0.3-2.6-1c-0.6-0.6-1-1.6-1-2.7v-5h1v4.9c0,0.9,0.2,1.6,0.7,2.1
		c0.5,0.5,1.1,0.8,1.9,0.8c0.8,0,1.4-0.2,1.9-0.7c0.5-0.5,0.7-1.2,0.7-2.1v-5h1V179.9z M105.3,183.6h-1v-6.9l-3.1,4.6h0l-3.1-4.6
		v6.9h-0.9V175h1l3.1,4.7l3.1-4.7h1V183.6z M112.6,180.2v3.4h-1v-3.4l-3.6-5.2h1.2l2.9,4.3l2.9-4.3h1.1L112.6,180.2z"/>
	<path class="st1" d="M80.7,178.8c-0.9-0.2-1.5-0.4-1.8-0.7c-0.3-0.2-0.5-0.6-0.5-1c0-0.4,0.2-0.7,0.5-1c0.3-0.3,0.8-0.4,1.3-0.4
		c0.9,0,1.7,0.3,2.5,0.9l0.6-0.7c-0.9-0.7-1.9-1.1-3-1.1c-0.8,0-1.5,0.2-2,0.7c-0.5,0.4-0.8,1-0.8,1.7c0,0.7,0.2,1.2,0.7,1.6
		s1.2,0.7,2.2,0.9c0.9,0.2,1.5,0.4,1.8,0.6c0.3,0.2,0.5,0.6,0.5,1c0,0.4-0.2,0.8-0.5,1.1s-0.8,0.4-1.4,0.4c-0.6,0-1.1-0.1-1.6-0.3
		c-0.5-0.2-0.9-0.5-1.4-0.9l-0.6,0.7c1,0.9,2.2,1.4,3.5,1.4c0.9,0,1.6-0.2,2.1-0.7s0.8-1,0.8-1.8c0-0.7-0.2-1.2-0.7-1.6
		S81.6,179,80.7,178.8z"/>
	<path class="st1" d="M92.7,180c0,0.9-0.2,1.6-0.7,2.1c-0.5,0.5-1.1,0.7-1.9,0.7c-0.8,0-1.5-0.3-1.9-0.8c-0.5-0.5-0.7-1.2-0.7-2.1
		V175h-1v5c0,1.2,0.3,2.1,1,2.7c0.6,0.6,1.5,1,2.6,1c1.1,0,2-0.3,2.6-1c0.6-0.7,1-1.6,1-2.8V175h-1V180z"/>
	<polygon class="st1" points="101.3,179.7 98.1,175 97.2,175 97.2,183.6 98.1,183.6 98.1,176.7 101.2,181.2 101.3,181.2 
		104.4,176.6 104.4,183.6 105.3,183.6 105.3,175 104.4,175 	"/>
	<polygon class="st1" points="112.2,179.3 109.3,175 108.1,175 111.7,180.2 111.7,183.6 112.6,183.6 112.6,180.2 116.2,175 
		115.1,175 	"/>
</g>
<path class="st2" d="M162.6,205.7c-3.7-5.9-7.3-11.8-9.9-18.1c-1.8-4.3-1.4-8.4,1.5-12.1c3-3.7,7.1-4.5,11.6-3.4
	c4.3,1.1,6.7,4.1,7.5,8.4c0.4,2.2,0.2,4.3-0.6,6.4C170.2,193.6,166.4,199.6,162.6,205.7z M162.6,186.7c2.1,0,3.8-1.6,3.9-3.7
	c0-2.1-1.6-3.9-3.8-3.9c-2.1,0-3.8,1.7-3.8,3.7C158.8,184.9,160.5,186.7,162.6,186.7z"/>
</svg>
