<svg id="Layer_1" data-name="Layer 1" xmlns="http://www.w3.org/2000/svg" viewBox="0 0 222.68 238.55"><defs><style>.cls-1{fill:#e6e6e6;stroke:#023f2c;stroke-width:0.25px;}.cls-2{fill:#002c1b;}.cls-3{fill:#023f2c;}</style></defs><title>Vinnytsa</title><polygon class="cls-1" points="141.8 133.87 145.7 133.87 143.75 129.51 141.8 133.87"/><path class="cls-1" d="M219,183.74l3-2.42-1.8-6.23v-4.57l-1.94-1.1-1.52-3.26-.21-3-8.37-6.65,4-3.81L200,140l-.48-10-1.94-.77-6.37,3.67-2.49-5.54,7.13-4.91-1.32-5.26-3.73.28.07-8.52,4.08-2.14,4.91-5-3.94-10.46,3.25-.5.76-.12-.14-2.91-5.12.07-1.31-2.21-.14-6.23-4.91.62-7.83-11,8.45-6.09-8.24-19.66,2.7-3-3-4.09-7.2-2.8.36,5.09-1,1.08-2.13-2.23-6.17,2.49,1.45,2.7-2.13,1.2-4.1-1.2-19.15,0-1.15-2,3.07-5-6-5.55,5.24-7-3.32-6.43,2.75-5.19L131.69,1l-6.33,8.62L121,9.91l1,6.91-5.19-.57L115,12.09l-5.55.06-2.23,7-3.84-5.5L98,13.34,96.23,9.6l-2.38-.72-.47,6.69-2,.37-8.77-4.36a41.15,41.15,0,0,1-4.31,2.8,35.81,35.81,0,0,1-7.16,1.82,51.85,51.85,0,0,1-9.24.15A56,56,0,0,1,56.21,15a24.51,24.51,0,0,0-3.74-1,16.1,16.1,0,0,0-3.68.67,17.86,17.86,0,0,0-3.58,1.4,16.27,16.27,0,0,0-1.66,1.56l-.84.25,1.1,4.47-3.9,1.92-.78,5.25,4.57,1.92L43,33.27l-3.33-.15L33.79,42l4.1,2.07-.31,6.75-4.21,2.34,2.18,4.2,5.82.73L43.08,62,38.3,65.2l3,5.35-.93,4.87-.21,9.14,4.88,2-1.87,3.85-4.62-1.61-3.58,5.39L29,91.26l-5.29-1.4-5.14-.73-.11,2.18H17.12l-6.74,3A7.07,7.07,0,0,0,9.91,96c0,.58.76,1.6.78,2.18a22.77,22.77,0,0,1-.68,2.18c-.07.61.46,1.91.16,2.44-.16.28-1.14.57-1.14.57L1.4,110.83s-.7,8.25-.63,11a83.53,83.53,0,0,0,1.2,11c.4,1.93,2.33,7.53,2.33,7.53L.77,142.6l.83,5.81s.1,2.61.11,3.48a32.46,32.46,0,0,0-.11,3.94,29.93,29.93,0,0,0,1.51,4c.27.73.79,2.09,1.13,3l.17.43a20,20,0,0,1,1,2.7c.22,1.2-.32,3.69-.05,4.88a20.28,20.28,0,0,0,2.34,4.62c.39.6,1.47,1.88,2.14,2.67a12,12,0,0,1,1.94-1.77,6.23,6.23,0,0,1,2.36-.21,9.6,9.6,0,0,1,3.32,1c.75.51,1.63,2.2,2.28,2.83a11.08,11.08,0,0,0,2.08,1.6,34.91,34.91,0,0,0,5.67,1.45,43,43,0,0,1,4.23.9,16.83,16.83,0,0,1,3.39,2c1,.87,2.67,3.08,3.6,4.08s3.19,3.45,4.36,4.5c1,.9,3.13,2.53,4.22,3.32a40.57,40.57,0,0,1,4.08,2.7,13,13,0,0,1,1.8,2.77c.43.93.62,3.08,1.18,3.94A5,5,0,0,0,56.25,209c.75.26,2.38-.17,3.18-.2a16.75,16.75,0,0,1,3.39-.07,8.9,8.9,0,0,1,3.05,1.59c.69.66,1.21,2.69,1.93,3.32a3.29,3.29,0,0,0,2.08.83c.7-.19,1.17-1.92,1.8-2.28a6.39,6.39,0,0,1,3-.42c.63.09,2,.49,2.35,1,.47.8-.19,2.76-.35,3.67-.09.56-.72,1.67-.55,2.22a4.42,4.42,0,0,0,2.15,1.86c.65.24,2.08-.16,2.76-.06s1.81.24,2.15.69c.48.63,0,2.4.14,3.18a10,10,0,0,0,1,3.39,7.19,7.19,0,0,0,3.6,2.29,2.91,2.91,0,0,0,1.86-.77c.5-.63.35-2.39.49-3.18.09-.49.09-1.56.42-1.94s1.55-.58,2.07-.76c.88-.3,2.64-.85,3.53-1.11a13.32,13.32,0,0,1,3.32-.9c1,.08,2.82,1.17,3.74,1.6s2.87,1.54,3.88,1.93c1.44.57,4.47,1.26,5.95,1.73A24,24,0,0,1,117,228a7.69,7.69,0,0,1,1.73,1.59,20.23,20.23,0,0,1,1.73,4c.08.23.15.51.23.83l6.48-.35,2.84-10,5.4-.2,4.84-7.34,9.14,9.76,2.77.28,6.22,8.09,15.44-3.87,2,4.36,6.78.34,1.11-5.19,8,1.32.06,5.26,3.88.55-.07-8-5.47-6,3.53-3.18,3.4,2.7,4.08-4.64,0-.59-.24-3.77-3.87-3,11-14.6-.76-3.32,3.18-2.7,4.22,2.07,3.19-4.7,1.52-1.18,0-.18ZM79.2,137.07h-.85l-3.68-8.63h1.07l3.05,7.38,3-7.38h1Zm7.65-.07h-1v-8.56h1Zm11,0H97l-5.52-7v7h-.94v-8.56h.9l5.39,6.86v-6.86h.94Zm10.89,0h-.77l-5.53-7v7h-.94v-8.56h.9l5.39,6.86v-6.86h1Zm7.29-3.4V137h-1v-3.38l-3.56-5.18h1.17l2.89,4.28,2.91-4.28h1.12Zm12.44-4.26h-2.87V137h-1v-7.66h-2.87v-.9h6.72Zm7.89,7.12a3.27,3.27,0,0,1-2.11.67,5.09,5.09,0,0,1-3.49-1.37l.6-.71a4.8,4.8,0,0,0,1.37.91,3.88,3.88,0,0,0,1.56.3,2.2,2.2,0,0,0,1.38-.41,1.29,1.29,0,0,0,.53-1.07,1.19,1.19,0,0,0-.47-1,4.41,4.41,0,0,0-1.76-.64,5.27,5.27,0,0,1-2.2-.89,2,2,0,0,1-.67-1.6,2.08,2.08,0,0,1,.79-1.68,3.07,3.07,0,0,1,2-.66,4.68,4.68,0,0,1,3,1.05l-.56.75a3.82,3.82,0,0,0-2.47-.93,2,2,0,0,0-1.32.4,1.28,1.28,0,0,0,0,2,5.19,5.19,0,0,0,1.84.66,4.85,4.85,0,0,1,2.12.89,2,2,0,0,1,.67,1.56A2.16,2.16,0,0,1,136.32,136.46Zm10.76.54-1-2.26h-4.66l-1,2.26h-1l3.9-8.62h.91l3.9,8.62Z"/><polygon class="cls-2" points="78.79 135.82 75.74 128.44 74.67 128.44 78.35 137.06 79.2 137.06 82.88 128.44 81.84 128.44 78.79 135.82"/><rect class="cls-2" x="85.88" y="128.44" width="0.97" height="8.56"/><polygon class="cls-2" points="96.87 135.31 91.48 128.44 90.58 128.44 90.58 137 91.52 137 91.52 129.99 97.04 137 97.81 137 97.81 128.44 96.87 128.44 96.87 135.31"/><polygon class="cls-2" points="107.75 135.31 102.36 128.44 101.46 128.44 101.46 137 102.4 137 102.4 129.99 107.93 137 108.7 137 108.7 128.44 107.75 128.44 107.75 135.31"/><polygon class="cls-2" points="115.52 132.72 112.63 128.44 111.46 128.44 115.02 133.62 115.02 137 116 137 116 133.6 119.55 128.44 118.43 128.44 115.52 132.72"/><polygon class="cls-2" points="121.71 129.34 124.58 129.34 124.58 137 125.56 137 125.56 129.34 128.43 129.34 128.43 128.44 121.71 128.44 121.71 129.34"/><path class="cls-2" d="M134.35,132.26a5.19,5.19,0,0,1-1.84-.66,1.28,1.28,0,0,1,0-2,2,2,0,0,1,1.32-.4,3.82,3.82,0,0,1,2.47.93l.56-.75a4.68,4.68,0,0,0-3-1.05,3.07,3.07,0,0,0-2,.66,2.08,2.08,0,0,0-.79,1.68,2,2,0,0,0,.67,1.6,5.27,5.27,0,0,0,2.2.89,4.41,4.41,0,0,1,1.76.64,1.19,1.19,0,0,1,.47,1,1.29,1.29,0,0,1-.53,1.07,2.2,2.2,0,0,1-1.38.41,3.88,3.88,0,0,1-1.56-.3,4.8,4.8,0,0,1-1.37-.91l-.6.71a5.09,5.09,0,0,0,3.49,1.37,3.27,3.27,0,0,0,2.11-.67,2.16,2.16,0,0,0,.82-1.75,2,2,0,0,0-.67-1.56A4.85,4.85,0,0,0,134.35,132.26Z"/><path class="cls-2" d="M143.31,128.38l-3.9,8.62h1l1-2.26h4.66l1,2.26h1l-3.9-8.62Zm-1.51,5.49,1.95-4.36,1.95,4.36Z"/><path class="cls-3" d="M63.7,104.59c-3.71-6-7.31-11.75-9.91-18.11-1.75-4.29-1.44-8.43,1.5-12s7.13-4.54,11.59-3.36c4.26,1.13,6.7,4.09,7.51,8.41a11.46,11.46,0,0,1-.57,6.37C71.24,92.48,67.47,98.46,63.7,104.59Zm-.09-19a3.76,3.76,0,0,0,3.88-3.67A3.81,3.81,0,0,0,63.72,78a3.86,3.86,0,0,0-3.85,3.74A3.8,3.8,0,0,0,63.61,85.57Z"/></svg>