<svg id="Layer_1" data-name="Layer 1" xmlns="http://www.w3.org/2000/svg" viewBox="0 0 237.45 311.25"><defs><style>.cls-1{fill:#e6e6e6;stroke:#023f2c;stroke-width:0.25px;}</style></defs><title>Kiev</title><path class="cls-1" d="M111.23,59.87a18.78,18.78,0,0,0-.21-4.79c-.31-1.76-2.17-5-2.13-6.81,0-.77.91-2.13,1.07-2.88a10,10,0,0,0,.21-3,9.7,9.7,0,0,0-2-3.93,2.61,2.61,0,0,0-.46-.31,4.75,4.75,0,0,0-1.67-.54c-.91-.06-2.61,1-3.51.95a5.13,5.13,0,0,1-1.39-.64,22.34,22.34,0,0,0-2.76-1.49,14.49,14.49,0,0,0-3.09-.1c-1,0-2.94.68-3.83.32-.53-.22-1-1.54-1.49-1.71s-1.9.73-2.56.64-1.46-1-2-1.17-2.07-.53-2.55-.1a2.91,2.91,0,0,0-.22,2.55c.55,1,3.07,1.63,4.05,2.24a25.28,25.28,0,0,0,3.09,2.12c.7.26,2.3,0,3,.32.83.39,2.46,1.66,2.66,2.56S94,46.85,93.89,47.84a22.25,22.25,0,0,0,.63,4.26c.12.77.26,2.33.43,3.09s1.1,2.21,1,3A5,5,0,0,1,94.1,60.4a12.65,12.65,0,0,1-3.62,1c-1.39.23-4.33-.11-5.64.42a4.38,4.38,0,0,0-1.92,1.6,3.17,3.17,0,0,0,.32,2.34c.42.48,1.83.51,2.45.64a32.25,32.25,0,0,1,3.41.53,16.16,16.16,0,0,1,4.25,2.66,22.26,22.26,0,0,1,3.09,4.9,15.5,15.5,0,0,1,1.38,4.26,22.28,22.28,0,0,1-1.38,6.6c-.4,1.1-1.8,3-2.23,4.15-.32.79-.36,2.6-.86,3.3a4.88,4.88,0,0,1-1.8,1.17c-.69.23-2.34-.27-2.88.21a2.56,2.56,0,0,0-.42,2c.16.5,1.27,1,1.59,1.38a4.54,4.54,0,0,1,1.07,2.13c-.08.8-1.68,1.8-1.92,2.56a4.39,4.39,0,0,0,.11,2.87c.48.66,2.51.48,3.08,1.07S93.26,109,93.46,110c.27,1.3,0,4,.43,5.32s1.72,4,2.87,4.79c.82.57,2.94.65,3.94.74.82.08,2.64.51,3.3,0s1-2.37.85-3.19c-.16-1.22-2-3.09-2.45-4.26a24.36,24.36,0,0,1-.74-5.32c-.09-1.92-.12-5.82.42-7.66.43-1.44,2.3-3.88,3-5.22A21,21,0,0,0,107,91c.28-1.63-.66-5-.53-6.6a26.88,26.88,0,0,1,1.17-4.9c.27-.85,1.16-2.43,1.38-3.3a17.7,17.7,0,0,0,.42-4.47c-.08-.85-.94-2.44-1-3.3a4.31,4.31,0,0,1,.11-.94,31.62,31.62,0,0,1,1.06-3.53A36.38,36.38,0,0,0,111.23,59.87Z"/><path class="cls-1" d="M10.3,32.87,5.91,30.39.73,33.3l5.1,19.15,1.78-1.7L20.81,62.1l-6.18,4-.07,5.32-3.19.07.5,3.55,7.3,9S19,86,19,86.65a10.56,10.56,0,0,0-.28,2.77c.25.9,1.91,2.12,2.27,3a4.64,4.64,0,0,1,.35,2.7c-.23.49-1.36.89-1.84,1.13-.64.32-2,.81-2.63,1.07s-1.91.25-2.13.78.47,1.3.78,1.63a7.84,7.84,0,0,0,2.27,1.2,13.3,13.3,0,0,0,3.55.79,14.07,14.07,0,0,0,3.48-.86c.39-.15,1.11-1,1.49-.78s.21,1.28.28,1.71a18.78,18.78,0,0,1,.64,3.9,10.21,10.21,0,0,1-1.56,3.69,19.42,19.42,0,0,1-4.47,3.4c-1.36.79-4.41,1.7-5.82,2.42-.79.4-3.05,1.84-3.05,1.84l-.07,3.48,4.54,3.12.78,2.27-3.33,2.77L15.27,132l3.26,2.49L15.7,139l-4.83-.29,5,10.43,12.7,10.29-.43,7.24-2.27-.22,3.48,3.41-3.26,6.74,1.06,3.69,3.19.43,2.84,5.46-3.47,1.92,1.34,3.9-4.82,5.32,9.79,12.13-11.71,6-8.94,7.95L4.84,228.06l2.06,6.88-1.21,4.4,4.47,2.13-.42,7.1,3,4.18L10,255.8,18.46,276,9.81,282.2l8,11.28,5-.64.14,6.39,1.35,2.27,5.25-.07.15,3-.79.12,3.69,5.27L41,311.25l2.66-2.62.64-6.1L46.24,301l1.1-6.17,6.74-3.16,4.84.48,4.42-1.06,7.72.05L70.79,299l12.77,3,1.23,2.4,4.73.05.38-1.6-2.4-6.7,4.1-2.34-2.18-4.26,2.34-1.12L97,293.75l.69-1.07L96,290l8.88-3.57,1.39.16,2.23,1.81,1.38.05.22-.95,1.7.26,5.53,4.79,7.88-2,8.57-4.63-2.08-4.63.11-2.45,7.55.32.75-1.7-1.54-2.82,10-9.31,3.94-5.48-1.86-3.09,7.39-10.43L157,242.45l.15-7.29-1.7-2.56,1.17-10,2.18-2.29L169,217.38l.53-8.19-.26.21a12.63,12.63,0,0,1-3.41,1.49,28.11,28.11,0,0,1-6.92,0,43.09,43.09,0,0,1-8.19-2.13,45.09,45.09,0,0,1-7.56-4.36c-2.17-1.65-5.79-5.79-7.77-7.66-1.75-1.66-5.19-5.06-7.13-6.5-1.71-1.27-5.59-3.14-7.34-4.36-.87-.6-2.38-2.14-3.3-2.66-.54-.31-2-.35-2.34-.85-.59-.79-.06-3-.21-3.94a41.09,41.09,0,0,0-1.6-6.07c-.52-1.36-2.26-3.8-2.66-5.21-.47-1.64-1-5.16-.53-6.81a6.3,6.3,0,0,1,2-3.09,4.45,4.45,0,0,1,2.77,0,8.76,8.76,0,0,1,3,3c.78,1.41,1.07,4.72,1.49,6.28.46,1.74,1.35,5.24,2,6.92a34.86,34.86,0,0,0,2.45,4.79,22.79,22.79,0,0,0,2.55,3.08c1.46,1.35,5,3.28,6.49,4.58s4.06,4.32,5.43,5.75c1.72,1.79,5.09,5.44,6.92,7.13a42.2,42.2,0,0,0,5.53,4.57,20.62,20.62,0,0,0,5.86,2.13,12.61,12.61,0,0,0,4.89-.53,5.69,5.69,0,0,0,2.34-2,3.89,3.89,0,0,0-.1-2.24c-.26-.58-1.57-1.21-1.81-1.81a1.88,1.88,0,0,1,0-1.38,2.14,2.14,0,0,1,1.7-.32c.71.24,1.51,1.68,2,2.24s1.23,1.91,1.92,2a1.58,1.58,0,0,0,1.17-.64c.25-.5-.39-1.67-.32-2.23a3.87,3.87,0,0,1,.85-2c.6-.44,2.23-.27,3-.32a25.83,25.83,0,0,1,3.73-.1,14.94,14.94,0,0,1,3.72,1.06,14.31,14.31,0,0,1,3.51,2.77,15.72,15.72,0,0,1,2.13,4.47c.49,1.86.43,5.74.53,7.66a75.44,75.44,0,0,1,.32,8.62c0,.22-.05.47-.1.74a9.28,9.28,0,0,0,.81-.67c.54-.53,1.33-1.86,1.92-2.34.43-.36,1.43-1.13,2-1.06s1.44,1.07,1.7,1.59a6.84,6.84,0,0,1,.25,2.31,11.59,11.59,0,0,0-.29,2.31,5.49,5.49,0,0,0,1,1.27l9.08.22s.6-1.53.74-2.06,0-1.5.36-1.85,1-.29,1.38-.42,1.31-.37,1.49-.75-.34-1.16-.32-1.56a10.34,10.34,0,0,1,.71-2.34,17.28,17.28,0,0,1,1.31-2.66,22.1,22.1,0,0,1,1.6-1.74l2.73.25,1.63-7.7,9.44-4.57-2.09-.61-3.8-3.62.39-2.83,2.84-2.77,5.53-13,4.12,3.09,3.41-5.6,1.26.64,1.63-14.3-7.93.21,5.69-9-5-.06-6-9.63,10.43-5.43-3-3-8.46-1.38L222,126l-8-3-5.75,4.85-.79,2.6L198,131l-1.87,1.87-1.43,1.59-3.67-1.54-4.63-.48-5,.69-4.95-.64-5.48.48-5.22-.05-4.2-4.52-2,.69-1.7.64-.38-1.76-.9-1.86-.11-1.76,3.14-.42,1.81-.59L162,121l-1.06-4.47-.8-4.15-1.07-.64-.85-.58.8-1.6-.32-1.44-2.29-1.86-2.5-2-.16-1.54-1.11-1.33-1.55-.16-4.36,1.43L141.09,104l-6.28.74-3.35-.16L128.9,103l-.26-2.07-1.12-.43-2.72.48L122,99.83l-4.69-.69,2.88-5.37,3,2,1.38-.75-.21-5.8-1.12-3.72h-4.52l-1.92-1.17-3.3-8.78.69-7.13-1.49-1H110.6l-2,0a4.31,4.31,0,0,0-.11.94c0,.86.87,2.45,1,3.3a17.7,17.7,0,0,1-.42,4.47c-.22.87-1.11,2.45-1.38,3.3a26.88,26.88,0,0,0-1.17,4.9c-.13,1.65.81,5,.53,6.6a21,21,0,0,1-1.92,4.25c-.68,1.34-2.55,3.78-3,5.22-.54,1.84-.51,5.74-.42,7.66a24.36,24.36,0,0,0,.74,5.32c.4,1.17,2.29,3,2.45,4.26.11.82-.2,2.69-.85,3.19s-2.48.08-3.3,0c-1-.09-3.12-.17-3.94-.74-1.15-.8-2.45-3.46-2.87-4.79s-.16-4-.43-5.32c-.2-1-.57-3.12-1.28-3.83s-2.6-.41-3.08-1.07a4.39,4.39,0,0,1-.11-2.87c.24-.76,1.84-1.76,1.92-2.56a4.54,4.54,0,0,0-1.07-2.13c-.32-.41-1.43-.88-1.59-1.38a2.56,2.56,0,0,1,.42-2c.54-.48,2.19,0,2.88-.21a4.88,4.88,0,0,0,1.8-1.17c.5-.7.54-2.51.86-3.3.43-1.1,1.83-3,2.23-4.15a22.28,22.28,0,0,0,1.38-6.6,15.5,15.5,0,0,0-1.38-4.26,22.26,22.26,0,0,0-3.09-4.9,16.16,16.16,0,0,0-4.25-2.66,32.25,32.25,0,0,0-3.41-.53c-.62-.13-2-.16-2.45-.64a3.17,3.17,0,0,1-.32-2.34,4.38,4.38,0,0,1,1.92-1.6c1.31-.53,4.25-.19,5.64-.42a12.65,12.65,0,0,0,3.62-1,5,5,0,0,0,1.81-2.23c.14-.77-.78-2.22-1-3s-.31-2.32-.43-3.09a22.25,22.25,0,0,1-.63-4.26c.11-1,1.7-2.74,1.49-3.72S93.55,42,92.72,41.56c-.68-.31-2.28-.06-3-.32a25.28,25.28,0,0,1-3.09-2.12c-1-.61-3.5-1.22-4.05-2.24a2.91,2.91,0,0,1,.22-2.55c.48-.43,1.94-.08,2.55.1s1.44,1.09,2,1.17S89.32,34.77,90,35s1,1.49,1.49,1.71c.89.36,2.87-.3,3.83-.32a14.49,14.49,0,0,1,3.09.1,22.34,22.34,0,0,1,2.76,1.49,5.13,5.13,0,0,0,1.39.64c.9.08,2.6-1,3.51-.95a4.75,4.75,0,0,1,1.67.54l.72-3.08a2.85,2.85,0,0,1-1-.09,7,7,0,0,1-1.78-1.14c-.53-.43-1.33-1.61-1.91-2a16.31,16.31,0,0,0-2.77-1c-.81-.26-2.46-.7-3.26-1s-2.15-.8-2.84-1.13a8.52,8.52,0,0,1-2.41-1.42,6.84,6.84,0,0,1-.85-2.7,26.37,26.37,0,0,1,.42-4c.08-.8.16-2.4.28-3.2.09-.53.69-1.61.5-2.12-.31-.85-2.24-1.53-2.91-2.13a14.85,14.85,0,0,1-2.27-2.49c-.39-.69-.35-2.49-.92-3s-2.41-.6-3.19-.85c-1-.31-2.9-1.17-3.91-1.42-1.94-.49-6-.83-7.94-1.13-1-.15-2.89-.87-3.83-.64a5.08,5.08,0,0,0-1.85,1.35c-.33.36-.6,1.4-1,1.7a7,7,0,0,1-2.2.57c-1.12.22-4.26.56-4.54.56a20.72,20.72,0,0,0-2.84,1.71,17,17,0,0,1-2.7,1.63,9,9,0,0,1-2.2.14c-1.21,0-3.74-.08-4.82-.64a7.08,7.08,0,0,1-2.27-2.41,16.41,16.41,0,0,1-.85-4.89c-.05-.73.6-2.35.14-2.91S40.91,0,40.32,0a9.76,9.76,0,0,0-3,.71A18.86,18.86,0,0,0,35.21,2.5c-1,.8-3.09,2.29-4.12,3.05S28,7.77,27,8.61a26.7,26.7,0,0,0-3.19,3.19c-.6.79-1.34,2.67-1.92,3.48-.23.31-.7,1-1.06,1.13a4.77,4.77,0,0,1-1.92-.28A31.42,31.42,0,0,0,15.41,15a6,6,0,0,0-2.48.43c-.69.38-1.45,1.93-2.13,2.34a3.2,3.2,0,0,1-1.91.5h0l4.2,5Z"/><path class="cls-1" d="M171.82,207a4.78,4.78,0,0,1,2-.85,5.42,5.42,0,0,1,2.66,1.38,14.42,14.42,0,0,1,2.45,5.54c.35,1.88-.21,5.75-.42,7.66-.15,1.29-.67,3.83-.86,5.11-.12.87-.67,2.66-.42,3.51a5.23,5.23,0,0,0,2.23,2.77,5.62,5.62,0,0,0,3.94-1.07c.89-.8,1.35-3.32,1.71-4.47a50.07,50.07,0,0,0,1.28-5.11c0-.27.08-.52.1-.74a77.62,77.62,0,0,0-.32-8.62c-.1-1.92-.05-5.81-.53-7.66a16.14,16.14,0,0,0-2.13-4.47,14.26,14.26,0,0,0-3.51-2.77,15.61,15.61,0,0,0-3.73-1.07,27.25,27.25,0,0,0-3.72.11c-.75.05-2.38-.13-3,.32a3.87,3.87,0,0,0-.85,2c-.08.56.57,1.73.31,2.24a1.56,1.56,0,0,1-1.17.64c-.68-.11-1.44-1.52-1.91-2s-1.31-2-2-2.23a2.13,2.13,0,0,0-1.71.32,1.88,1.88,0,0,0,0,1.38c.25.59,1.55,1.23,1.81,1.81a3.81,3.81,0,0,1,.11,2.24,5.75,5.75,0,0,1-2.34,2,12.66,12.66,0,0,1-4.9.53,21.29,21.29,0,0,1-5.85-2.13,43.1,43.1,0,0,1-5.54-4.57c-1.82-1.69-5.2-5.34-6.91-7.14-1.37-1.42-3.94-4.45-5.43-5.74s-5-3.23-6.49-4.58a21.65,21.65,0,0,1-2.56-3.09,35.89,35.89,0,0,1-2.45-4.78c-.66-1.68-1.56-5.18-2-6.92-.41-1.56-.7-4.87-1.49-6.28a8.67,8.67,0,0,0-3-3,4.37,4.37,0,0,0-2.77,0,6.32,6.32,0,0,0-2,3.08c-.42,1.66.07,5.17.53,6.82.4,1.41,2.14,3.84,2.67,5.21a41.05,41.05,0,0,1,1.59,6.07c.15,1-.37,3.14.21,3.94.37.5,1.8.54,2.35.85.92.52,2.42,2,3.3,2.66,1.75,1.22,5.62,3.09,7.34,4.36,1.94,1.44,5.38,4.84,7.13,6.49,2,1.88,5.6,6,7.77,7.67a44.7,44.7,0,0,0,7.56,4.36,43.45,43.45,0,0,0,8.19,2.13,28.11,28.11,0,0,0,6.92,0,12.88,12.88,0,0,0,3.4-1.49l.27-.21C170.32,208.63,171.19,207.43,171.82,207Z"/></svg>