<?xml version="1.0" encoding="utf-8"?>
<!-- Generator: Adobe Illustrator 23.0.2, SVG Export Plug-In . SVG Version: 6.00 Build 0)  -->
<svg version="1.1" id="Layer_1" xmlns="http://www.w3.org/2000/svg" xmlns:xlink="http://www.w3.org/1999/xlink" x="0px" y="0px"
	 viewBox="0 0 317.6 230.4" style="enable-background:new 0 0 317.6 230.4;" xml:space="preserve">
<style type="text/css">
	.st0{fill:#E6E6E6;stroke:#023F2C;stroke-width:0.25;}
	.st1{fill:#002C1B;}
	.st2{fill:#FFFFFF;}
	.st3{fill:#023F2C;}
</style>
<g>
	<path class="st0" d="M315.6,144.9c-0.6-0.6-2.4-0.3-3.2-0.5c0,0-0.1,0-0.1,0l1.8-1.2l-2.5-3.7l-4.3,0.2c0,0,0-0.1-0.1-0.1
		c-0.3-0.5-0.9-1.5-1.3-1.8c-0.6-0.5-2.3-0.8-3-1.2c-0.9-0.4-2.5-1.5-3.3-2.1c-0.8-0.6-2.3-1.8-2.9-2.6c-1-1.4-2.1-4.6-2.8-6.2
		c-0.4-0.7-0.9-2.4-1.5-2.8c-0.8-0.5-2.8-0.3-3.7-0.6c-0.7-0.2-2.1-0.9-2.7-1.4c-0.9-0.7-1.9-2.9-2.8-3.7c-0.9-0.9-3-2.4-4.2-3
		c-0.3-0.2-1-0.2-1.2-0.5c-0.3-0.3-0.6-1.2-0.3-1.5c0.3-0.4,1.7-0.1,2.1-0.3c0.6-0.3,1.5-1.4,1.8-2c0.5-0.9,0.8-3.1,1-4.1
		c0.2-1,1.4-3.4,0.7-4.2c-0.3-0.4-1.4-0.2-1.9,0c-0.6,0.3-1.5,1.4-1.9,1.9c-0.7,0.7-2.1,2-2.6,2.8c-0.3,0.5-0.3,1.7-0.8,2
		c-0.5,0.3-1.8,0.2-2.1-0.2c-0.4-0.4,0.2-1.7,0.1-2.2c-0.1-0.7-0.3-2.3-0.6-2.9c-0.3-0.6-1.4-1.6-2-1.9c-0.7-0.4-2.4-0.6-3.2-0.6
		c-0.9-0.1-2.9,0.3-3.8,0.1c-0.5-0.1-1.4-0.6-1.7-1c-0.4-0.5-0.9-2-0.8-2.7c0-0.8,0.8-2.3,1.2-3c0.5-0.9,2.1-2.3,2.6-3.2
		c0.8-1.4,1.8-4.4,2.1-5.9c0.3-1.3,0.6-3.8,0.6-5.1c0-0.6,0-2-0.5-2.4c-0.4-0.3-1.6-0.2-2,0c-0.4,0.2-0.6,1.3-1,1.6
		c-0.3,0.2-1.2,0.3-1.5,0.1c-0.3-0.1-0.5-0.7-0.6-1c-0.2-0.3-0.5-0.9-0.9-1.2c-0.1-0.1-0.2-0.1-0.2-0.2c-0.4-0.2-1.3-0.2-1.7-0.1
		c-0.6,0.2-1.4,1.3-1.8,1.9c-0.5,0.6-1.2,2.1-1.4,2.8c-0.3,0.9-0.7,2.7-0.4,3.6c0.2,0.6,1.4,1.2,1.7,1.7c0.4,0.7,0.9,2.3,1,3
		c0.1,1,0.1,3-0.1,3.9c-0.1,0.7-0.9,1.8-1.1,2.5c-0.3,1-0.5,3-0.5,3.9c0,1.1,0.2,3.3,0.6,4.2c0.4,0.9,1.8,2.2,2.5,2.8
		c0.6,0.6,2.3,1.5,2.6,2.4c0.2,0.5-0.2,1.6-0.3,2.1c-0.2,0.4-0.7,1.3-1,1.6c-0.7,0.5-2.6,0.9-3.5,1c-0.9,0.1-2.9,0.1-3.8-0.2
		c-1.2-0.4-2.9-2.4-3.9-3c-1.4-1-4.6-2.5-6-3.5c-1.8-1.3-5-4.3-6.7-5.7c-1.1-0.9-3.3-2.9-4.5-3.7c-1.1-0.8-3.3-2.5-4.6-2.9
		c-1.2-0.4-3.8-0.2-5.1-0.3c-1.1-0.1-3.3,0-4.4-0.3c-1.2-0.3-3.4-1.5-4.4-2.2c-1-0.8-2.5-2.9-3.5-3.7c-1.4-1.1-4.7-2.4-6.3-3.3
		c-1.8-1-5.4-3.1-7.3-4c-1.5-0.7-4.4-2.2-6-2.6c-1.3-0.4-4.1-0.7-5.5-0.7c-1,0-3.1,0.1-4.1,0.3c-0.7,0.1-2.3,0.1-2.7,0.7
		c-0.3,0.5,0.2,1.7,0.5,2.3c0.4,0.8,1.4,2.3,2.1,2.9c1,0.9,3.6,1.8,4.8,2.4c0.9,0.4,2.7,1.1,3.6,1.5c1.2,0.6,3.6,1.7,4.7,2.4
		c1.4,0.8,4,2.5,5.3,3.4c1.5,1.1,4.4,3.3,5.7,4.6c1,0.9,2.8,3,3.7,4.1c1.3,1.5,3.6,4.8,5,6.3c1.1,1.2,3.5,3.7,4.8,4.7
		c1.4,1.1,4.3,2.9,5.9,3.7c1.7,0.9,5.4,2.2,7.2,2.9c1.3,0.5,4,1.4,5.3,2c1.8,0.8,5.3,2.5,7,3.5c1.8,1.1,5.4,3.4,7.1,4.6
		c1.1,0.8,3.3,2.3,4.4,3.1c1.7,1.4,5,4.1,6.5,5.7c1.2,1.3,3.2,4.1,4.1,5.5c0.5,0.8,1,2.7,1.7,3.3c0.5,0.4,1.8,0.7,2.5,0.7
		c0.5,0,1.2-0.4,1.8-0.6c0.2-0.1,0.3-0.1,0.4-0.1c0.9-0.1,2.6-0.1,3.5-0.1c1.1,0,3.3,0.1,4.4,0c0.8-0.1,2.3-0.3,3-0.6
		c0.5-0.2,1.2-0.9,1.7-1c0.9-0.3,3-0.3,3.9-0.2c0.7,0.1,2.2,0.8,2.9,0.7c0.5,0,1.4-0.8,1.9-0.8c0.5,0,1.4,0.1,1.8,0.4
		c0.4,0.3,0.9,1.2,0.9,1.7c0,0.6-1.1,1.4-1.2,1.9c-0.3,1.1,0.5,3.4,0.3,4.5c-0.1,0.7-0.5,2.2-1,2.6c-0.7,0.5-2.6-0.1-3.4,0.2
		c-0.4,0.2-1,0.7-1.1,1.1c-0.1,0.3-0.2,0.9,0,1.1c0.2,0.3,1.1,0.5,1.5,0.5c0.3,0,0.8-0.5,1.1-0.6c0.4-0.1,1.1-0.1,1.5-0.1
		c0.5,0,1.4,0.5,1.9,0.3c0.5-0.2,0.9-1.3,1.2-1.8c0.3-0.6,1-1.8,1.1-2.4c0.1-0.6-0.4-1.8-0.2-2.4c0.3-0.9,1.9-2.2,2.8-2.8
		c0.8-0.5,2.7-1.2,3.6-1.4c0.8-0.2,2.6-0.2,3.5-0.1c0.7,0.1,2.1,0.7,2.8,1c0.4,0.2,1.1,0.9,1.5,0.9c0.2,0,0.5-0.1,0.8-0.3
		c0.6-0.3,1.3-0.9,1.6-1.3c0.3-0.4,0.3-1.4,0.3-1.9C316,146.6,316,145.3,315.6,144.9z"/>
	<path class="st0" d="M143.2,134.8c0-0.5-0.2-0.9-0.6-1.2c-0.4-0.3-0.9-0.4-1.6-0.4h-2.6v3.5h2.6c0.7,0,1.2-0.2,1.6-0.5
		C143,135.8,143.2,135.4,143.2,134.8z"/>
	<polygon class="st0" points="159.1,137.7 163,137.7 161.1,133.3 	"/>
	<path class="st0" d="M268.9,147.7c-0.7-0.6-1.2-2.5-1.7-3.3c-0.9-1.5-2.9-4.3-4.1-5.5c-1.5-1.6-4.8-4.4-6.5-5.7
		c-1-0.8-3.3-2.4-4.4-3.1c-1.8-1.2-5.3-3.6-7.1-4.6c-1.7-1-5.2-2.7-7-3.5c-1.3-0.6-4-1.5-5.3-2c-1.8-0.7-5.5-2-7.2-2.9
		c-1.5-0.8-4.5-2.6-5.9-3.7c-1.3-1-3.7-3.5-4.8-4.7c-1.3-1.5-3.7-4.8-5-6.3c-0.9-1.1-2.7-3.1-3.7-4.1c-1.3-1.3-4.3-3.5-5.7-4.6
		c-1.3-0.9-4-2.6-5.3-3.4c-1.1-0.6-3.5-1.8-4.7-2.4c-0.9-0.4-2.7-1.1-3.6-1.5c-1.2-0.6-3.8-1.5-4.8-2.4c-0.7-0.6-1.7-2.1-2.1-2.9
		c-0.2-0.5-0.8-1.8-0.5-2.3c0.4-0.6,2-0.6,2.7-0.7c1-0.2,3.1-0.3,4.1-0.3c1.4,0,4.2,0.3,5.5,0.7c1.6,0.4,4.5,1.9,6,2.6
		c1.9,0.9,5.4,3,7.3,4c1.6,0.8,4.9,2.2,6.3,3.3c1,0.8,2.5,2.9,3.5,3.7c1,0.7,3.2,1.9,4.4,2.2c1.1,0.3,3.3,0.3,4.4,0.3
		c1.3,0.1,3.8-0.1,5.1,0.3c1.3,0.4,3.5,2.1,4.6,2.9c1.2,0.9,3.4,2.8,4.5,3.7c1.7,1.4,4.9,4.5,6.7,5.7c1.4,1,4.6,2.5,6,3.5
		c1,0.7,2.8,2.6,3.9,3c0.9,0.3,2.9,0.3,3.8,0.2c0.9-0.1,2.8-0.5,3.5-1c0.4-0.3,0.9-1.1,1-1.6c0.2-0.5,0.5-1.6,0.3-2.1
		c-0.3-0.8-2-1.7-2.6-2.4c-0.7-0.7-2.1-2-2.5-2.8c-0.4-1-0.6-3.2-0.6-4.2c0-1,0.2-3,0.5-3.9c0.2-0.7,1-1.8,1.1-2.5
		c0.2-1,0.2-3,0.1-3.9c-0.1-0.8-0.5-2.4-1-3c-0.3-0.5-1.5-1.1-1.7-1.7c-0.3-0.9,0.2-2.7,0.4-3.6c0.2-0.8,0.9-2.2,1.4-2.8
		c0.4-0.5,1.2-1.6,1.8-1.9c0.4-0.2,1.3-0.1,1.7,0.1c0.1,0,0.2,0.1,0.2,0.2l0.3-3.9l-6.6-1.3l-4.5-1.3l-1.1-2.6l0.8-1.5l-0.1-2.9
		l-6.1-5.1l-2.1,1.1l-8.5-11.7l3.9-3.3l-0.6-6.8l-3.5-1.4l0.5-8.7l-1.8-2.7l-6.1-0.3l-1.8-2.3l0.9-7.9l1.2-0.2v-1.9l-8.4-2l-5.9-9.1
		l0-0.2L211,0.6L207.7,6l-4-3l-5.4,12.7l-2.8,2.7l-0.4,2.8l3.7,3.5l2,0.6l-9.2,4.5l-1.6,7.5l-2.7-0.2c0,0-1.2,1.2-1.6,1.7
		c-0.4,0.6-1,1.9-1.3,2.6c-0.2,0.6-0.7,1.7-0.7,2.3c0,0.4,0.5,1.2,0.3,1.5c-0.2,0.4-1.1,0.6-1.5,0.7c-0.3,0.1-1.1,0.2-1.3,0.4
		c-0.3,0.3-0.2,1.4-0.3,1.8c-0.1,0.5-0.7,2-0.7,2l-8.9-0.2c0,0-0.9-0.9-1-1.2c-0.2-0.5,0.3-1.7,0.3-2.2c0-0.6,0-1.7-0.2-2.3
		c-0.3-0.5-1.1-1.5-1.7-1.6c-0.5-0.1-1.5,0.7-1.9,1c-0.6,0.5-1.3,1.8-1.9,2.3c-0.2,0.2-0.5,0.4-0.8,0.7c-0.3,1.5-0.9,3.8-1.2,5
		c-0.3,1.1-0.8,3.6-1.7,4.4c-0.7,0.7-2.9,1.3-3.8,1c-0.8-0.3-1.9-1.9-2.2-2.7c-0.2-0.8,0.3-2.6,0.4-3.4c0.2-1.2,0.7-3.7,0.8-5
		c0.2-1.9,0.8-5.6,0.4-7.5c-0.3-1.5-1.4-4.3-2.4-5.4c-0.5-0.5-1.9-1.3-2.6-1.3c-0.5,0-1.5,0.5-2,0.8c-0.6,0.4-1.5,1.6-2.1,2.2
		l-0.5,8l-10,2.8l-2.1,2.2l-1.1,9.8l1.7,2.5l-0.2,7.1l1.1,3.7l-7.2,10.2l1.8,3l-3.8,5.3l-9.8,9.1l1.5,2.8l-0.7,1.7l-7.4-0.3
		l-0.1,2.4l2,4.5l-8.4,4.5l-7.7,2l-5.4-4.7l-1.7-0.3l-0.2,0.9l-1.3-0.1l-2.2-1.8l-1.3-0.2l-8.7,3.5l1.7,2.6l-0.7,1l-5.1-5.2
		l-2.3,1.1l2.1,4.2l-4,2.3l2.3,6.5l-0.4,1.6l-4.6-0.1l-1.2-2.3l-12.5-2.9l0.3-7.6l-7.5-0.1l-4.3,1l-4.7-0.5l-6.6,3.1l-1.1,6
		l-1.9,1.5l-0.6,6l-2.6,2.6l-8.2-1.4l-3.6-5.1l-3.3,0.5l3.9,10.5l-4.9,5.1l-4.1,2.1l-0.1,8.5l3.7-0.3l1.3,5.3l-7.1,4.9l2.5,5.5
		l6.4-3.7l1.9,0.8l0.5,10l12.2,12.7l-4,3.8l8.4,6.6l0.2,3l1.5,3.3l1.9,1.1v4.6l1.8,6.2l-3,2.4l0.3,2.7l6.5-2.2l1.5,0.9l1.6,7.1
		l6.9-8.5l6.2,3.4l17.7-13.7c0,0,2.1,1.5,2.9,1.9c0.8,0.4,2.4,1,3.2,1c0.8,0.1,2.6-0.1,3.4-0.4c0.6-0.2,1.8-0.7,2-1.2
		c0.2-0.4-0.1-1.2-0.3-1.6c-0.4-0.8-1.8-1.9-2.3-2.6c-0.5-0.7-1.5-2.1-1.6-3c0-0.7,0.6-1.9,0.9-2.5c0.3-0.7,0.7-2.1,1.3-2.5
		c0.3-0.2,1-0.3,1.3-0.2c0.3,0.1,0.9,0.5,1.2,0.6c0.3,0.1,0.8,0.5,1,0.4c0.4-0.1,1-0.6,1.2-1c0.3-0.6-0.2-2.1-0.3-2.8
		c-0.2-0.9-0.9-2.5-1.1-3.3c-0.2-0.7-0.6-2.3-0.4-3c0.2-0.5,1.2-1.2,1.7-1.5c1-0.6,3.2-1.4,4.3-1.8c1-0.3,3-0.8,4-0.8
		c1.2,0,3.5,0.2,4.6,0.6c0.9,0.3,2.3,1.4,3.2,1.8c0.5,0.2,1.6,0.7,2.1,0.8c1.4,0.2,4.1-0.4,5.5-0.5c1-0.1,3-0.3,4-0.3
		c1,0,3.1,0.3,4.2,0.6c1,0.3,2.7,1.4,3.6,1.6c0.6,0.1,1.7,0.2,2.3,0.2c0.6,0.1,1.8,0.3,2.4,0.3c1.1-0.1,3.1-0.8,4.1-1
		c1.5-0.3,4.4-1,5.9-1.1c1.5-0.1,4.4-0.2,5.9,0.1c1,0.2,2.9,0.9,3.7,1.4c0.6,0.4,1.4,1.5,2,1.9c0.3,0.2,1,0.4,1.3,0.3
		c0.6-0.1,1.7-1,2.2-1.4c0.5-0.4,1.5-1,1.8-1.6c0.3-0.5,0.2-1.6,0.4-2.1c0.2-0.4,0.6-1.1,0.9-1.3c0.6-0.4,1.9-0.4,2.6-0.5
		c0.8-0.1,2.3,0,3.1-0.2c0.5-0.1,1.6-0.6,2-0.9c0.6-0.4,1.7-1.3,1.9-2c0.2-0.4,0.1-1.3,0.1-1.7c0-0.7-0.1-2.2-0.3-2.9
		c-0.1-0.8-0.6-2.2-0.9-3c-0.2-0.6-0.7-1.9-0.9-2.5c-0.1-0.5-0.5-1.5-0.4-2c0-0.5,0.4-1.3,0.7-1.7c0.3-0.3,1.1-0.6,1.5-0.7
		c0.5-0.2,1.5-0.7,2.1-0.7c0.4,0,1.1,0.4,1.5,0.6c0.4,0.1,1.1,0.5,1.5,0.5c0.7,0,2.1-0.5,2.8-0.6c0.6-0.1,2-0.2,2.5,0.1
		c0.4,0.2,0.6,1.2,1,1.4c0.4,0.2,1.3,0.1,1.7,0c0.6-0.1,1.5-0.8,2-1c0.8-0.5,2.3-1.6,3.2-2.1c0.6-0.3,1.7-0.9,2.3-1
		c0.6-0.1,1.7-0.4,2.3-0.2c0.4,0.1,1,0.9,1.4,1.1c0.4,0.3,1.2,0.9,1.7,1.2c0.5,0.4,1.6,1.1,2.1,1.5c0.3,0.2,1.1,0.7,1.2,1
		c0.2,0.3,0.1,1.1,0.1,1.4c0,0.4-0.5,1.2-0.4,1.6c0.1,0.3,0.5,0.7,0.7,0.8c0.2,0.2,0.8,0.6,1.1,0.6c0.5-0.1,1.3-0.9,1.7-1.3
		c0.4-0.5,0.9-1.7,1.3-2.2c0.4-0.5,1.5-1.2,2.1-1.5c0.4-0.2,1.4-0.2,1.9-0.4c0.5-0.3,1.2-1.3,1.7-1.5c0.7-0.3,2.4-0.5,3.2-0.5
		c0.7,0,2,0.4,2.6,0.7c0.7,0.3,1.8,1.2,2.4,1.4c0.5,0.1,1.4,0.2,1.9,0.1c0.3-0.1,0.7-0.7,0.8-1c0.2-0.4,0.9-1.2,0.8-1.6
		c-0.1-0.4-1-0.9-1.3-1.2c-0.3-0.3-1.2-1.3-1.2-1.3l5.2-2.3l3.2-12.1l11.7-2.4l0.1,3.5l4.9,3.4l3.5-3l4,11.7l4.3-3.4l1.8-2.5
		l1.5,4.9l5.6,0.4l1.8-2.8l2.8,3.8l14.2-1.3l-4.7-6.9l1-7.5c-0.6,0.2-1.3,0.6-1.8,0.6C270.7,148.4,269.4,148.2,268.9,147.7z
		 M113.1,140.6c-0.5,0.2-1.2,0.4-1.9,0.4c-1.2,0-2.3-0.4-3.1-1.3c-0.8-0.9-1.2-1.9-1.2-3.1c0-1.2,0.4-2.3,1.2-3.1s1.9-1.3,3.1-1.3
		c0.7,0,1.3,0.1,1.8,0.3c0.5,0.2,1,0.6,1.5,1l-0.6,0.7c-0.8-0.8-1.7-1.2-2.7-1.2c-0.9,0-1.7,0.3-2.4,1c-0.6,0.7-0.9,1.5-0.9,2.5
		c0,1,0.3,1.8,1,2.5s1.4,1,2.4,1c0.6,0,1-0.1,1.5-0.3c0.4-0.2,0.9-0.5,1.3-0.9l0.6,0.7C114.1,140,113.6,140.3,113.1,140.6z
		 M124.4,140.8h-1V137h-4.9v3.9h-1v-8.6h1v3.8h4.9v-3.8h1V140.8z M134.3,140.8H128v-8.6h6.2v0.9H129v2.9h4.7v0.9H129v3h5.3V140.8z
		 M143.3,140.8l-2.5-3.3h-2.4v3.3h-1v-8.6h3.7c1.1,0,1.9,0.3,2.4,0.9c0.4,0.4,0.7,1,0.7,1.7c0,0.7-0.2,1.2-0.6,1.7s-1,0.7-1.7,0.8
		l2.6,3.5H143.3z M153.6,140.8l-3.3-4.1l-1.8,1.8v2.3h-1v-8.6h1v5.1l4.9-5.1h1.2l-3.7,3.7l3.8,4.8H153.6z M164.4,140.8l-1-2.3h-4.7
		l-1,2.3h-1l3.9-8.6h0.9l3.9,8.6H164.4z M173.2,140.3c-0.5,0.4-1.2,0.7-2.1,0.7c-1.3,0-2.5-0.5-3.5-1.4l0.6-0.7
		c0.5,0.4,0.9,0.7,1.4,0.9c0.5,0.2,1,0.3,1.6,0.3c0.6,0,1-0.1,1.4-0.4s0.5-0.6,0.5-1.1c0-0.4-0.2-0.7-0.5-1
		c-0.3-0.2-0.9-0.5-1.8-0.6c-1-0.2-1.8-0.5-2.2-0.9s-0.7-0.9-0.7-1.6c0-0.7,0.3-1.2,0.8-1.7c0.5-0.4,1.2-0.7,2-0.7
		c1.1,0,2.1,0.4,3,1.1l-0.6,0.7c-0.8-0.6-1.6-0.9-2.5-0.9c-0.5,0-1,0.1-1.3,0.4c-0.3,0.3-0.5,0.6-0.5,1c0,0.4,0.2,0.8,0.5,1
		c0.3,0.2,0.9,0.5,1.8,0.7c1,0.2,1.7,0.5,2.1,0.9s0.7,0.9,0.7,1.6C174.1,139.2,173.8,139.8,173.2,140.3z M180.5,137.4v3.4h-1v-3.4
		l-3.6-5.2h1.2l2.9,4.3l2.9-4.3h1.1L180.5,137.4z"/>
	<path class="st1" d="M112.6,139.8c-0.4,0.2-0.9,0.3-1.5,0.3c-0.9,0-1.7-0.3-2.4-1s-1-1.5-1-2.5c0-1,0.3-1.8,0.9-2.5
		c0.6-0.7,1.4-1,2.4-1c1,0,1.9,0.4,2.7,1.2l0.6-0.7c-0.5-0.5-1-0.8-1.5-1c-0.5-0.2-1.1-0.3-1.8-0.3c-1.2,0-2.3,0.4-3.1,1.3
		s-1.2,1.9-1.2,3.1c0,1.2,0.4,2.3,1.2,3.1c0.8,0.9,1.8,1.3,3.1,1.3c0.7,0,1.4-0.1,1.9-0.4c0.5-0.2,1-0.6,1.5-1.1l-0.6-0.7
		C113.5,139.2,113.1,139.6,112.6,139.8z"/>
	<polygon class="st1" points="123.4,136.1 118.5,136.1 118.5,132.3 117.5,132.3 117.5,140.8 118.5,140.8 118.5,137 123.4,137 
		123.4,140.8 124.4,140.8 124.4,132.3 123.4,132.3 	"/>
	<polygon class="st1" points="129,136.9 133.6,136.9 133.6,136.1 129,136.1 129,133.1 134.2,133.1 134.2,132.3 128,132.3 128,140.8 
		134.3,140.8 134.3,139.9 129,139.9 	"/>
	<path class="st1" d="M143.6,136.5c0.4-0.4,0.6-1,0.6-1.7c0-0.7-0.2-1.3-0.7-1.7c-0.6-0.6-1.4-0.9-2.4-0.9h-3.7v8.6h1v-3.3h2.4
		l2.5,3.3h1.2l-2.6-3.5C142.6,137.2,143.1,136.9,143.6,136.5z M138.4,136.6v-3.5h2.6c0.7,0,1.2,0.1,1.6,0.4c0.4,0.3,0.6,0.7,0.6,1.2
		c0,0.6-0.2,1-0.6,1.3c-0.4,0.3-0.9,0.5-1.6,0.5H138.4z"/>
	<polygon class="st1" points="154.6,132.3 153.4,132.3 148.4,137.4 148.4,132.3 147.5,132.3 147.5,140.8 148.4,140.8 148.4,138.5 
		150.3,136.7 153.6,140.8 154.8,140.8 150.9,136 	"/>
	<path class="st1" d="M160.7,132.2l-3.9,8.6h1l1-2.3h4.7l1,2.3h1l-3.9-8.6H160.7z M159.1,137.7l2-4.4l1.9,4.4H159.1z"/>
	<path class="st1" d="M171.3,136.1c-0.9-0.2-1.5-0.4-1.8-0.7c-0.3-0.2-0.5-0.6-0.5-1c0-0.4,0.2-0.7,0.5-1c0.3-0.3,0.8-0.4,1.3-0.4
		c0.9,0,1.7,0.3,2.5,0.9l0.6-0.7c-0.9-0.7-1.9-1.1-3-1.1c-0.8,0-1.5,0.2-2,0.7c-0.5,0.4-0.8,1-0.8,1.7c0,0.7,0.2,1.2,0.7,1.6
		s1.2,0.7,2.2,0.9c0.9,0.2,1.5,0.4,1.8,0.6c0.3,0.2,0.5,0.6,0.5,1c0,0.4-0.2,0.8-0.5,1.1s-0.8,0.4-1.4,0.4c-0.6,0-1.1-0.1-1.6-0.3
		c-0.5-0.2-0.9-0.5-1.4-0.9l-0.6,0.7c1,0.9,2.2,1.4,3.5,1.4c0.9,0,1.6-0.2,2.1-0.7s0.8-1,0.8-1.8c0-0.7-0.2-1.2-0.7-1.6
		S172.2,136.3,171.3,136.1z"/>
	<polygon class="st1" points="180.1,136.5 177.2,132.3 176,132.3 179.6,137.4 179.6,140.8 180.5,140.8 180.5,137.4 184.1,132.3 
		183,132.3 	"/>
</g>
<g>
	<path class="st2" d="M161.1,96.3c0-2.1-1.6-3.9-3.8-3.9c-2.1,0-3.8,1.7-3.8,3.7c0,2,1.7,3.8,3.7,3.8C159.3,100,161,98.4,161.1,96.3
		z"/>
	<path class="st3" d="M168,93.9c-0.8-4.3-3.2-7.3-7.5-8.4c-4.5-1.2-8.6-0.3-11.6,3.4c-2.9,3.6-3.2,7.8-1.5,12.1
		c2.6,6.4,6.2,12.2,9.9,18.1c3.8-6.1,7.5-12.1,10.1-18.7C168.2,98.2,168.4,96.1,168,93.9z M153.4,96.2c0-2.1,1.8-3.8,3.8-3.7
		c2.1,0,3.8,1.8,3.8,3.9c0,2.1-1.8,3.7-3.9,3.7C155.1,100,153.4,98.2,153.4,96.2z"/>
</g>
</svg>
