<?xml version="1.0" encoding="utf-8"?>
<!-- Generator: Adobe Illustrator 23.0.2, SVG Export Plug-In . SVG Version: 6.00 Build 0)  -->
<svg version="1.1" id="Layer_1" xmlns="http://www.w3.org/2000/svg" xmlns:xlink="http://www.w3.org/1999/xlink" x="0px" y="0px"
	 viewBox="0 0 230.6 320.9" style="enable-background:new 0 0 230.6 320.9;" xml:space="preserve">
<style type="text/css">
	.st0{fill:#E6E6E6;stroke:#023F2C;stroke-width:0.25;}
	.st1{fill:#002C1B;}
	.st2{fill:#FFFFFF;}
	.st3{fill:#023F2C;}
</style>
<g>
	<g>
		<path class="st0" d="M9.6,50l-4.3-2.4l-5.1,2.8l5,18.7l1.7-1.7l12.9,11.1l-6,3.9l-0.1,5.2l-3.1,0.1l0.5,3.5l7.1,8.8
			c0,0-0.1,1.9-0.2,2.6c-0.1,0.7-0.5,2-0.3,2.7c0.2,0.9,1.9,2.1,2.2,2.9c0.3,0.6,0.6,2,0.3,2.6c-0.2,0.5-1.3,0.9-1.8,1.1
			c-0.6,0.3-1.9,0.8-2.6,1c-0.5,0.2-1.9,0.2-2.1,0.8c-0.2,0.4,0.5,1.3,0.8,1.6c0.4,0.5,1.6,1,2.2,1.2c0.8,0.3,2.6,0.8,3.5,0.8
			c0.9,0,2.6-0.5,3.4-0.8c0.4-0.1,1.1-0.9,1.5-0.8c0.4,0.2,0.2,1.2,0.3,1.7c0.2,1,0.7,2.8,0.6,3.8c-0.1,1-0.9,2.8-1.5,3.6
			c-0.8,1.1-3.2,2.6-4.4,3.3c-1.3,0.8-4.3,1.7-5.7,2.4c-0.8,0.4-3,1.8-3,1.8l-0.1,3.4l4.4,3l0.8,2.2l-3.3,2.7l1,3.3l3.2,2.4
			l-2.8,4.4l-4.7-0.3l4.9,10.2l12.4,10l-0.4,7.1l-2.2-0.2l3.4,3.3l-3.2,6.6l1,3.6l3.1,0.4l2.8,5.3l-3.4,1.9l1.3,3.8l-4.7,5.2
			l9.6,11.8L23.3,228l-8.7,7.8l-10.3,4.6l2,6.7l-1.2,4.3l4.4,2.1L9,260.4l3,4.1l-2.7,3l8.2,19.7l-8.4,6.1l7.8,11l4.9-0.6l0.1,6.2
			l1.3,2.2l5.1-0.1l0.1,2.9l-0.8,0.1l3.6,5.1l8.2,1.4l2.6-2.6l0.6-6l1.9-1.5l1.1-6l6.6-3.1l4.7,0.5l4.3-1l7.5,0.1l-0.3,7.6l12.5,2.9
			l1.2,2.3l4.6,0.1l0.4-1.6l-2.3-6.5l4-2.3l-2.1-4.2l2.3-1.1l5.1,5.2l0.7-1l-1.7-2.6l8.7-3.5l1.3,0.2l2.2,1.8l1.3,0.1l0.2-0.9
			l1.7,0.3l5.4,4.7l7.7-2l8.4-4.5l-2-4.5l0.1-2.4l7.4,0.3l0.7-1.7l-1.5-2.8l9.8-9.1l3.8-5.3l-1.8-3l7.2-10.2l-1.1-3.7l0.2-7.1
			l-1.7-2.5l1.1-9.8l2.1-2.2l10-2.8l0.5-8c-0.1,0.1-0.2,0.1-0.3,0.2c-0.7,0.5-2.4,1.3-3.3,1.5c-1.7,0.3-5.1,0.2-6.7,0
			c-2-0.3-6.1-1.3-8-2.1c-2-0.8-5.7-3-7.4-4.3c-2.1-1.6-5.6-5.6-7.6-7.5c-1.7-1.6-5.1-4.9-7-6.3c-1.7-1.2-5.5-3.1-7.2-4.3
			c-0.8-0.6-2.3-2.1-3.2-2.6c-0.5-0.3-1.9-0.3-2.3-0.8c-0.6-0.8-0.1-2.9-0.2-3.8c-0.2-1.5-1-4.5-1.6-5.9c-0.5-1.3-2.2-3.7-2.6-5.1
			c-0.5-1.6-0.9-5-0.5-6.6c0.2-0.9,1.2-2.6,2-3c0.6-0.3,2.1-0.3,2.7,0c0.9,0.4,2.4,2,2.9,2.9c0.8,1.4,1.1,4.6,1.5,6.1
			c0.5,1.7,1.3,5.1,2,6.7c0.5,1.2,1.7,3.6,2.4,4.7c0.5,0.8,1.8,2.3,2.5,3c1.4,1.3,4.9,3.2,6.3,4.5c1.5,1.3,4,4.2,5.3,5.6
			c1.7,1.8,5,5.3,6.7,7c1.3,1.2,3.9,3.6,5.4,4.5c1.3,0.8,4.2,1.9,5.7,2.1c1.2,0.1,3.7,0,4.8-0.5c0.7-0.3,2-1.3,2.3-2
			c0.2-0.5,0.1-1.7-0.1-2.2c-0.3-0.6-1.5-1.2-1.8-1.8c-0.1-0.3-0.2-1.1,0-1.3c0.3-0.3,1.3-0.4,1.7-0.3c0.7,0.2,1.5,1.6,2,2.2
			c0.5,0.5,1.2,1.9,1.9,2c0.3,0,1-0.3,1.1-0.6c0.2-0.5-0.4-1.6-0.3-2.2c0.1-0.5,0.4-1.7,0.8-2c0.6-0.4,2.2-0.3,2.9-0.3
			c0.9-0.1,2.7-0.2,3.6-0.1c0.9,0.1,2.8,0.6,3.6,1c1,0.5,2.7,1.8,3.4,2.7c0.8,0.9,1.8,3.2,2.1,4.4c0.5,1.8,0.4,5.6,0.5,7.5
			c0.1,2.1,0.5,6.3,0.3,8.4c0,0.2-0.1,0.5-0.1,0.7c0.3-0.2,0.6-0.5,0.8-0.7c0.5-0.5,1.3-1.8,1.9-2.3c0.4-0.3,1.4-1.1,1.9-1
			c0.6,0.1,1.4,1,1.7,1.6c0.3,0.5,0.2,1.7,0.2,2.3c0,0.6-0.4,1.7-0.3,2.2c0.1,0.4,1,1.2,1,1.2l8.9,0.2c0,0,0.6-1.5,0.7-2
			c0.1-0.4,0-1.5,0.3-1.8c0.2-0.3,1-0.3,1.3-0.4c0.4-0.2,1.3-0.4,1.5-0.7c0.2-0.4-0.3-1.1-0.3-1.5c0-0.6,0.5-1.7,0.7-2.3
			c0.3-0.7,0.9-2,1.3-2.6c0.3-0.5,1.6-1.7,1.6-1.7l2.7,0.2l1.6-7.5l9.2-4.5l-2-0.6l-3.7-3.5l0.4-2.8l2.8-2.7l5.4-12.7l4,3l3.3-5.5
			l1.2,0.6l1.6-14l-7.7,0.2l5.6-8.8l-4.9-0.1l-5.8-9.4l10.2-5.3l-2.9-2.9l-8.3-1.3l-0.9-6.2l-7.8-2.9l-5.6,4.7l-0.8,2.5l-9.2,0.5
			l-1.8,1.8l-1.4,1.6l-3.6-1.5l-4.5-0.5l-4.8,0.7l-4.8-0.6l-5.3,0.5l-5.1-0.1l-4.1-4.4l-1.9,0.7l-1.7,0.6l-0.4-1.7l-0.9-1.8
			l-0.1-1.7l3.1-0.4l1.8-0.6l0.5-2.2l-1-4.4l-0.8-4l-1-0.6l-0.8-0.6l0.8-1.6l-0.3-1.4l-2.2-1.8l-2.4-2l-0.2-1.5l-1.1-1.3l-1.5-0.2
			l-4.3,1.4l-5.5,1.4l-6.1,0.7l-3.3-0.2l-2.5-1.6l-0.3-2l-1.1-0.4l-2.6,0.5l-2.7-1.1l-4.6-0.7l2.8-5.2l2.9,2l1.3-0.7l-0.2-5.7
			l-1.1-3.6h-4.4l-1.9-1.1l-3.2-8.6l0.7-7l-1.5-0.9h-2.1l-2,0c-0.1,0.3-0.1,0.7-0.1,0.9c0,0.8,0.9,2.4,0.9,3.2
			c0.1,1.1-0.1,3.3-0.4,4.4c-0.2,0.8-1.1,2.4-1.3,3.2c-0.4,1.2-1,3.6-1.1,4.8c-0.1,1.6,0.8,4.8,0.5,6.4c-0.2,1.1-1.4,3.1-1.9,4.2
			c-0.7,1.3-2.5,3.7-2.9,5.1c-0.5,1.8-0.5,5.6-0.4,7.5c0.1,1.3,0.3,4,0.7,5.2c0.4,1.1,2.2,3,2.4,4.2c0.1,0.8-0.2,2.6-0.8,3.1
			c-0.6,0.5-2.4,0.1-3.2,0c-1-0.1-3-0.2-3.8-0.7c-1.1-0.8-2.4-3.4-2.8-4.7c-0.4-1.2-0.2-3.9-0.4-5.2c-0.2-1-0.6-3-1.2-3.7
			c-0.6-0.6-2.5-0.4-3-1c-0.4-0.6-0.3-2.1-0.1-2.8c0.2-0.7,1.8-1.7,1.9-2.5c0.1-0.6-0.7-1.6-1-2.1c-0.3-0.4-1.4-0.9-1.6-1.3
			c-0.2-0.5,0-1.6,0.4-2c0.5-0.5,2.1,0,2.8-0.2c0.5-0.2,1.5-0.7,1.8-1.1c0.5-0.7,0.5-2.4,0.8-3.2c0.4-1.1,1.8-3,2.2-4
			c0.6-1.5,1.4-4.8,1.3-6.4c-0.1-1.1-0.9-3.2-1.3-4.2c-0.6-1.3-2-3.8-3-4.8c-0.9-0.9-3-2.2-4.2-2.6c-0.8-0.3-2.5-0.3-3.3-0.5
			c-0.6-0.1-2-0.2-2.4-0.6c-0.4-0.4-0.5-1.7-0.3-2.3c0.2-0.6,1.3-1.3,1.9-1.6c1.3-0.5,4.1-0.2,5.5-0.4c0.9-0.2,2.8-0.4,3.5-0.9
			c0.6-0.4,1.6-1.5,1.8-2.2c0.1-0.7-0.8-2.2-0.9-2.9c-0.2-0.7-0.3-2.3-0.4-3c-0.1-1-0.7-3.1-0.6-4.2c0.1-1,1.7-2.7,1.5-3.6
			c-0.2-0.9-1.8-2.1-2.6-2.5c-0.7-0.3-2.2-0.1-2.9-0.3c-0.9-0.3-2.2-1.6-3-2.1c-1-0.6-3.4-1.2-3.9-2.2c-0.3-0.5-0.3-2.1,0.2-2.5
			c0.5-0.4,1.9-0.1,2.5,0.1c0.5,0.2,1.4,1.1,2,1.1c0.6,0.1,1.9-0.8,2.5-0.6c0.5,0.2,0.9,1.5,1.5,1.7c0.9,0.4,2.8-0.3,3.7-0.3
			c0.8,0,2.3-0.1,3,0.1c0.7,0.2,2,1.1,2.7,1.5c0.3,0.2,1,0.6,1.3,0.6c0.9,0.1,2.5-1,3.4-0.9c0.4,0,1.1,0.3,1.6,0.5l0.7-3
			c-0.3,0.1-0.8,0-1-0.1c-0.5-0.1-1.3-0.8-1.7-1.1c-0.5-0.4-1.3-1.6-1.9-1.9c-0.6-0.4-2-0.7-2.7-1c-0.8-0.3-2.4-0.7-3.2-1
			c-0.7-0.2-2.1-0.8-2.8-1.1c-0.6-0.3-1.9-0.8-2.4-1.4c-0.4-0.5-0.8-1.9-0.8-2.6c-0.1-1,0.3-3,0.4-3.9c0.1-0.8,0.2-2.3,0.3-3.1
			c0.1-0.5,0.7-1.6,0.5-2.1c-0.3-0.8-2.2-1.5-2.8-2.1c-0.6-0.5-1.8-1.7-2.2-2.4c-0.4-0.7-0.3-2.4-0.9-3c-0.6-0.6-2.3-0.6-3.1-0.8
			c-1-0.3-2.8-1.1-3.8-1.4c-1.9-0.5-5.8-0.8-7.8-1.1c-0.9-0.1-2.8-0.8-3.7-0.6c-0.5,0.1-1.4,0.9-1.8,1.3c-0.3,0.4-0.6,1.4-1,1.7
			c-0.4,0.3-1.6,0.4-2.1,0.6c-1.1,0.2-4.2,0.6-4.4,0.6c-0.3,0-2.1,1.2-2.8,1.7c-0.6,0.4-1.9,1.4-2.6,1.6c-0.5,0.2-1.6,0.2-2.1,0.1
			c-1.2,0-3.6-0.1-4.7-0.6c-0.7-0.4-1.9-1.6-2.2-2.4c-0.5-1.1-0.8-3.6-0.8-4.8c0-0.7,0.6-2.3,0.1-2.8c-0.4-0.4-1.7-0.4-2.3-0.3
			c-0.7,0-2.2,0.4-2.9,0.7c-0.6,0.3-1.5,1.3-2.1,1.7c-1,0.8-3,2.2-4,3c-1,0.7-3.1,2.2-4,3c-0.8,0.7-2.5,2.2-3.1,3.1
			c-0.6,0.8-1.3,2.6-1.9,3.4c-0.2,0.3-0.7,1-1,1.1c-0.4,0.2-1.4-0.2-1.9-0.3c-0.9-0.2-2.5-1-3.4-1.1c-0.6,0-1.9,0.1-2.4,0.4
			c-0.7,0.4-1.4,1.9-2.1,2.3c-0.4,0.2-1.4,0.6-1.9,0.5c0,0,0,0,0,0l4.1,4.9L9.6,50z"/>
		<g>
			<path class="st1" d="M58.1,198.1v-8.6h1v5.1l4.9-5.1h1.2l-3.7,3.7l3.8,4.8h-1.2l-3.3-4.1l-1.8,1.8v2.3H58.1z"/>
			<path class="st1" d="M68.2,198.1v-8.6h1v8.6H68.2z"/>
			<path class="st1" d="M72.9,198.1v-8.6h6.2v0.9h-5.2v2.9h4.7v0.9h-4.7v3h5.3v0.9H72.9z"/>
			<path class="st1" d="M85.2,198.1l-3.7-8.6h1.1l3,7.4l3.1-7.4h1l-3.7,8.6H85.2z"/>
		</g>
	</g>
</g>
<g>
	<path class="st2" d="M58.1,44.5c0-2.1-1.6-3.9-3.8-3.9c-2.1,0-3.8,1.7-3.8,3.7c0,2,1.7,3.8,3.7,3.8C56.4,48.2,58.1,46.6,58.1,44.5z
		"/>
	<path class="st3" d="M65,42.1c-0.8-4.3-3.2-7.3-7.5-8.4c-4.5-1.2-8.6-0.3-11.6,3.4c-2.9,3.6-3.2,7.8-1.5,12.1
		c2.6,6.4,6.2,12.2,9.9,18.1c3.8-6.1,7.5-12.1,10.1-18.7C65.3,46.3,65.4,44.2,65,42.1z M50.5,44.3c0-2.1,1.8-3.8,3.8-3.7
		c2.1,0,3.8,1.8,3.8,3.9c0,2.1-1.8,3.7-3.9,3.7C52.2,48.1,50.5,46.4,50.5,44.3z"/>
</g>
<g>
	<path class="st2" d="M35.4,88.2c0-2.1-1.6-3.9-3.8-3.9c-2.1,0-3.8,1.7-3.8,3.7c0,2,1.7,3.8,3.7,3.8C33.6,91.9,35.3,90.3,35.4,88.2z
		"/>
	<path class="st3" d="M42.3,85.8c-0.8-4.3-3.2-7.3-7.5-8.4c-4.5-1.2-8.6-0.3-11.6,3.4c-2.9,3.6-3.2,7.8-1.5,12.1
		c2.6,6.4,6.2,12.2,9.9,18.1c3.8-6.1,7.5-12.1,10.1-18.7C42.5,90.1,42.7,88,42.3,85.8z M27.7,88.1c0-2.1,1.8-3.8,3.8-3.7
		c2.1,0,3.8,1.8,3.8,3.9c0,2.1-1.8,3.7-3.9,3.7C29.4,91.9,27.7,90.1,27.7,88.1z"/>
</g>
<g>
	<path class="st2" d="M61.9,99.4c0-2.1-1.6-3.9-3.8-3.9c-2.1,0-3.8,1.7-3.8,3.7c0,2,1.7,3.8,3.7,3.8
		C60.2,103.1,61.9,101.5,61.9,99.4z"/>
	<path class="st3" d="M68.8,97c-0.8-4.3-3.2-7.3-7.5-8.4c-4.5-1.2-8.6-0.3-11.6,3.4c-2.9,3.6-3.2,7.8-1.5,12.1
		c2.6,6.4,6.2,12.2,9.9,18.1c3.8-6.1,7.5-12.1,10.1-18.7C69.1,101.3,69.2,99.2,68.8,97z M54.3,99.3c0-2.1,1.8-3.8,3.8-3.7
		c2.1,0,3.8,1.8,3.8,3.9c0,2.1-1.8,3.7-3.9,3.7C56,103.1,54.3,101.3,54.3,99.3z"/>
</g>
<g>
	<path class="st2" d="M85.4,83.4c0-2.1-1.6-3.9-3.8-3.9c-2.1,0-3.8,1.7-3.8,3.7c0,2,1.7,3.8,3.7,3.8C83.6,87.1,85.3,85.5,85.4,83.4z
		"/>
	<path class="st3" d="M92.3,81c-0.8-4.3-3.2-7.3-7.5-8.4c-4.5-1.2-8.6-0.3-11.6,3.4c-2.9,3.6-3.2,7.8-1.5,12.1
		c2.6,6.4,6.2,12.2,9.9,18.1c3.8-6.1,7.5-12.1,10.1-18.7C92.5,85.3,92.7,83.2,92.3,81z M77.8,83.3c0-2.1,1.8-3.8,3.8-3.7
		c2.1,0,3.8,1.8,3.8,3.9c0,2.1-1.8,3.7-3.9,3.7C79.4,87.1,77.7,85.3,77.8,83.3z"/>
</g>
<g>
	<path class="st2" d="M41.5,130c0-2.1-1.6-3.9-3.8-3.9c-2.1,0-3.8,1.7-3.8,3.7c0,2,1.7,3.8,3.7,3.8C39.7,133.7,41.4,132.1,41.5,130z
		"/>
	<path class="st3" d="M48.4,127.6c-0.8-4.3-3.2-7.3-7.5-8.4c-4.5-1.2-8.6-0.3-11.6,3.4c-2.9,3.6-3.2,7.8-1.5,12.1
		c2.6,6.4,6.2,12.2,9.9,18.1c3.8-6.1,7.5-12.1,10.1-18.7C48.6,131.9,48.8,129.8,48.4,127.6z M33.9,129.9c0-2.1,1.8-3.8,3.8-3.7
		c2.1,0,3.8,1.8,3.8,3.9c0,2.1-1.8,3.7-3.9,3.7C35.5,133.7,33.8,131.9,33.9,129.9z"/>
</g>
<g>
	<path class="st2" d="M61.9,147c0-2.1-1.6-3.9-3.8-3.9c-2.1,0-3.8,1.7-3.8,3.7c0,2,1.7,3.8,3.7,3.8C60.1,150.7,61.9,149.1,61.9,147z
		"/>
	<path class="st3" d="M68.8,144.6c-0.8-4.3-3.2-7.3-7.5-8.4c-4.5-1.2-8.6-0.3-11.6,3.4c-2.9,3.6-3.2,7.8-1.5,12.1
		c2.6,6.4,6.2,12.2,9.9,18.1c3.8-6.1,7.5-12.1,10.1-18.7C69,148.9,69.2,146.8,68.8,144.6z M54.3,146.9c0-2.1,1.8-3.8,3.8-3.7
		c2.1,0,3.8,1.8,3.8,3.9c0,2.1-1.8,3.7-3.9,3.7C56,150.7,54.2,148.9,54.3,146.9z"/>
</g>
<g>
	<path class="st2" d="M45.3,168.3c0-2.1-1.6-3.9-3.8-3.9c-2.1,0-3.8,1.7-3.8,3.7c0,2,1.7,3.8,3.7,3.8
		C43.5,172,45.2,170.4,45.3,168.3z"/>
	<path class="st3" d="M52.2,165.9c-0.8-4.3-3.2-7.3-7.5-8.4c-4.5-1.2-8.6-0.3-11.6,3.4c-2.9,3.6-3.2,7.8-1.5,12.1
		c2.6,6.4,6.2,12.2,9.9,18.1c3.8-6.1,7.5-12.1,10.1-18.7C52.4,170.2,52.6,168,52.2,165.9z M37.7,168.1c0-2.1,1.8-3.8,3.8-3.7
		c2.1,0,3.8,1.8,3.8,3.9c0,2.1-1.8,3.7-3.9,3.7C39.3,171.9,37.6,170.2,37.7,168.1z"/>
</g>
<g>
	<path class="st2" d="M90.6,162c0-2.1-1.6-3.9-3.8-3.9c-2.1,0-3.8,1.7-3.8,3.7c0,2,1.7,3.8,3.7,3.8C88.9,165.7,90.6,164.1,90.6,162z
		"/>
	<path class="st3" d="M97.5,159.6c-0.8-4.3-3.2-7.3-7.5-8.4c-4.5-1.2-8.6-0.3-11.6,3.4c-2.9,3.6-3.2,7.8-1.5,12.1
		c2.6,6.4,6.2,12.2,9.9,18.1c3.8-6.1,7.5-12.1,10.1-18.7C97.8,163.9,98,161.8,97.5,159.6z M83,161.9c0-2.1,1.8-3.8,3.8-3.7
		c2.1,0,3.8,1.8,3.8,3.9c0,2.1-1.8,3.7-3.9,3.7C84.7,165.7,83,163.9,83,161.9z"/>
</g>
<g>
	<path class="st2" d="M51,211.3c0-2.1-1.6-3.9-3.8-3.9c-2.1,0-3.8,1.7-3.8,3.7c0,2,1.7,3.8,3.7,3.8C49.2,215,50.9,213.4,51,211.3z"
		/>
	<path class="st3" d="M57.9,208.9c-0.8-4.3-3.2-7.3-7.5-8.4c-4.5-1.2-8.6-0.3-11.6,3.4c-2.9,3.6-3.2,7.8-1.5,12.1
		c2.6,6.4,6.2,12.2,9.9,18.1c3.8-6.1,7.5-12.1,10.1-18.7C58.1,213.2,58.3,211,57.9,208.9z M43.4,211.1c0-2.1,1.8-3.8,3.8-3.7
		c2.1,0,3.8,1.8,3.8,3.9c0,2.1-1.8,3.7-3.9,3.7C45,214.9,43.3,213.2,43.4,211.1z"/>
</g>
<g>
	<path class="st2" d="M28.2,249.8c0-2.1-1.6-3.9-3.8-3.9c-2.1,0-3.8,1.7-3.8,3.7c0,2,1.7,3.8,3.7,3.8
		C26.4,253.5,28.1,251.9,28.2,249.8z"/>
	<path class="st3" d="M35.1,247.4c-0.8-4.3-3.2-7.3-7.5-8.4c-4.5-1.2-8.6-0.3-11.6,3.4c-2.9,3.6-3.2,7.8-1.5,12.1
		c2.6,6.4,6.2,12.2,9.9,18.1c3.8-6.1,7.5-12.1,10.1-18.7C35.3,251.7,35.5,249.6,35.1,247.4z M20.6,249.6c0-2.1,1.8-3.8,3.8-3.7
		c2.1,0,3.8,1.8,3.8,3.9c0,2.1-1.8,3.7-3.9,3.7C22.2,253.4,20.5,251.7,20.6,249.6z"/>
</g>
<g>
	<path class="st2" d="M39.2,290.6c0-2.1-1.6-3.9-3.8-3.9c-2.1,0-3.8,1.7-3.8,3.7c0,2,1.7,3.8,3.7,3.8
		C37.4,294.2,39.1,292.6,39.2,290.6z"/>
	<path class="st3" d="M46,288.1c-0.8-4.3-3.2-7.3-7.5-8.4c-4.5-1.2-8.6-0.3-11.6,3.4c-2.9,3.6-3.2,7.8-1.5,12.1
		c2.6,6.4,6.2,12.2,9.9,18.1c3.8-6.1,7.5-12.1,10.1-18.7C46.3,292.4,46.5,290.3,46,288.1z M31.5,290.4c0-2.1,1.8-3.8,3.8-3.7
		c2.1,0,3.8,1.8,3.8,3.9c0,2.1-1.8,3.7-3.9,3.7C33.2,294.2,31.5,292.4,31.5,290.4z"/>
</g>
<g>
	<path class="st2" d="M119.1,273.5c0-2.1-1.6-3.9-3.8-3.9c-2.1,0-3.8,1.7-3.8,3.7c0,2,1.7,3.8,3.7,3.8
		C117.4,277.2,119.1,275.6,119.1,273.5z"/>
	<path class="st3" d="M126,271.1c-0.8-4.3-3.2-7.3-7.5-8.4c-4.5-1.2-8.6-0.3-11.6,3.4c-2.9,3.6-3.2,7.8-1.5,12.1
		c2.6,6.4,6.2,12.2,9.9,18.1c3.8-6.1,7.5-12.1,10.1-18.7C126.3,275.4,126.4,273.3,126,271.1z M111.5,273.4c0-2.1,1.8-3.8,3.8-3.7
		c2.1,0,3.8,1.8,3.8,3.9c0,2.1-1.8,3.7-3.9,3.7C113.2,277.2,111.5,275.4,111.5,273.4z"/>
</g>
<g>
	<path class="st2" d="M139.6,247.8c0-2.1-1.6-3.9-3.8-3.9c-2.1,0-3.8,1.7-3.8,3.7c0,2,1.7,3.8,3.7,3.8
		C137.9,251.5,139.6,249.9,139.6,247.8z"/>
	<path class="st3" d="M146.5,245.4c-0.8-4.3-3.2-7.3-7.5-8.4c-4.5-1.2-8.6-0.3-11.6,3.4c-2.9,3.6-3.2,7.8-1.5,12.1
		c2.6,6.4,6.2,12.2,9.9,18.1c3.8-6.1,7.5-12.1,10.1-18.7C146.8,249.6,146.9,247.5,146.5,245.4z M132,247.6c0-2.1,1.8-3.8,3.8-3.7
		c2.1,0,3.8,1.8,3.8,3.9c0,2.1-1.8,3.7-3.9,3.7C133.7,251.4,132,249.7,132,247.6z"/>
</g>
<g>
	<path class="st2" d="M197.7,208.1c0-2.1-1.6-3.9-3.8-3.9c-2.1,0-3.8,1.7-3.8,3.7c0,2,1.7,3.8,3.7,3.8
		C195.9,211.8,197.6,210.2,197.7,208.1z"/>
	<path class="st3" d="M204.6,205.7c-0.8-4.3-3.2-7.3-7.5-8.4c-4.5-1.2-8.6-0.3-11.6,3.4c-2.9,3.6-3.2,7.8-1.5,12.1
		c2.6,6.4,6.2,12.2,9.9,18.1c3.8-6.1,7.5-12.1,10.1-18.7C204.8,210,205,207.9,204.6,205.7z M190.1,207.9c0-2.1,1.8-3.8,3.8-3.7
		c2.1,0,3.8,1.8,3.8,3.9c0,2.1-1.8,3.7-3.9,3.7C191.7,211.7,190,210,190.1,207.9z"/>
</g>
<g>
	<path class="st2" d="M212.1,174.1c0-2.1-1.6-3.9-3.8-3.9c-2.1,0-3.8,1.7-3.8,3.7c0,2,1.7,3.8,3.7,3.8
		C210.3,177.8,212.1,176.2,212.1,174.1z"/>
	<path class="st3" d="M219,171.7c-0.8-4.3-3.2-7.3-7.5-8.4c-4.5-1.2-8.6-0.3-11.6,3.4c-2.9,3.6-3.2,7.8-1.5,12.1
		c2.6,6.4,6.2,12.2,9.9,18.1c3.8-6.1,7.5-12.1,10.1-18.7C219.2,175.9,219.4,173.8,219,171.7z M204.5,173.9c0-2.1,1.8-3.8,3.8-3.7
		c2.1,0,3.8,1.8,3.8,3.9c0,2.1-1.8,3.7-3.9,3.7C206.2,177.7,204.4,176,204.5,173.9z"/>
</g>
<g>
	<path class="st2" d="M158.2,179.1c0-2.1-1.6-3.9-3.8-3.9c-2.1,0-3.8,1.7-3.8,3.7c0,2,1.7,3.8,3.7,3.8
		C156.4,182.8,158.2,181.1,158.2,179.1z"/>
	<path class="st3" d="M165.1,176.6c-0.8-4.3-3.2-7.3-7.5-8.4c-4.5-1.2-8.6-0.3-11.6,3.4c-2.9,3.6-3.2,7.8-1.5,12.1
		c2.6,6.4,6.2,12.2,9.9,18.1c3.8-6.1,7.5-12.1,10.1-18.7C165.3,180.9,165.5,178.8,165.1,176.6z M150.6,178.9c0-2.1,1.8-3.8,3.8-3.7
		c2.1,0,3.8,1.8,3.8,3.9c0,2.1-1.8,3.7-3.9,3.7C152.3,182.7,150.5,180.9,150.6,178.9z"/>
</g>
<g>
	<path class="st2" d="M189.8,164.1c0-2.1-1.6-3.9-3.8-3.9c-2.1,0-3.8,1.7-3.8,3.7c0,2,1.7,3.8,3.7,3.8
		C188,167.8,189.7,166.1,189.8,164.1z"/>
	<path class="st3" d="M196.7,161.6c-0.8-4.3-3.2-7.3-7.5-8.4c-4.5-1.2-8.6-0.3-11.6,3.4c-2.9,3.6-3.2,7.8-1.5,12.1
		c2.6,6.4,6.2,12.2,9.9,18.1c3.8-6.1,7.5-12.1,10.1-18.7C196.9,165.9,197.1,163.8,196.7,161.6z M182.2,163.9c0-2.1,1.8-3.8,3.8-3.7
		c2.1,0,3.8,1.8,3.8,3.9c0,2.1-1.8,3.7-3.9,3.7C183.8,167.7,182.1,165.9,182.2,163.9z"/>
</g>
<g>
	<path class="st2" d="M215.9,132c0-2.1-1.6-3.9-3.8-3.9c-2.1,0-3.8,1.7-3.8,3.7c0,2,1.7,3.8,3.7,3.8
		C214.2,135.7,215.9,134.1,215.9,132z"/>
	<path class="st3" d="M222.8,129.6c-0.8-4.3-3.2-7.3-7.5-8.4c-4.5-1.2-8.6-0.3-11.6,3.4c-2.9,3.6-3.2,7.8-1.5,12.1
		c2.6,6.4,6.2,12.2,9.9,18.1c3.8-6.1,7.5-12.1,10.1-18.7C223.1,133.9,223.2,131.8,222.8,129.6z M208.3,131.9c0-2.1,1.8-3.8,3.8-3.7
		c2.1,0,3.8,1.8,3.8,3.9c0,2.1-1.8,3.7-3.9,3.7C210,135.7,208.3,133.9,208.3,131.9z"/>
</g>
<g>
	<path class="st2" d="M172.8,143.3c0-2.1-1.6-3.9-3.8-3.9c-2.1,0-3.8,1.7-3.8,3.7c0,2,1.7,3.8,3.7,3.8
		C171.1,147,172.8,145.3,172.8,143.3z"/>
	<path class="st3" d="M179.7,140.8c-0.8-4.3-3.2-7.3-7.5-8.4c-4.5-1.2-8.6-0.3-11.6,3.4c-2.9,3.6-3.2,7.8-1.5,12.1
		c2.6,6.4,6.2,12.2,9.9,18.1c3.8-6.1,7.5-12.1,10.1-18.7C180,145.1,180.1,143,179.7,140.8z M165.2,143.1c0-2.1,1.8-3.8,3.8-3.7
		c2.1,0,3.8,1.8,3.8,3.9c0,2.1-1.8,3.7-3.9,3.7C166.9,146.9,165.2,145.2,165.2,143.1z"/>
</g>
<g>
	<path class="st2" d="M143.4,134c0-2.1-1.6-3.9-3.8-3.9c-2.1,0-3.8,1.7-3.8,3.7c0,2,1.7,3.8,3.7,3.8
		C141.7,137.7,143.4,136.1,143.4,134z"/>
	<path class="st3" d="M150.3,131.6c-0.8-4.3-3.2-7.3-7.5-8.4c-4.5-1.2-8.6-0.3-11.6,3.4c-2.9,3.6-3.2,7.8-1.5,12.1
		c2.6,6.4,6.2,12.2,9.9,18.1c3.8-6.1,7.5-12.1,10.1-18.7C150.6,135.9,150.7,133.8,150.3,131.6z M135.8,133.9c0-2.1,1.8-3.8,3.8-3.7
		c2.1,0,3.8,1.8,3.8,3.9c0,2.1-1.8,3.7-3.9,3.7C137.5,137.7,135.8,135.9,135.8,133.9z"/>
</g>
</svg>
