<?xml version="1.0" encoding="utf-8"?>
<!-- Generator: Adobe Illustrator 23.0.2, SVG Export Plug-In . SVG Version: 6.00 Build 0)  -->
<svg version="1.1" id="Layer_1" xmlns="http://www.w3.org/2000/svg" xmlns:xlink="http://www.w3.org/1999/xlink" x="0px" y="0px"
	 viewBox="0 0 236.9 254" style="enable-background:new 0 0 236.9 254;" xml:space="preserve">
<style type="text/css">
	.st0{fill:#E6E6E6;stroke:#023F2C;stroke-width:0.25;}
	.st1{fill:#002C1B;}
	.st2{fill:#FFFFFF;}
	.st3{fill:#023F2C;}
</style>
<g>
	<path class="st0" d="M112.2,137.1c0-0.5-0.2-0.9-0.6-1.2c-0.4-0.3-0.9-0.4-1.6-0.4h-2.6v3.5h2.6c0.7,0,1.2-0.2,1.6-0.5
		C112,138.1,112.2,137.6,112.2,137.1z"/>
	<path class="st0" d="M223.1,57.2c-0.8-0.5-2.8-0.3-3.7-0.6c-1.2-0.3-3.6-1.5-4.8-1.9c-1.1-0.4-3.4-1.2-4.6-1.2
		c-1,0-2.9,0.5-3.9,0.8c-0.9,0.3-2.5,1.3-3.4,1.3c-1.4,0-3.7-1.7-5.1-1.9c-1-0.2-3.2,0.1-4.2-0.2c-0.6-0.2-1.5-1.1-2.1-1.4
		c-0.5-0.2-1.6-0.2-1.9-0.6c-0.3-0.4-0.2-1.6-0.2-2.1c0-0.6,0.8-2.1,0.4-2.6c-0.5-0.7-2.8,0.2-3.5-0.3c-1-0.7-1.9-3.2-2.1-4.4
		c-0.2-1.4,0.8-4.1,0.7-5.5c0-0.8-0.2-2.3-0.6-3c-0.3-0.5-1.2-1.1-1.7-1.3c-1.6-0.6-5-0.5-6.6-0.5c-1.6,0-4.8,0.5-6.3,0.7
		c-1.3,0.2-3.9,0.9-5.3,1c-0.9,0-2.6-0.1-3.4-0.4c-1.1-0.3-3-1.7-4-2.2c-1-0.5-3.3-1-4.3-1.5c-0.7-0.3-2-0.9-2.6-1.3
		c-1.1-0.7-2.9-2.6-3.8-3.5c-0.9-0.8-2.6-2.6-3.7-3c-1.1-0.4-3.6-0.3-4.7-0.1c-1,0.3-2.8,1.7-3.8,2.1c-0.6,0.2-1.8,0.6-2.4,0.7
		c-0.5,0.1-1.5,0.1-1.9-0.1c-1-0.4-2.6-2.1-3.4-2.9c-0.8-0.9-2-2.9-2.8-3.8c-0.7-0.8-2.2-2.3-3.1-2.8c-1-0.5-3.3-0.7-4.4-0.8
		c-1.3-0.1-3.9,0.2-5.1,0.2c-1.1,0-3.4,0.2-4.4-0.3c-1.4-0.5-3.2-3-4.5-3.8c-1.4-0.9-4.4-2.1-5.9-2.8C95,7.4,93,6.4,92,6
		c-0.8-0.3-2.5-0.9-3.3-1C88,5,86.6,5.5,85.9,5.4c-0.9-0.1-2.7-0.9-3.5-1.3c-0.9-0.4-2.4-1.6-3.3-1.8c-0.8-0.2-2.6,0.4-3.4,0.2
		c-0.7-0.2-1.8-1.4-2.5-1.7c-0.6-0.3-2-0.5-2.6-0.6C68,0.1,63,0.5,60.5,0.5c-1.5,0-3.9,0.1-6.1,0.1c0.1,0.9,0.4,2.2,0.8,2.8
		c0.4,0.6,1.4,1.5,2,1.8c0.4,0.3,1.5,0.5,2,0.6c1,0.2,3,0.2,3.9,0.1c0.8-0.1,2.4-1.2,3-0.7c0.4,0.3,0.1,1.5-0.1,2
		c-0.2,0.6-1,1.7-1.5,2.1c-0.5,0.4-2,0.6-2.5,1c-0.5,0.4-1.3,1.4-1.5,2c-0.2,0.5,0,1.6-0.2,2.1c-0.2,0.7-1.1,2.1-1.3,2.8
		c-0.2,0.5-0.7,1.7-0.4,2.2c0.1,0.3,0.8,0.4,1.1,0.6c0.3,0.1,0.9,0.3,1.1,0.5c0.4,0.4,0.7,1.6,0.8,2.1c0.2,0.9,0.3,2.7,0.1,3.6
		c-0.2,0.9-1.1,2.5-1.5,3.3c-0.4,0.7-1.3,1.9-1.6,2.5c-0.3,0.5-0.7,1.6-0.8,2.2c-0.2,0.5-0.3,1.5-0.5,2c-0.2,0.5-0.8,1.5-1.2,1.9
		c-0.4,0.4-1.3,1.2-1.8,1.4c-0.4,0.1-1.3,0.1-1.8,0c-0.5-0.1-1.3-0.8-1.8-0.8c-0.2,0-0.6,0.4-0.7,0.6c-0.1,0.6,0.7,1.5,1,2
		c0.5,1,1.8,2.8,2.2,3.8c0.3,0.7,0.9,2.2,0.8,2.9c-0.1,0.4-0.7,1.2-0.9,1.5c-0.2,0.3-0.7,0.7-0.8,1c-0.2,0.6,0.1,2,0.1,2.6
		c0.1,0.6,0.1,1.8,0.4,2.2c0.3,0.4,1.3,0.7,1.7,1c0.3,0.3,0.7,1,0.9,1.4c0.2,0.5,0.4,1.6,0.4,2.1c0.1,0.9,0.1,2.7,0,3.6
		c-0.1,0.5-0.5,1.6-0.4,2.1c0.1,0.6,1.1,1.6,1.5,2.2c0.3,0.5,1,1.5,1.3,2c0.3,0.5,0.6,1.6,1,1.9c0.3,0.2,1.1,0.2,1.5,0.1
		c0.5-0.1,1.2-0.9,1.7-1c0.4-0.1,1.1-0.1,1.5,0.1c0.4,0.2,1,1,1.3,1.3c0.3,0.3,0.8,1,1.1,1c0.4-0.1,0.6-1.1,0.9-1.5
		c0.4-0.6,1.2-1.8,1.8-2.1c0.4-0.2,1.5-0.4,2-0.2c0.2,0.1,0.5,0.7,0.6,0.9c0.2,0.6-0.1,1.9-0.1,2.6c0,1.2-0.2,3.7,0,4.8
		c0.1,0.6,0.6,1.7,0.9,2.3c0.5,0.9,1.8,2.6,2.5,3.4c0.6,0.8,2,2.1,2.6,2.9c0.4,0.7,1.1,2.2,1.2,3c0.2,0.7,0.1,2.2,0.1,2.9
		c0,0.5,0,1.5,0.2,1.9c0.3,0.6,1.6,1.4,2,1.9c0.9,1,2.4,3.1,3.2,4.2c0.3,0.4,0.8,1.1,0.9,1.6c0.3,0.6,0.8,1.9,0.6,2.6
		c-0.1,0.5-0.9,1.2-1.2,1.6c-0.4,0.5-1.2,1.4-1.6,1.8c-0.5,0.4-1.4,1.2-2,1.2c-0.4,0.1-1.3-0.5-1.7-0.5c-0.5-0.1-1.5-0.2-2,0
		c-0.3,0.1-0.7,0.5-0.9,0.8c-0.2,0.5-0.2,1.6-0.2,2.1c0,0.6-0.1,2,0.2,2.6c0.3,0.5,1.3,1.1,1.9,1.4c0.7,0.4,2.3,0.8,3,0.9
		c0.6,0.1,1.8-0.1,2.3,0.1c0.7,0.2,2.1,0.8,2.6,1.4c0.4,0.6,0.6,2.1,0.7,2.8c0.1,0.8,0.1,2.3,0,3c-0.1,0.6-0.2,1.9-0.6,2.4
		c-0.9,1.3-4,2.8-5.3,3.8c-0.6,0.5-1.9,1.3-2.3,1.9c-0.5,0.8-0.7,2.7-0.8,3.6c-0.1,0.8-0.3,2.5,0,3.3c0.2,0.6,0.9,1.5,1.2,1.9
		c0.4,0.6,1.7,1.4,2,2.1c0.2,0.4,0.1,1.4-0.1,1.8c-0.1,0.4-0.5,1.1-0.8,1.3c-0.5,0.3-1.8,0.1-2.4,0.1c-1.2,0.1-3.7,0.3-4.9,0.5
		c-0.9,0.1-2.7,0.2-3.5,0.6c-0.7,0.3-1.9,1.3-2.2,2c-0.5,0.9-0.4,3-0.6,3.9c-0.2,1.2-0.6,3.5-1,4.7c-0.3,1.1-1.1,3.3-1.5,4.4
		c-0.3,0.8-1,2.3-1.2,3.1c-0.1,0.5-0.1,1.4-0.2,1.9c-0.1,0.6-0.2,1.9-0.3,2.5c-0.1,0.5-0.2,1.6-0.6,1.8c-0.4,0.2-1.3-0.4-1.6-0.6
		c-0.3-0.2-0.9-0.6-1.1-1c-0.3-0.5,0-1.8-0.2-2.4c-0.2-0.5-0.9-1.5-1.3-1.8c-0.5-0.2-1.6,0-2.1,0c-0.7,0-2.2,0.3-2.7,0
		c-0.5-0.3-0.9-1.5-1-2.1c-0.1-0.5,0-1.6-0.2-2.1c-0.2-0.5-1.1-1.4-1.5-1.8c-0.6-0.5-2.1-1.1-2.8-1.5c-0.7-0.4-1.9-1.6-2.7-1.4
		c-0.3,0.1-0.6,0.6-0.7,0.8c-0.2,0.5-0.2,1.7-0.3,2.2c-0.1,0.5-0.5,1.5-0.8,1.9c-0.5,0.5-2,0.9-2.7,1c-1,0.2-3,0.1-4,0.1
		c-1.3,0-3.8-0.1-5.1-0.1c-0.9,0-2.8-0.2-3.7,0.1c-0.8,0.2-2.3,1.2-2.8,1.8c-0.5,0.7-0.7,2.4-1,3.1c-0.2,0.4-0.4,1.5-0.8,1.7
		c-0.5,0.2-1.5-0.7-2.1-0.7c-0.6-0.1-2-0.1-2.5,0.3c-0.5,0.4-0.8,1.6-0.9,2.2c-0.1,0.7,0.1,2.3,0,3c-0.1,0.6-0.5,1.8-0.9,2.2
		c-0.3,0.4-1,1-1.5,1.1c-0.6,0.2-2,0.3-2.6,0.1c-0.9-0.2-2.3-1.5-3.1-1.9c-0.6-0.3-1.8-0.9-2.4-1c-0.9-0.2-2.7-0.3-3.5,0.1
		c-0.5,0.3-1.5,1.3-1.6,1.9c-0.1,0.6,0.6,1.9,0.9,2.4c0.4,0.7,1.6,1.8,1.9,2.4c0.3,0.6,0.8,2,0.8,2.6c0,0.7-0.4,2-0.6,2.6
		c-0.2,0.9-1,2.7-1,3.6c0,0.7,0.2,2.2,0.6,2.8c0.4,0.6,1.7,1.1,2.2,1.6c0.4,0.4,1,1.3,1.1,1.9c0.1,0.4,0,1.2-0.2,1.6
		c-0.2,0.3-0.9,0.6-1.3,0.6c-0.4,0-1-0.4-1.3-0.4c-0.3,0-1,0.3-1,0.3l1.4,4.4l-5,1.3v5.1l5.2,1.1l0.2,3.1l-4.8,2.5l0.3,13l15.7,18.6
		c0,0,0.3-0.3,0.8-0.8c1.4-1.4,4.2-4.3,5.6-5c0.9-0.4,3-0.4,3.9-0.7c0.6-0.2,2-0.9,2.3-1.5c0.3-0.4,0.2-1.5,0.2-2
		c-0.1-0.6-0.6-1.7-0.8-2.2c-0.3-0.7-1.3-1.8-1.6-2.4c-0.3-0.5-0.8-1.6-0.9-2.1c-0.2-0.7-0.2-2.3,0-3c0.2-0.7,0.7-2.1,1.3-2.4
		c0.5-0.2,1.7,0.1,2.2,0.3c0.5,0.2,1.5,0.7,1.9,1c0.7,0.5,1.9,1.7,2.6,2.1c0.7,0.5,2.2,1.9,3.1,1.8c0.5-0.1,1.1-1.1,1.5-1.5
		c0.5-0.5,2.1-2.2,2.1-2.2l7.5-0.2c0,0,0.8,0.5,1,0.7c0.6,0.5,1.7,1.8,2.4,1.9c0.8,0.2,2.5-0.5,3.3-0.8c0.7-0.3,2-1.1,2.6-1.5
		c0.7-0.4,2.1-1.2,2.6-1.8c0.4-0.4,0.7-1.6,0.9-2.1c0.4-0.8,1.2-2.2,1.7-3c0.4-0.5,1.1-1.6,1.6-2c0.5-0.4,1.7-1.1,2.3-1.1
		c0.5,0,1.5,0.3,1.9,0.6c0.7,0.5,1.5,2.1,2.1,2.6c0.4,0.4,1.2,1.3,1.7,1.3c0.5,0,1.4-0.7,1.8-0.9c0.5-0.2,1.4-0.9,1.9-1
		c0.6-0.1,1.7,0.2,2.3,0.4c0.6,0.2,1.6,1,2.1,1.2c1,0.4,3,1,4,1c0.5,0,1.4-0.3,1.9-0.4c0.5-0.1,1.5-0.6,2-0.6c0.4,0,1.2,0.2,1.6,0.4
		c0.4,0.2,1.1,0.7,1.2,1.1c0.1,0.5-0.7,1.3-1,1.7c-0.5,0.7-2.1,2.5-2.1,2.5l-0.4,7.9c1.7-0.4,4.4-1,5.4-1.5c1.4-0.7,3.6-2.9,4.7-3.9
		c1.1-1.1,3.1-3.6,4.3-4.6c0.6-0.6,1.9-1.9,2.8-2.2c0.6-0.2,1.9-0.1,2.5-0.2c1-0.1,3.1-0.3,4.1-0.7c1.4-0.5,3.7-2.3,4.8-3.3
		c1-0.8,2.8-2.4,3.5-3.5c0.5-0.7,0.9-2.5,1.4-3.2c0.7-0.9,2.6-2.2,3.5-3c1.3-1.1,3.6-3.6,5.2-4.2c0.5-0.2,1.5,0.3,1.9,0.1
		c0.4-0.2,0.7-1.2,0.9-1.7c0.5-1.1,1.1-3.4,1.4-4.5c0.2-0.8,0.2-2.6,0.6-3.4c0.3-0.6,1.4-1.7,2.1-2c0.8-0.4,2.7-0.5,3.7-0.5
		c0.6,0,1.7,0.6,2.2,0.3c0.5-0.3,0.7-2.4,0.7-2.4l4.8-2.7l5.7,3.6l2.8-2.8l5.1-0.2l1.4-3.5l4.1-1.5l2.1,5.6l4.2,0.2l0.3-0.1l2.6-1.3
		l0.5-2l-3.1-2.2l-3-2.1l-0.5-2.3c0,0,1.5-1.3,1.9-1.7c1.1-1.1,3.4-3.3,4.3-4.6c0.7-0.9,1.9-2.9,2.3-3.9c0.3-0.8,0.3-2.4,0.3-3.3
		c0-1-0.5-2.9-0.4-3.9c0.1-0.7,0.7-1.8,0.8-2.5c0.1-0.7,0-2-0.1-2.6c-0.2-0.8-1.1-2.1-1.1-2.9c0-0.6,0.3-1.7,0.5-2.2
		c0.2-0.6,1.3-1.5,1.4-2.1c0.1-0.6-0.6-1.7-0.8-2.3c-0.4-0.8-1.3-2.5-1.8-3.3c-0.3-0.5-1.3-1.4-1.2-1.9c0.1-0.4,1.2-0.6,1.4-1
		c0.2-0.5,0-1.7-0.1-2.3c-0.2-0.9-0.7-2.7-1.1-3.5c-0.4-0.8-2-1.9-2-2.8c0-0.5,0.7-1.5,1.1-1.8c0.5-0.4,1.7-0.7,2.3-1
		c1-0.4,2.8-1.4,3.9-1.5c0.5-0.1,1.5,0.3,2,0.1c0.6-0.2,1.4-1.3,1.5-1.9c0.1-0.3-0.2-0.9-0.3-1.2c-0.1-0.6-0.3-1.9,0-2.4
		c0.2-0.5,1.2-0.9,1.5-1.3c0.3-0.3,0.6-1.1,0.8-1.5c0.3-0.5,1-1.3,1.1-1.9c0.2-0.6-0.2-2.1,0-2.7c0.2-0.6,1.6-1.9,1.6-1.9l8.8-7.7
		l-0.5-12.5l2.8-0.3c0,0,0.9-0.4,1.2-0.6c0.5-0.3,1.8-0.7,2.1-1.2c0.3-0.5,0.4-1.8,0.2-2.4c-0.1-0.5-0.8-1.3-1.2-1.7
		c-0.4-0.3-1.5-0.4-1.7-0.9c-0.3-0.8,0.8-2.5,1-3.4c0.2-0.9,0.2-3,0.7-3.8c0.3-0.5,1.2-1.6,1.8-1.6c0.5,0,1.4,0.9,1.7,1.2
		c0.7,0.7,1.6,2.6,2.2,3.5c0.4,0.6,1.8,2.3,1.8,2.3l1.5-1.4l1.6-10.1l2.3-0.5l1.7-3.3l1.2-1.3c-0.1-0.1-0.1-0.2-0.1-0.3
		c-0.1-0.5,0.5-1.5,0.8-1.9c0.5-1,2-2.9,2.6-3.8c0.6-0.8,2.3-2.3,2.3-3.3C224.7,58.5,223.6,57.5,223.1,57.2z M112.3,143.1l-2.5-3.3
		h-2.4v3.3h-1v-8.6h3.7c1.1,0,1.9,0.3,2.4,0.9c0.4,0.4,0.7,1,0.7,1.7c0,0.7-0.2,1.2-0.6,1.7s-1,0.7-1.7,0.8l2.6,3.5H112.3z
		 M117.5,143.1h-1v-8.6h1V143.1z M125,143.1h-0.9l-3.7-8.6h1.1l3,7.4l3.1-7.4h1L125,143.1z M138.9,143.1h-0.8l-5.5-7v7h-0.9v-8.6
		h0.9l5.4,6.9v-6.9h0.9V143.1z M148.8,143.1h-6.2v-8.6h6.2v0.9h-5.2v2.9h4.7v0.9h-4.7v3h5.3V143.1z"/>
	<path class="st1" d="M112.5,138.7c0.4-0.4,0.6-1,0.6-1.7c0-0.7-0.2-1.3-0.7-1.7c-0.6-0.6-1.4-0.9-2.4-0.9h-3.7v8.6h1v-3.3h2.4
		l2.5,3.3h1.2l-2.6-3.5C111.5,139.4,112.1,139.2,112.5,138.7z M107.4,138.9v-3.5h2.6c0.7,0,1.2,0.1,1.6,0.4c0.4,0.3,0.6,0.7,0.6,1.2
		c0,0.6-0.2,1-0.6,1.3c-0.4,0.3-0.9,0.5-1.6,0.5H107.4z"/>
	<rect x="116.5" y="134.5" class="st1" width="1" height="8.6"/>
	<polygon class="st1" points="124.6,141.9 121.6,134.5 120.5,134.5 124.2,143.1 125,143.1 128.7,134.5 127.7,134.5 	"/>
	<polygon class="st1" points="137.9,141.4 132.5,134.5 131.6,134.5 131.6,143.1 132.6,143.1 132.6,136 138.1,143.1 138.9,143.1 
		138.9,134.5 137.9,134.5 	"/>
	<polygon class="st1" points="143.5,139.2 148.1,139.2 148.1,138.3 143.5,138.3 143.5,135.4 148.7,135.4 148.7,134.5 142.5,134.5 
		142.5,143.1 148.8,143.1 148.8,142.2 143.5,142.2 	"/>
</g>
<g>
	<path class="st2" d="M92.1,164.7c0-2.1-1.6-3.9-3.8-3.9c-2.1,0-3.8,1.7-3.8,3.7c0,2,1.7,3.8,3.7,3.8
		C90.3,168.4,92,166.8,92.1,164.7z"/>
	<path class="st3" d="M99,162.3c-0.8-4.3-3.2-7.3-7.5-8.4c-4.5-1.2-8.6-0.3-11.6,3.4c-2.9,3.6-3.2,7.8-1.5,12.1
		c2.6,6.4,6.2,12.2,9.9,18.1c3.8-6.1,7.5-12.1,10.1-18.7C99.2,166.6,99.4,164.5,99,162.3z M84.5,164.6c0-2.1,1.8-3.8,3.8-3.7
		c2.1,0,3.8,1.8,3.8,3.9c0,2.1-1.8,3.7-3.9,3.7C86.1,168.4,84.4,166.6,84.5,164.6z"/>
</g>
</svg>
