<?xml version="1.0" encoding="utf-8"?>
<!-- Generator: Adobe Illustrator 23.0.2, SVG Export Plug-In . SVG Version: 6.00 Build 0)  -->
<svg version="1.1" id="Layer_1" xmlns="http://www.w3.org/2000/svg" xmlns:xlink="http://www.w3.org/1999/xlink" x="0px" y="0px"
	 viewBox="0 0 222.7 238.5" style="enable-background:new 0 0 222.7 238.5;" xml:space="preserve">
<style type="text/css">
	.st0{fill:#E6E6E6;stroke:#023F2C;stroke-width:0.25;}
	.st1{fill:#002C1B;}
	.st2{fill:#FFFFFF;}
	.st3{fill:#023F2C;}
</style>
<g>
	<polygon class="st0" points="141.8,133.9 145.7,133.9 143.8,129.5 	"/>
	<path class="st0" d="M219,183.7l3-2.4l-1.8-6.2v-4.6l-1.9-1.1l-1.5-3.3l-0.2-3l-8.4-6.6l4-3.8L200,140l-0.5-10l-1.9-0.8l-6.4,3.7
		l-2.5-5.5l7.1-4.9l-1.3-5.3l-3.7,0.3l0.1-8.5l4.1-2.1l4.9-5.1l-3.9-10.5l3.3-0.5l0.8-0.1l-0.1-2.9l-5.1,0.1l-1.3-2.2l-0.1-6.2
		l-4.9,0.6l-7.8-11l8.4-6.1l-8.2-19.7l2.7-3l-3-4.1l-7.2-2.8l0.4,5.1l-1,1.1l-2.1-2.2l-6.2,2.5l1.5,2.7l-2.1,1.2l-4.1-1.2l-19.2-0.1
		l-1.1-2l3.1-5l-6-5.6l5.2-7l-3.3-6.4l2.8-5.2L131.7,1l-6.3,8.6L121,9.9l1,6.9l-5.2-0.6l-1.9-4.2l-5.6,0.1l-2.2,7l-3.8-5.5L98,13.3
		l-1.8-3.7l-2.4-0.7l-0.5,6.7l-2,0.4l-8.8-4.4c0,0-3.1,2.3-4.3,2.8c-1.7,0.7-5.3,1.6-7.2,1.8c-2.3,0.3-6.9,0.4-9.2,0.2
		c-1.4-0.2-4.2-1-5.7-1.3c-0.9-0.2-2.8-0.9-3.7-1c-0.9,0-2.8,0.4-3.7,0.7c-0.9,0.3-2.8,0.9-3.6,1.4c-0.5,0.3-1.7,1.6-1.7,1.6
		l-0.8,0.2l1.1,4.5l-3.9,1.9l-0.8,5.2l4.6,1.9L43,33.3l-3.3-0.2L33.8,42l4.1,2.1l-0.3,6.7l-4.2,2.3l2.2,4.2l5.8,0.7l1.7,3.9
		l-4.8,3.2l3,5.3l-0.9,4.9l-0.2,9.1l4.9,2l-1.9,3.8l-4.6-1.6l-3.6,5.4L29,91.3l-5.3-1.4l-5.1-0.7l-0.1,2.2h-1.3l-6.7,3
		c0,0-0.5,1.2-0.5,1.7c0,0.6,0.8,1.6,0.8,2.2c0,0.6-0.6,1.6-0.7,2.2c-0.1,0.6,0.5,1.9,0.2,2.4c-0.2,0.3-1.1,0.6-1.1,0.6l-7.6,7.5
		c0,0-0.7,8.2-0.6,11c0.1,2.8,0.6,8.3,1.2,11c0.4,1.9,2.3,7.5,2.3,7.5l-3.5,2.3l0.8,5.8c0,0,0.1,2.6,0.1,3.5c0,1-0.3,3-0.1,3.9
		c0.2,1.1,1.1,3,1.5,4c0.3,0.7,0.8,2.1,1.1,3c0.1,0.2,0.1,0.3,0.2,0.4c0.3,0.7,0.9,2,1,2.7c0.2,1.2-0.3,3.7-0.1,4.9
		c0.3,1.3,1.6,3.5,2.3,4.6c0.4,0.6,1.5,1.9,2.1,2.7c0.6-0.5,1.4-1.5,1.9-1.8c0.5-0.2,1.8-0.3,2.4-0.2c0.9,0.1,2.6,0.5,3.3,1
		c0.8,0.5,1.6,2.2,2.3,2.8c0.5,0.5,1.5,1.3,2.1,1.6c1.3,0.6,4.3,1.1,5.7,1.5c1.1,0.2,3.2,0.5,4.2,0.9c0.9,0.4,2.6,1.4,3.4,2
		c1,0.9,2.7,3.1,3.6,4.1c1.1,1.1,3.2,3.5,4.4,4.5c1,0.9,3.1,2.5,4.2,3.3c1,0.7,3.2,1.8,4.1,2.7c0.6,0.6,1.5,2,1.8,2.8
		c0.4,0.9,0.6,3.1,1.2,3.9c0.3,0.5,1.3,1.5,1.9,1.7c0.8,0.3,2.4-0.2,3.2-0.2c0.8,0,2.6-0.3,3.4-0.1c0.8,0.2,2.4,1,3,1.6
		c0.7,0.7,1.2,2.7,1.9,3.3c0.4,0.4,1.5,1,2.1,0.8c0.7-0.2,1.2-1.9,1.8-2.3c0.7-0.4,2.2-0.5,3-0.4c0.6,0.1,2,0.5,2.4,1
		c0.5,0.8-0.2,2.8-0.3,3.7c-0.1,0.6-0.7,1.7-0.6,2.2c0.2,0.7,1.5,1.6,2.1,1.9c0.7,0.2,2.1-0.2,2.8-0.1c0.6,0.1,1.8,0.2,2.1,0.7
		c0.5,0.6,0,2.4,0.1,3.2c0.1,0.9,0.5,2.7,1,3.4c0.6,0.8,2.5,2.2,3.6,2.3c0.5,0,1.6-0.4,1.9-0.8c0.5-0.6,0.3-2.4,0.5-3.2
		c0.1-0.5,0.1-1.6,0.4-1.9c0.4-0.4,1.6-0.6,2.1-0.8c0.9-0.3,2.6-0.8,3.5-1.1c0.8-0.2,2.5-1,3.3-0.9c1,0.1,2.8,1.2,3.7,1.6
		c1,0.5,2.9,1.5,3.9,1.9c1.4,0.6,4.5,1.3,6,1.7c0.9,0.3,2.9,0.8,3.7,1.3c0.5,0.3,1.4,1.1,1.7,1.6c0.6,0.9,1.4,3,1.7,4
		c0.1,0.2,0.2,0.5,0.2,0.8l6.5-0.4l2.8-10l5.4-0.2l4.8-7.3l9.1,9.8l2.8,0.3l6.2,8.1l15.4-3.9l2,4.4l6.8,0.3l1.1-5.2l8,1.3l0.1,5.3
		l3.9,0.6l-0.1-8l-5.5-6l3.5-3.2l3.4,2.7l4.1-4.6l0-0.6l-0.2-3.8l-3.9-3l11-14.6l-0.8-3.3l3.2-2.7l4.2,2.1l3.2-4.7l1.5-1.2l0-0.2
		L219,183.7z M79.2,137.1h-0.9l-3.7-8.6h1.1l3,7.4l3.1-7.4h1L79.2,137.1z M86.8,137h-1v-8.6h1V137z M97.8,137H97l-5.5-7v7h-0.9v-8.6
		h0.9l5.4,6.9v-6.9h0.9V137z M108.7,137h-0.8l-5.5-7v7h-0.9v-8.6h0.9l5.4,6.9v-6.9h0.9V137z M116,133.6v3.4h-1v-3.4l-3.6-5.2h1.2
		l2.9,4.3l2.9-4.3h1.1L116,133.6z M128.4,129.3h-2.9v7.7h-1v-7.7h-2.9v-0.9h6.7V129.3z M136.3,136.5c-0.5,0.4-1.2,0.7-2.1,0.7
		c-1.3,0-2.5-0.5-3.5-1.4l0.6-0.7c0.5,0.4,0.9,0.7,1.4,0.9c0.5,0.2,1,0.3,1.6,0.3c0.6,0,1-0.1,1.4-0.4s0.5-0.6,0.5-1.1
		c0-0.4-0.2-0.7-0.5-1c-0.3-0.2-0.9-0.5-1.8-0.6c-1-0.2-1.8-0.5-2.2-0.9s-0.7-0.9-0.7-1.6c0-0.7,0.3-1.2,0.8-1.7
		c0.5-0.4,1.2-0.7,2-0.7c1.1,0,2.1,0.4,3,1.1l-0.6,0.7c-0.8-0.6-1.6-0.9-2.5-0.9c-0.5,0-1,0.1-1.3,0.4c-0.3,0.3-0.5,0.6-0.5,1
		c0,0.4,0.2,0.8,0.5,1c0.3,0.2,0.9,0.5,1.8,0.7c1,0.2,1.7,0.5,2.1,0.9s0.7,0.9,0.7,1.6C137.1,135.4,136.9,136,136.3,136.5z
		 M147.1,137l-1-2.3h-4.7l-1,2.3h-1l3.9-8.6h0.9l3.9,8.6H147.1z"/>
	<polygon class="st1" points="78.8,135.8 75.7,128.4 74.7,128.4 78.3,137.1 79.2,137.1 82.9,128.4 81.8,128.4 	"/>
	<rect x="85.9" y="128.4" class="st1" width="1" height="8.6"/>
	<polygon class="st1" points="96.9,135.3 91.5,128.4 90.6,128.4 90.6,137 91.5,137 91.5,130 97,137 97.8,137 97.8,128.4 96.9,128.4 
			"/>
	<polygon class="st1" points="107.8,135.3 102.4,128.4 101.5,128.4 101.5,137 102.4,137 102.4,130 107.9,137 108.7,137 108.7,128.4 
		107.8,128.4 	"/>
	<polygon class="st1" points="115.5,132.7 112.6,128.4 111.5,128.4 115,133.6 115,137 116,137 116,133.6 119.6,128.4 118.4,128.4 	
		"/>
	<polygon class="st1" points="121.7,129.3 124.6,129.3 124.6,137 125.6,137 125.6,129.3 128.4,129.3 128.4,128.4 121.7,128.4 	"/>
	<path class="st1" d="M134.3,132.3c-0.9-0.2-1.5-0.4-1.8-0.7c-0.3-0.2-0.5-0.6-0.5-1c0-0.4,0.2-0.7,0.5-1c0.3-0.3,0.8-0.4,1.3-0.4
		c0.9,0,1.7,0.3,2.5,0.9l0.6-0.7c-0.9-0.7-1.9-1.1-3-1.1c-0.8,0-1.5,0.2-2,0.7c-0.5,0.4-0.8,1-0.8,1.7c0,0.7,0.2,1.2,0.7,1.6
		s1.2,0.7,2.2,0.9c0.9,0.2,1.5,0.4,1.8,0.6c0.3,0.2,0.5,0.6,0.5,1c0,0.4-0.2,0.8-0.5,1.1s-0.8,0.4-1.4,0.4c-0.6,0-1.1-0.1-1.6-0.3
		c-0.5-0.2-0.9-0.5-1.4-0.9l-0.6,0.7c1,0.9,2.2,1.4,3.5,1.4c0.9,0,1.6-0.2,2.1-0.7s0.8-1,0.8-1.8c0-0.7-0.2-1.2-0.7-1.6
		S135.3,132.5,134.3,132.3z"/>
	<path class="st1" d="M143.3,128.4l-3.9,8.6h1l1-2.3h4.7l1,2.3h1l-3.9-8.6H143.3z M141.8,133.9l2-4.4l1.9,4.4H141.8z"/>
</g>
<g>
	<path class="st2" d="M67.5,81.9c0-2.1-1.6-3.9-3.8-3.9c-2.1,0-3.8,1.7-3.8,3.7c0,2,1.7,3.8,3.7,3.8C65.7,85.6,67.4,84,67.5,81.9z"
		/>
	<path class="st3" d="M74.4,79.5c-0.8-4.3-3.2-7.3-7.5-8.4c-4.5-1.2-8.6-0.3-11.6,3.4c-2.9,3.6-3.2,7.8-1.5,12.1
		c2.6,6.4,6.2,12.2,9.9,18.1c3.8-6.1,7.5-12.1,10.1-18.7C74.6,83.8,74.8,81.7,74.4,79.5z M59.9,81.7c0-2.1,1.8-3.8,3.8-3.7
		c2.1,0,3.8,1.8,3.8,3.9c0,2.1-1.8,3.7-3.9,3.7C61.5,85.5,59.8,83.8,59.9,81.7z"/>
</g>
</svg>
