<?xml version="1.0" encoding="utf-8"?>
<!-- Generator: Adobe Illustrator 23.0.2, SVG Export Plug-In . SVG Version: 6.00 Build 0)  -->
<svg version="1.1" id="Layer_1" xmlns="http://www.w3.org/2000/svg" xmlns:xlink="http://www.w3.org/1999/xlink" x="0px" y="0px"
	 viewBox="0 0 176.5 233.2" style="enable-background:new 0 0 176.5 233.2;" xml:space="preserve">
<style type="text/css">
	.st0{fill:#E6E6E6;stroke:#023F2C;stroke-width:0.25;}
	.st1{fill:#002C1B;}
	.st2{fill:#023F2C;}
</style>
<g>
	<polygon class="st0" points="67.3,114.8 71.2,114.8 69.2,110.4 	"/>
	<path class="st0" d="M104.2,101.5c0.6-0.7,0.9-1.5,0.9-2.5c0-1-0.3-1.8-1-2.5c-0.6-0.7-1.4-1-2.4-1c-1,0-1.8,0.3-2.4,1
		c-0.6,0.7-0.9,1.5-0.9,2.5c0,1,0.3,1.8,1,2.5c0.6,0.7,1.4,1,2.4,1C102.7,102.5,103.5,102.2,104.2,101.5z"/>
	<polygon class="st0" points="77.7,100.1 81.6,100.1 79.6,95.8 	"/>
	<path class="st0" d="M171.3,143.6c-0.1-1.7,0-5-0.2-6.7c-0.1-1.5-0.8-4.3-1-5.8c-0.1-1.4-0.1-4.3,0-5.7c0-0.6,0.2-2.6,0.2-2.6
		l6.2-2.6c-0.4-0.3-0.7-0.7-0.9-0.9c-0.9-1.1-2.4-3.7-2.8-5.1c-0.2-0.7,0.1-2.3,0-3c-0.1-1.1-0.3-3.4-1-4.4
		c-0.4-0.5-1.5-1.2-2.1-1.5c-0.7-0.3-2.4-0.2-3.2-0.4c-0.8-0.3-2.2-1.1-2.8-1.7c-0.5-0.5-1.3-1.6-1.7-2.2c-0.4-0.8-0.8-2.5-1.2-3.3
		c-0.3-0.5-0.9-1.6-1.4-1.9c-0.4-0.4-1.5-1-2.1-1c-0.3,0-0.8,0.5-1,0.7c-0.3,0.4-0.6,1.3-0.9,1.7c-0.3,0.5-1.1,1.5-1.7,1.7
		c-0.4,0.1-1.3-0.2-1.7-0.3c-0.7-0.3-2.1-1.3-2.7-1.8c-0.8-0.6-2.1-2.2-2.9-2.7c-0.7-0.4-2.2-1.1-3-1.2c-0.5-0.1-1.5,0.5-1.9,0.3
		c-0.5-0.3-0.8-1.5-0.8-2c0-0.4,0.5-1.1,0.6-1.5c0.2-0.6,0.8-1.8,0.6-2.4c-0.1-0.5-1-1.5-1.6-1.6c-0.5,0-1.2,0.8-1.5,1.1
		c-0.3,0.4-0.7,1.3-1.1,1.7c-0.4,0.3-1.3,0.7-1.7,0.7c-0.6,0-1.7-0.7-2.1-1.2c-0.4-0.5-0.8-1.7-0.9-2.3c-0.1-0.8,0.5-2.5,0.4-3.3
		c-0.1-0.7-0.7-2-1-2.6c-0.2-0.5-0.6-1.6-1-2c-0.7-0.7-2.8-1.1-3.7-1.5c-1-0.4-3.2-1.1-4.1-1.8c-0.6-0.5-1.3-2-1.8-2.6
		c-0.5-0.6-1.7-1.6-2.4-2.1c-0.5-0.3-1.6-0.8-2-1.2c-0.4-0.3-1.1-1.2-1.4-1.7c-0.3-0.5-1.1-1.6-1-2.1c0.1-0.4,0.9-0.8,1.3-1
		c0.5-0.2,1.7,0.2,2.2,0.1c0.5-0.1,1.3-0.7,1.8-0.8c0.5-0.1,1.4-0.2,1.9,0c0.5,0.2,1,1.4,1.5,1.7c0.3,0.2,1.1,0.5,1.4,0.3
		c0.3-0.2,0.5-1.1,0.5-1.5c0-0.6-0.1-1.7-0.3-2.2c-0.4-0.8-1.9-1.9-2.6-2.4c-0.7-0.5-2.3-1.3-3-1.8c-0.7-0.5-2.2-1.5-2.7-2.1
		c-0.5-0.6-1.1-2.1-1.2-2.9c-0.1-0.6-0.2-2,0-2.6c0.3-0.7,1.4-1.6,2-2c1-0.7,3.3-1.3,4.3-1.9c0.5-0.3,1.6-0.8,1.9-1.2
		c0.1-0.3,0.2-1,0-1.2c-0.4-0.5-1.8-0.7-2.4-1c-0.9-0.4-2.8-1.2-3.7-1.6c-0.6-0.3-2.4-1.3-2.4-1.3l-2.1-16.7l-3.3-6.6l0.4-6.2
		L97.5,4.5L93,5.8l-1.7-0.9l-0.8-4.7l-5.4,0.6l-3,6.8l1.5,2.6l-4.3,4.7l1.8,3.9l-0.4,4.8l-2.6,4.4l-4.3-2.1l-2.9,4.3l3.1,2.7
		l0.3,4.2l9.8,1.5l0.8,1.6l-1.5,7.6l-4,0.4l-1.2-3.4h-3.8l-3.6,2l-6.2,2.5l-5.9,1L53.7,49l-4.3-1.9L46.8,49L38,48.7l-5,1L26.3,47
		l-8.1,4.7v2.9l-8.9,7.7L6,71.8l2.2,4.2l-0.1,3.6l-4,1.1L2.4,88l-2.1,6.4c0.6,0.5,1.5,1.1,1.9,1.4c0.6,0.5,1.7,1.5,2.2,2.1
		C4.9,98.3,5.7,99,6,99.4c0.5,0.7,0.9,2.4,1.2,3.2c0.4,0.9,1.5,2.5,2.1,3.3c0.3,0.4,0.8,1.1,1.2,1.3c0.6,0.3,2.1,0.1,2.8,0.1
		c0.8,0,2.5-0.1,3.4-0.1c0.7,0,2.4-0.3,2.9,0.3c0.3,0.4,0,1.5,0,2c0,0.6-0.2,1.9-0.2,2.5c-0.1,0.8-0.2,2.5-0.2,3.4
		c0,0.6,0,1.8,0.1,2.4c0.2,0.5,0.7,1.4,1.1,1.8c0.7,0.7,2.6,1.5,3.5,1.9c0.8,0.4,2.5,0.9,3.3,1.4c0.5,0.3,1.6,0.9,1.9,1.5
		c0.2,0.5,0,1.6-0.1,2.1c-0.1,0.6-0.5,1.9-0.6,2.5c-0.2,1-0.8,3.2-0.3,4.2c0.2,0.4,1,1.1,1.5,1.2c0.5,0.1,1.4-0.5,1.7-0.8
		c0.5-0.4,1.2-1.6,1.5-2.1c0.2-0.4,0.6-1.2,1-1.5c0.3-0.2,1-0.3,1.4-0.3c0.6,0,1.9,0.4,2.5,0.3c0.8-0.2,2-1.3,2.8-1.7
		c0.6-0.3,2-0.7,2.6-0.8c0.6-0.1,1.9-0.3,2.5-0.2c0.6,0.1,1.7,0.6,2.1,1.1c0.4,0.6,0.3,2.2,0.5,2.9c0.1,0.6,0.7,1.6,0.7,2.2
		c0,0.6-0.4,1.7-0.7,2.2c-0.4,0.7-1.6,1.7-1.9,2.4c-0.2,0.4-0.1,1.4,0,1.9c0.1,0.7,0.7,2.1,1,2.8c0.3,0.9,0.7,2.9,1.3,3.7
		c0.7,1,2.9,2.5,4,3c0.8,0.4,2.6,0.9,3.5,1c0.6,0,1.7-0.1,2.1-0.5c0.4-0.3,0.5-1.3,0.8-1.7c0.6-0.5,2.2-1,2.9-1.2
		c0.4-0.1,1.2-0.6,1.6-0.4c0.6,0.2,0.9,1.7,1.2,2.2c0.4,0.7,1.3,1.9,1.8,2.6c0.6,0.8,1.9,2.4,2.5,3.3c0.5,0.8,1.4,2.4,1.7,3.3
		c0.6,1.3,1.4,4.1,1.9,5.5c0.3,0.8,0.8,2.5,1,3.4c0.2,0.8,0.7,2.3,0.6,3c-0.1,0.7-1,1.9-1.4,2.5c-0.4,0.6-1.1,1.9-1.4,2.6
		c-0.2,0.4-0.6,1.2-0.4,1.6c0.1,0.4,1,0.8,1.4,1c0.7,0.4,2.2,0.8,2.9,1.2c1.2,0.7,3.3,2.6,4.3,3.5c0.6,0.5,1.9,1.6,2.4,2.3
		c0.4,0.6,0.9,2.1,0.9,2.8c0,0.8-0.8,2.2-1.2,2.9c-0.4,0.8-1.8,1.9-2.1,2.8c-0.3,0.9,0,2.8,0,3.7c0,0.8-0.1,2.8-0.2,3.9
		c0.1,0,0.2,0.1,0.3,0.1c0.2,0.1,0.6,0.5,0.7,0.7c0.5,0.8,1.2,2.6,1.5,3.5c0.4,1,1,3.1,1.4,4.1c0.4,1.1,1.4,3.3,2,4.3
		c0.4,0.6,1.2,1.7,1.7,2.1c1,1,3.4,2.7,4.4,3.6c0.9,0.8,2.8,2.2,3.5,3.2c0.6,0.8,1,2.8,1.5,3.7c0.5,1,1.9,2.7,2.6,3.5
		c0.6,0.8,1.5,2.5,2.3,3c0.7,0.4,2.3,0.1,3,0.2c0.2,0,0.4,0.1,0.6,0.1c0.3-0.9,0.8-2.3,1.1-2.9c0.6-1.3,2.2-3.8,2.7-5.1
		c0.5-1.4,1.2-4.3,1.4-5.8c0.2-1.2,0.6-3.7,0.3-4.9c-0.3-1.1-1.9-2.9-2.4-3.9c-0.3-0.7-0.9-2.2-1.1-3c-0.2-1-0.4-3-0.3-3.9
		c0.1-1.2,0.6-3.4,1-4.5c0.7-1.8,2.6-5.1,3.5-6.8c0.7-1.3,1.8-4.3,2.9-5.3c0.4-0.4,1.6-0.8,2.1-1c0.7-0.2,2.2-0.1,2.8-0.5
		c1.1-0.6,2.4-2.7,3.3-3.5c0.8-0.7,2.8-1.6,3.6-2.3c0.6-0.5,1.9-1.6,2.4-2.2c0.6-0.9,1.1-3.1,1.7-3.9c0.6-0.8,2.5-1.6,3.3-2.2
		c0.9-0.7,2.4-2.5,3.1-3.3c1-1.1,2.7-3.7,3.7-4.7c1.5-1.4,4.8-3.8,6.5-5c1.8-1.2,5.5-3.8,7.5-4.6c1.2-0.5,3.9-1,5.2-0.8
		c1.1,0.1,3,1.1,4,1.5c1.2,0.5,3.6,2.1,4.9,2.1c0.8,0,2.5-0.4,3-1c0.4-0.4,0.9-1.7,0.9-2.3c0-0.9-0.8-2.5-1-3.3
		C171.4,148.2,171.4,145.1,171.3,143.6z M52.5,110.3h-5.2v3.1h4.6v0.9h-4.6v3.7h-1v-8.6h6.2V110.3z M61.5,117.9l-2.5-3.3h-2.4v3.3
		h-1v-8.6h3.7c1.1,0,1.9,0.3,2.4,0.9c0.4,0.4,0.7,1,0.7,1.7c0,0.7-0.2,1.2-0.6,1.7s-1,0.7-1.7,0.8l2.6,3.5H61.5z M63.1,103.2h-1
		v-8.6h1V103.2z M72.6,117.9l-1-2.3h-4.7l-1,2.3h-1l3.9-8.6h0.9l3.9,8.6H72.6z M70.6,103.3h-0.9l-3.7-8.6h1.1l3,7.4l3.1-7.4h1
		L70.6,103.3z M83.7,117.9H83l-5.5-7v7h-0.9v-8.6h0.9l5.4,6.9v-6.9h0.9V117.9z M82.9,103.2l-1-2.3h-4.7l-1,2.3h-1l3.9-8.6h0.9
		l3.9,8.6H82.9z M86.9,103.2v-8.6h0.9l5.4,6.9v-6.9h0.9v8.6h-0.8l-5.5-7v7H86.9z M93.5,117.9l-3.3-4.1l-1.8,1.8v2.3h-1v-8.6h1v5.1
		l4.9-5.1h1.2l-3.7,3.7l3.8,4.8H93.5z M98.5,117.9h-1v-8.6h1V117.9z M98.6,102.1c-0.8-0.9-1.2-1.9-1.2-3.1c0-1.2,0.4-2.3,1.2-3.1
		s1.9-1.3,3.1-1.3s2.3,0.4,3.1,1.3c0.8,0.9,1.2,1.9,1.2,3.1c0,1.2-0.4,2.3-1.2,3.1s-1.9,1.3-3.1,1.3S99.4,103,98.6,102.1z M106,118
		h-0.9l-3.7-8.6h1.1l3,7.4l3.1-7.4h1L106,118z M109,100.1v-1h3.4v1H109z M117.3,117.4c-0.5,0.4-1.2,0.7-2.1,0.7
		c-1.3,0-2.5-0.5-3.5-1.4l0.6-0.7c0.5,0.4,0.9,0.7,1.4,0.9c0.5,0.2,1,0.3,1.6,0.3c0.6,0,1-0.1,1.4-0.4s0.5-0.6,0.5-1.1
		c0-0.4-0.2-0.7-0.5-1c-0.3-0.2-0.9-0.5-1.8-0.6c-1-0.2-1.8-0.5-2.2-0.9s-0.7-0.9-0.7-1.6c0-0.7,0.3-1.2,0.8-1.7
		c0.5-0.4,1.2-0.7,2-0.7c1.1,0,2.1,0.4,3,1.1l-0.6,0.7c-0.8-0.6-1.6-0.9-2.5-0.9c-0.5,0-1,0.1-1.3,0.4c-0.3,0.3-0.5,0.6-0.5,1
		c0,0.4,0.2,0.8,0.5,1c0.3,0.2,0.9,0.5,1.8,0.7c1,0.2,1.7,0.5,2.1,0.9s0.7,0.9,0.7,1.6C118.1,116.3,117.9,116.9,117.3,117.4z
		 M127.4,117.9l-3.3-4.1l-1.8,1.8v2.3h-1v-8.6h1v5.1l4.9-5.1h1.2l-3.7,3.7l3.8,4.8H127.4z"/>
	<path class="st0" d="M61.4,111.9c0-0.5-0.2-0.9-0.6-1.2c-0.4-0.3-0.9-0.4-1.6-0.4h-2.6v3.5h2.6c0.7,0,1.2-0.2,1.6-0.5
		C61.2,112.9,61.4,112.5,61.4,111.9z"/>
	<rect x="62.1" y="94.7" class="st1" width="1" height="8.6"/>
	<polygon class="st1" points="70.2,102.1 67.2,94.7 66.1,94.7 69.8,103.3 70.6,103.3 74.3,94.7 73.3,94.7 	"/>
	<path class="st1" d="M79.2,94.6l-3.9,8.6h1l1-2.3h4.7l1,2.3h1l-3.9-8.6H79.2z M77.7,100.1l2-4.4l1.9,4.4H77.7z"/>
	<polygon class="st1" points="87.8,96.2 93.4,103.2 94.1,103.2 94.1,94.7 93.2,94.7 93.2,101.5 87.8,94.7 86.9,94.7 86.9,103.2 
		87.8,103.2 	"/>
	<path class="st1" d="M104.9,102.1c0.8-0.9,1.2-1.9,1.2-3.1c0-1.2-0.4-2.3-1.2-3.1c-0.8-0.9-1.9-1.3-3.1-1.3s-2.3,0.4-3.1,1.3
		s-1.2,1.9-1.2,3.1c0,1.2,0.4,2.3,1.2,3.1c0.8,0.9,1.9,1.3,3.1,1.3S104.1,103,104.9,102.1z M98.4,99c0-1,0.3-1.8,0.9-2.5
		c0.6-0.7,1.4-1,2.4-1c1,0,1.8,0.3,2.4,1c0.6,0.7,1,1.5,1,2.5c0,1-0.3,1.8-0.9,2.5s-1.4,1-2.4,1c-1,0-1.8-0.3-2.4-1
		C98.7,100.8,98.4,100,98.4,99z"/>
	<rect x="109" y="99.1" class="st1" width="3.4" height="1"/>
	<polygon class="st1" points="46.3,117.9 47.3,117.9 47.3,114.2 51.9,114.2 51.9,113.3 47.3,113.3 47.3,110.3 52.5,110.3 
		52.5,109.4 46.3,109.4 	"/>
	<path class="st1" d="M61.7,113.6c0.4-0.4,0.6-1,0.6-1.7c0-0.7-0.2-1.3-0.7-1.7c-0.6-0.6-1.4-0.9-2.4-0.9h-3.7v8.6h1v-3.3H59
		l2.5,3.3h1.2l-2.6-3.5C60.7,114.3,61.3,114,61.7,113.6z M56.5,113.7v-3.5h2.6c0.7,0,1.2,0.1,1.6,0.4c0.4,0.3,0.6,0.7,0.6,1.2
		c0,0.6-0.2,1-0.6,1.3c-0.4,0.3-0.9,0.5-1.6,0.5H56.5z"/>
	<path class="st1" d="M68.8,109.3l-3.9,8.6h1l1-2.3h4.7l1,2.3h1l-3.9-8.6H68.8z M67.3,114.8l2-4.4l1.9,4.4H67.3z"/>
	<polygon class="st1" points="82.8,116.2 77.4,109.4 76.5,109.4 76.5,117.9 77.4,117.9 77.4,110.9 83,117.9 83.7,117.9 83.7,109.4 
		82.8,109.4 	"/>
	<polygon class="st1" points="94.5,109.4 93.3,109.4 88.4,114.5 88.4,109.4 87.4,109.4 87.4,117.9 88.4,117.9 88.4,115.6 
		90.2,113.8 93.5,117.9 94.7,117.9 90.8,113.1 	"/>
	<rect x="97.5" y="109.4" class="st1" width="1" height="8.6"/>
	<polygon class="st1" points="105.6,116.7 102.5,109.4 101.4,109.4 105.1,118 106,118 109.7,109.4 108.6,109.4 	"/>
	<path class="st1" d="M115.3,113.2c-0.9-0.2-1.5-0.4-1.8-0.7c-0.3-0.2-0.5-0.6-0.5-1c0-0.4,0.2-0.7,0.5-1c0.3-0.3,0.8-0.4,1.3-0.4
		c0.9,0,1.7,0.3,2.5,0.9l0.6-0.7c-0.9-0.7-1.9-1.1-3-1.1c-0.8,0-1.5,0.2-2,0.7c-0.5,0.4-0.8,1-0.8,1.7c0,0.7,0.2,1.2,0.7,1.6
		s1.2,0.7,2.2,0.9c0.9,0.2,1.5,0.4,1.8,0.6c0.3,0.2,0.5,0.6,0.5,1c0,0.4-0.2,0.8-0.5,1.1s-0.8,0.4-1.4,0.4c-0.6,0-1.1-0.1-1.6-0.3
		c-0.5-0.2-0.9-0.5-1.4-0.9l-0.6,0.7c1,0.9,2.2,1.4,3.5,1.4c0.9,0,1.6-0.2,2.1-0.7s0.8-1,0.8-1.8c0-0.7-0.2-1.2-0.7-1.6
		S116.3,113.4,115.3,113.2z"/>
	<polygon class="st1" points="128.4,109.4 127.2,109.4 122.3,114.5 122.3,109.4 121.3,109.4 121.3,117.9 122.3,117.9 122.3,115.6 
		124.1,113.8 127.4,117.9 128.6,117.9 124.8,113.1 	"/>
</g>
<path class="st2" d="M70.2,88.5c-3.7-5.9-7.3-11.8-9.9-18.1c-1.8-4.3-1.4-8.4,1.5-12.1c3-3.7,7.1-4.5,11.6-3.4
	c4.3,1.1,6.7,4.1,7.5,8.4c0.4,2.2,0.2,4.3-0.6,6.4C77.8,76.4,74,82.4,70.2,88.5z M70.2,69.5c2.1,0,3.8-1.6,3.9-3.7
	c0-2.1-1.6-3.9-3.8-3.9c-2.1,0-3.8,1.7-3.8,3.7C66.4,67.7,68.1,69.5,70.2,69.5z"/>
</svg>
