<?xml version="1.0" encoding="utf-8"?>
<!-- Generator: Adobe Illustrator 23.0.2, SVG Export Plug-In . SVG Version: 6.00 Build 0)  -->
<svg version="1.1" id="Layer_1" xmlns="http://www.w3.org/2000/svg" xmlns:xlink="http://www.w3.org/1999/xlink" x="0px" y="0px"
	 viewBox="0 0 207.3 167.1" style="enable-background:new 0 0 207.3 167.1;" xml:space="preserve">
<style type="text/css">
	.st0{fill:#E6E6E6;stroke:#023F2C;stroke-width:0.25;}
	.st1{fill:#002C1B;}
	.st2{fill:#023F2C;}
</style>
<g>
	<polygon class="st0" points="99,94.4 102.9,94.4 101,90 	"/>
	<path class="st0" d="M93.7,90.3c-0.4-0.3-1-0.5-1.7-0.5h-2.2v3.8h2.1c0.7,0,1.3-0.2,1.7-0.5c0.4-0.3,0.6-0.8,0.6-1.4
		C94.3,91.1,94.1,90.7,93.7,90.3z"/>
	<polygon class="st0" points="69.6,94.4 73.5,94.4 71.5,90 	"/>
	<path class="st0" d="M84.6,91.5c0-0.5-0.2-0.9-0.6-1.2c-0.4-0.3-0.9-0.4-1.6-0.4h-2.6v3.5h2.6c0.7,0,1.2-0.2,1.6-0.5
		C84.4,92.5,84.6,92.1,84.6,91.5z"/>
	<path class="st0" d="M206.6,147.1c-0.4-0.7-1.7-1.7-2.4-2.3c-1-0.9-3.1-2.8-4.3-3.5c-0.7-0.4-2.2-0.8-2.9-1.2
		c-0.4-0.2-1.2-0.6-1.4-1c-0.1-0.4,0.3-1.2,0.4-1.6c0.3-0.7,1-1.9,1.4-2.6c0.3-0.6,1.3-1.8,1.4-2.5c0.1-0.8-0.4-2.3-0.6-3
		c-0.2-0.9-0.8-2.5-1-3.4c-0.4-1.4-1.3-4.1-1.9-5.5c-0.4-0.8-1.2-2.5-1.7-3.3c-0.6-0.9-1.9-2.4-2.5-3.3c-0.5-0.6-1.4-1.9-1.8-2.6
		c-0.3-0.5-0.7-2-1.2-2.2c-0.4-0.2-1.2,0.3-1.6,0.4c-0.7,0.3-2.3,0.7-2.9,1.2c-0.3,0.3-0.5,1.4-0.8,1.7c-0.4,0.3-1.6,0.5-2.1,0.5
		c-0.9,0-2.7-0.6-3.5-1c-1.1-0.6-3.3-2-4-3c-0.6-0.8-1-2.8-1.3-3.7c-0.2-0.7-0.8-2-1-2.8c-0.1-0.5-0.2-1.4,0-1.9
		c0.2-0.7,1.5-1.7,1.9-2.4c0.3-0.5,0.7-1.6,0.7-2.2c0-0.6-0.6-1.7-0.7-2.2c-0.2-0.7-0.1-2.3-0.5-2.9c-0.3-0.5-1.5-1-2.1-1.1
		c-0.6-0.1-1.9,0.1-2.5,0.2c-0.7,0.1-2,0.5-2.6,0.8c-0.7,0.3-2,1.5-2.8,1.7c-0.6,0.1-1.9-0.3-2.5-0.3c-0.4,0-1.1,0.1-1.4,0.3
		c-0.4,0.2-0.7,1.1-1,1.5c-0.4,0.5-1,1.7-1.5,2.1c-0.4,0.3-1.3,0.9-1.7,0.8c-0.5-0.1-1.3-0.7-1.5-1.2c-0.4-1,0.2-3.1,0.3-4.2
		c0.1-0.6,0.5-1.9,0.6-2.5c0.1-0.5,0.3-1.6,0.1-2.1c-0.3-0.5-1.4-1.2-1.9-1.5c-0.8-0.4-2.5-1-3.3-1.4c-0.9-0.4-2.8-1.2-3.5-1.9
		c-0.4-0.4-0.9-1.3-1.1-1.8c-0.2-0.6-0.1-1.8-0.1-2.4c0-0.8,0.1-2.5,0.2-3.4c0-0.6,0.2-1.9,0.2-2.5c0-0.5,0.3-1.6,0-2
		c-0.5-0.5-2.2-0.2-2.9-0.3c-0.8,0-2.5,0.1-3.4,0.1c-0.7,0-2.2,0.2-2.8-0.1c-0.4-0.2-1-1-1.2-1.3c-0.6-0.8-1.7-2.4-2.1-3.3
		c-0.4-0.8-0.8-2.5-1.2-3.2c-0.3-0.5-1.1-1.1-1.5-1.5c-0.5-0.5-1.6-1.6-2.2-2.1c-0.4-0.3-1.2-0.9-1.9-1.4l-0.9,2.8l-10.7-2.1
		l-3.8-5.6l-5.7-3.1l-5.6,0.2l-7.5-9.8l-9.8,2.2l-2.8-9l-4.5-5.4l-1.2-5.5l5.6-3l-8.6-9.2c-0.4,0-0.9-0.1-1.2-0.1
		c-0.6-0.1-1.8-0.8-2.3-1.1c-0.7-0.4-2.1-1.4-3-1.6C62,6.6,60,6.9,59.1,6.7c-1-0.2-3-1.1-3.9-1.6c-1.1-0.5-3.1-1.8-4-2.4
		c-0.7-0.5-2.1-1.7-2.9-2c-0.5-0.2-1.7-0.3-2.2-0.3c-0.5,0-1.8-0.3-2.1,0.1c-0.2,0.2-0.1,1-0.1,1.3c0.1,0.4,0.7,1.1,0.8,1.5
		c0.2,0.8,0.5,2.6,0.2,3.4c-0.4,0.8-2,1.8-2.8,2.3c-0.9,0.7-2.7,1.9-3.5,2.5c-1.1,0.9-3.1,2.8-4.1,3.7c-1.1,1.1-3.2,3.5-4.2,4.7
		c-0.5,0.7-1.6,2-1.9,2.9c-0.4,1.2-0.2,3.8-0.3,5c-0.1,1.4-0.1,4.3-0.5,5.7c-0.4,1.4-1.9,3.8-2.6,5c-1,1.7-2.9,5-4.2,6.4
		c-1.1,1.2-4.1,2.8-5.3,3.8c-1.4,1.3-4,4.1-5.2,5.6c-1.3,1.6-3.8,5-4.7,6.9c-0.8,1.6-1.5,5-2,6.7c-0.4,1.1-1.2,3.2-1.6,4.3
		c-0.3,0.9-1.1,2.8-1.1,3.7c-0.1,0.6,0,2,0.3,2.5c0.3,0.6,1.4,1.5,2,1.8c0.6,0.2,1.8-0.1,2.4,0.1c0.5,0.2,1.2,0.9,1.6,1.2
		c0.5,0.4,1.5,1.2,2,1.7c0.4,0.5,1.2,1.6,1.5,2.2c0.2,0.6,0.5,1.9,0.6,2.5c0.1,0.5-0.1,1.6,0.1,2.1c0.2,0.5,1.2,1,1.6,1.4
		c0.4,0.5,1.2,1.5,1.5,2.1c0.4,0.8,1,2.6,1.1,3.5c0.2,1.1-0.2,3.4,0,4.5c0.1,0.4,0.5,1.2,0.8,1.6c0.4,0.5,1.3,1.2,1.8,1.5
		c0.7,0.3,2.2,0.5,3,0.6c1.1,0.2,3.3,0.1,4.4,0.3c0.8,0.2,2.4,0.5,3.1,1c0.6,0.4,1.3,1.5,1.7,2.1c0.5,0.8,1,2.6,1.3,3.5
		c0.3,1,0.9,2.9,1,3.9c0.2,1.1,0.2,3.5,0.4,4.6c0.1,0.7,0.5,2.1,0.8,2.8c0.3,0.5,1.2,1.6,1.8,1.8c0.7,0.2,2.1-0.6,2.8-0.8
		c0.9-0.2,2.8-0.4,3.8-0.4c1.3,0,3.9,0.4,5.2,0.6c1.1,0.2,3.4,0.5,4.5,0.9c0.9,0.4,2.5,1.4,3.1,2.1c0.6,0.6,1.4,2,1.7,2.8
		c0.3,0.6,0.9,1.9,0.9,2.6c0,0.9-0.9,2.4-1.3,3.2c-0.5,0.8-1.8,2-2.3,2.7c-0.4,0.6-1.6,1.7-1.7,2.5c-0.1,0.9,1,2.4,1.3,3.2
		c0.3,0.7,0.4,2.4,0.8,3c0.2,0.3,0.8,0.7,1.1,0.7c0.6-0.1,1.4-1.3,1.8-1.7c0.3-0.4,1.1-1.2,1.2-1.7c0.2-0.5-0.2-1.7-0.1-2.3
		c0.1-0.4,0.4-1.2,0.6-1.5c0.3-0.5,1-1.6,1.5-1.9c0.5-0.2,1.7-0.2,2.2,0c0.6,0.2,1.3,1.4,1.9,1.6c0.9,0.3,2.8-0.2,3.7-0.3
		c0.8-0.1,2.5-0.2,3.3-0.6c0.8-0.3,2.1-1.2,2.7-1.8c0.9-0.8,2.1-2.9,2.8-3.8c0.6-0.8,1.7-2.7,2.5-3.3c0.6-0.5,2.1-1.1,2.8-1.3
		c0.8-0.2,2.6-0.1,3.5,0c1.3,0.2,3.9,0.7,5,1.4c0.7,0.5,1.8,1.8,2.1,2.6c0.3,0.7,0.3,2.5,0.6,3.3c0.3,1,1.2,2.9,1.7,3.7
		c0.5,0.9,1.7,2.5,2.5,3.2c1,0.9,3.3,2.1,4.4,2.7c0.8,0.5,2.4,1.5,3.3,1.7c1,0.2,3.1,0,4.2-0.2c0.8-0.2,2.4-1,3.3-1
		c0.9-0.1,2.7,0.3,3.6,0.6c1.3,0.4,3.7,1.8,5,2.3c1.2,0.4,3.7,0.8,5,1.2c1.1,0.3,3.3,0.8,4.4,1.3c1.1,0.5,3.2,2,4.2,2.7
		c0.7,0.5,2.1,1.7,2.9,2c1,0.4,3,0.9,4.1,0.8c1.4-0.1,4.1-1.5,5.5-1.5c1.2-0.1,3.7,0.5,4.8,0.8c1.3,0.3,3.7,1.1,4.9,1.6
		c1.4,0.6,4.3,1.6,5.5,2.6c0.6,0.6,1.2,2.3,1.9,2.8c0.5,0.5,1.9,1,2.6,1.2c1.1,0.4,3.5,0.6,4.7,0.8c1.5,0.2,4.5,0.7,6,0.7
		c0.9,0,2.7-0.3,3.6-0.6c1.1-0.4,3.1-1.7,4.2-2.3c0.9-0.5,2.6-1.9,3.5-2.4c0.5-0.2,1.5-0.7,2-0.8c0.7-0.1,2.2,0.5,2.9,0.6
		c1.2,0.2,3.7,0.6,5,0.9c1.2,0.2,3.5,0.5,4.7,1c0.1-1.1,0.2-3.1,0.2-3.9c0-0.9-0.3-2.8,0-3.7c0.3-0.8,1.7-2,2.1-2.8
		c0.4-0.7,1.1-2.1,1.2-2.9C207.5,149.1,207,147.7,206.6,147.1z M43.8,89.6l-5.6,7h5.6v0.9h-6.9v-0.6l5.5-7h-5.4V89h6.7V89.6z
		 M53.9,97.5l-1-2.3h-4.7l-1,2.3h-1l3.9-8.6h0.9l3.9,8.6H53.9z M64,97.5l-3.3-4.1l-1.8,1.8v2.3h-1V89h1v5.1l4.9-5.1H65l-3.7,3.7
		l3.8,4.8H64z M74.8,97.5l-1-2.3h-4.7l-1,2.3h-1l3.9-8.6H72l3.9,8.6H74.8z M84.7,97.5l-2.5-3.3h-2.4v3.3h-1V89h3.7
		c1.1,0,1.9,0.3,2.4,0.9c0.4,0.4,0.7,1,0.7,1.7c0,0.7-0.2,1.2-0.6,1.7s-1,0.7-1.7,0.8l2.6,3.5H84.7z M94.3,93.8
		c-0.6,0.5-1.4,0.7-2.4,0.7h-2.1v3h-1V89h3.2c1,0,1.8,0.2,2.3,0.7c0.6,0.5,0.9,1.2,0.9,2C95.3,92.6,94.9,93.3,94.3,93.8z
		 M104.3,97.5l-1-2.3h-4.7l-1,2.3h-1l3.9-8.6h0.9l3.9,8.6H104.3z M113.3,89.9h-2.9v7.7h-1v-7.7h-2.9V89h6.7V89.9z M122.4,89.9h-2.9
		v7.7h-1v-7.7h-2.9V89h6.7V89.9z M126.5,97.5h-1V89h1V97.5z M137.2,97.5l-1-2.3h-4.7l-1,2.3h-1l3.9-8.6h0.9l3.9,8.6H137.2z"/>
	<polygon class="st0" points="48.7,94.4 52.6,94.4 50.6,90 	"/>
	<polygon class="st0" points="131.9,94.4 135.8,94.4 133.9,90 	"/>
	<polygon class="st1" points="37.1,89.8 42.5,89.8 36.9,96.9 36.9,97.5 43.8,97.5 43.8,96.7 38.2,96.7 43.8,89.6 43.8,89 37.1,89 	
		"/>
	<path class="st1" d="M50.2,88.9l-3.9,8.6h1l1-2.3h4.7l1,2.3h1l-3.9-8.6H50.2z M48.7,94.4l2-4.4l1.9,4.4H48.7z"/>
	<polygon class="st1" points="65,89 63.8,89 58.9,94.1 58.9,89 57.9,89 57.9,97.5 58.9,97.5 58.9,95.2 60.7,93.4 64,97.5 65.2,97.5 
		61.4,92.7 	"/>
	<path class="st1" d="M71.1,88.9l-3.9,8.6h1l1-2.3h4.7l1,2.3h1L72,88.9H71.1z M69.6,94.4l2-4.4l1.9,4.4H69.6z"/>
	<path class="st1" d="M84.9,93.2c0.4-0.4,0.6-1,0.6-1.7c0-0.7-0.2-1.3-0.7-1.7c-0.6-0.6-1.4-0.9-2.4-0.9h-3.7v8.6h1v-3.3h2.4
		l2.5,3.3h1.2L83.2,94C83.9,93.9,84.5,93.6,84.9,93.2z M79.8,93.3v-3.5h2.6c0.7,0,1.2,0.1,1.6,0.4c0.4,0.3,0.6,0.7,0.6,1.2
		c0,0.6-0.2,1-0.6,1.3c-0.4,0.3-0.9,0.5-1.6,0.5H79.8z"/>
	<path class="st1" d="M92.1,89h-3.2v8.6h1v-3h2.1c1,0,1.8-0.2,2.4-0.7c0.6-0.5,1-1.2,1-2.1c0-0.8-0.3-1.5-0.9-2
		C93.8,89.2,93,89,92.1,89z M93.6,93.1c-0.4,0.3-1,0.5-1.7,0.5h-2.1v-3.8H92c0.7,0,1.3,0.2,1.7,0.5c0.4,0.3,0.6,0.8,0.6,1.4
		C94.3,92.3,94.1,92.8,93.6,93.1z"/>
	<path class="st1" d="M100.6,88.9l-3.9,8.6h1l1-2.3h4.7l1,2.3h1l-3.9-8.6H100.6z M99,94.4l2-4.4l1.9,4.4H99z"/>
	<polygon class="st1" points="106.6,89.9 109.4,89.9 109.4,97.5 110.4,97.5 110.4,89.9 113.3,89.9 113.3,89 106.6,89 	"/>
	<polygon class="st1" points="115.7,89.9 118.6,89.9 118.6,97.5 119.6,97.5 119.6,89.9 122.4,89.9 122.4,89 115.7,89 	"/>
	<rect x="125.6" y="89" class="st1" width="1" height="8.6"/>
	<path class="st1" d="M133.4,88.9l-3.9,8.6h1l1-2.3h4.7l1,2.3h1l-3.9-8.6H133.4z M131.9,94.4l2-4.4l1.9,4.4H131.9z"/>
</g>
<path class="st2" d="M46.3,71.6c-3.7-5.9-7.3-11.8-9.9-18.1c-1.8-4.3-1.4-8.4,1.5-12.1c3-3.7,7.1-4.5,11.6-3.4
	c4.3,1.1,6.7,4.1,7.5,8.4c0.4,2.2,0.2,4.3-0.6,6.4C53.9,59.5,50.1,65.5,46.3,71.6z M46.2,52.6c2.1,0,3.8-1.6,3.9-3.7
	c0-2.1-1.6-3.9-3.8-3.9c-2.1,0-3.8,1.7-3.8,3.7C42.5,50.8,44.2,52.6,46.2,52.6z"/>
<path class="st2" d="M73.5,83.5c-3.7-5.9-7.3-11.8-9.9-18.1c-1.8-4.3-1.4-8.4,1.5-12.1c3-3.7,7.1-4.5,11.6-3.4
	c4.3,1.1,6.7,4.1,7.5,8.4c0.4,2.2,0.2,4.3-0.6,6.4C81,71.4,77.3,77.3,73.5,83.5z M73.4,64.4c2.1,0,3.8-1.6,3.9-3.7
	c0-2.1-1.6-3.9-3.8-3.9c-2.1,0-3.8,1.7-3.8,3.7C69.6,62.7,71.3,64.4,73.4,64.4z"/>
</svg>
