<?xml version="1.0" encoding="utf-8"?>
<!-- Generator: Adobe Illustrator 23.0.2, SVG Export Plug-In . SVG Version: 6.00 Build 0)  -->
<svg version="1.1" id="Layer_1" xmlns="http://www.w3.org/2000/svg" xmlns:xlink="http://www.w3.org/1999/xlink" x="0px" y="0px"
	 viewBox="0 0 340.4 220.9" style="enable-background:new 0 0 340.4 220.9;" xml:space="preserve">
<style type="text/css">
	.st0{fill:#E6E6E6;stroke:#023F2C;stroke-width:0.25;}
	.st1{fill:#002C1B;}
	.st2{fill:#023F2C;}
</style>
<g>
	<path class="st0" d="M73.3,129.6h-2v6.8h2c1.1,0,1.9-0.3,2.6-1c0.6-0.6,1-1.4,1-2.4c0-1-0.3-1.8-1-2.4
		C75.2,129.9,74.3,129.6,73.3,129.6z"/>
	<path class="st0" d="M101.6,130.1c-0.4-0.3-1-0.5-1.7-0.5h-2.2v3.8h2.1c0.7,0,1.3-0.2,1.7-0.5c0.4-0.3,0.6-0.8,0.6-1.4
		C102.2,130.8,102,130.4,101.6,130.1z"/>
	<path class="st0" d="M335.4,119.1l3.6-1.9l-2.1-12.7l-11.2-0.5l-0.8-3.2l2.8-1.6l-0.1-13.1c0,0,0.8-2.2,1.1-2.9
		c0.3-0.6,0.7-1.7,1.1-2.2c0.2-0.3,0.9-0.5,1.1-0.8c0.3-0.6,0-1.9,0.2-2.5c0.2-0.5,1-1.4,1.3-1.8c0.3-0.4,1.2-1.2,1.2-1.8
		c0-0.2-0.3-0.6-0.4-0.7c-0.4-0.3-1.5-0.1-2-0.3c-0.5-0.3-1.3-1.4-1.8-1.6c-0.8-0.3-2.5-0.1-3.3-0.4c-0.3-0.1-1.1-0.7-1.1-0.7
		l0.2-4.4l-7.4-0.8l-0.5-0.2l-4.1-1.6l-3.8,4.1l-5.2-2.6l-4.2-3.3l-13.5,14.9c0,0-1.6,0.5-2.1,0.3c-0.5-0.2-1.3-1.1-1.5-1.6
		c-0.2-0.7,0.4-2,0.4-2.7c0-0.7-0.4-2.1-0.7-2.7c-0.3-0.7-1.7-1.8-1.7-2.5c0-0.5,0.9-1.2,1-1.7c0.1-1-0.5-3.2-1.3-3.9
		c-0.7-0.6-2.9-0.3-3.7-0.7c-0.7-0.3-2.5-1.9-2.5-1.9l-3.9-3.6c0,0-1.2-1.2-1.4-1.7c-0.4-0.9-0.6-3.8-0.6-3.8l-0.4-4.3l-6-3.4
		l0.2-2.5c0,0-2.5-2.6-3.4-3.5c-0.3-0.3-1-0.8-1.1-1.2c-0.1-0.4-0.1-1.3,0.1-1.7c0.1-0.2,0.7-0.4,0.8-0.7c0.3-0.5,0.4-1.6,0.3-2.1
		c-0.2-0.7-1.4-1.8-1.9-2.3c-0.5-0.5-1.6-1.1-2-1.7c-0.3-0.4-0.6-1.3-0.7-1.8c-0.1-0.8,0.2-2.5,0.5-3.3c0.2-0.6,0.8-1.7,1-2.3
		c0.1-0.3,0.7-1.1,0.4-1.3c-0.2-0.2-1,0.3-1.3,0.4c-1.1,0.3-3.4,0.7-4.5,1.2c-1.1,0.6-2.8,2.4-3.8,3.1c-1.7,1.1-5.5,2.7-7.4,3.4
		c-1.4,0.5-4.2,1.7-5.7,1.7c-0.9,0-2.4-0.8-3.3-1c-1.2-0.3-3.5-0.7-4.7-1c-1.2-0.3-3.7-0.9-5-1c-1.3-0.1-3.8-0.2-5.1-0.2
		c-1.2,0-3.5,0.6-4.6,0.4c-0.6-0.1-1.9-0.7-2.4-1c-1-0.6-2.7-2.2-3.7-2.9c-1.3-0.8-4.3-1.7-5.6-2.6c-0.9-0.6-2.4-2.3-3.2-3.1
		c-0.7-0.7-2.1-2.2-2.9-2.8c-0.8-0.5-2.7-1.1-3.6-1.4c-0.7-0.2-2.1-0.4-2.6-0.8c-0.5-0.3-1.3-1.2-1.5-1.7c-0.3-0.8,0.3-2.5,0-3.2
		c-0.3-0.7-1.3-1.9-1.9-2.4c-0.7-0.5-2.2-1.1-3.1-1.2c-0.5-0.1-1.6,0.2-2.2,0.3c-0.5,0.1-1.6,0.6-2.2,0.5c-0.5-0.1-1-1.1-1.5-1.3
		c-0.3-0.1-1-0.1-1.3,0C173,1.5,172,2,171.5,2.2c0,0-0.1,0.1-0.2,0.1c-0.5,0.3-1.2,0.9-1.6,1c-0.8,0.1-2.5-0.3-3.2-0.7
		c-0.6-0.3-1.3-1.4-1.9-1.7c-0.6-0.2-1.9-0.4-2.5-0.3c-0.5,0.1-1.2,0.9-1.6,1.2c-0.4,0.3-0.9,1.4-1.3,1.3c-0.5-0.1-0.7-1.5-1.1-1.8
		c-0.5-0.4-1.8-0.9-2.5-0.9c-0.7,0-2.1,0.7-2.7,1c-0.7,0.4-1.9,1.4-2.6,1.8c-0.7,0.4-2.4,0.6-3.1,1c-0.5,0.3-1.2,1.2-1.7,1.6
		c-0.9,0.6-2.9,1.5-3.8,2.1c-0.7,0.4-1.9,1.3-2.6,1.7c-0.9,0.6-2.8,1.6-3.6,2.2c-0.6,0.4-1.9,1.3-2.4,1.9c-0.8,0.8-1.5,3.2-2.5,3.5
		c-2.7,0.8-8.1-5-10.7-3.9c-1.6,0.7-1.6,5.3-2.9,6.5c-0.4,0.4-1.9,0.2-2.2,0.6c-1.1,1.4,0.1,5.5-0.5,7.3c-0.2,0.6-1.3,1.6-1.6,2.2
		c-0.3,0.8-0.4,2.6-0.5,3.5c-0.1,1.3,0,4,0.3,5.2c0.1,0.7,0.5,2.1,0.9,2.8c0.3,0.5,1.5,1.1,1.8,1.6c0.2,0.3,0.2,0.9,0.3,1.2
		c0,1-0.5,2.8-0.6,3.8c-0.1,0.9,0.5,3.2-0.3,3.8c-0.4,0.3-1.4-0.3-1.8-0.5c-0.4-0.2-0.9-1.3-1.3-1.2c-0.7,0.2-0.9,2.1-1,2.9
		c-0.1,0.8,0,2.2,0.1,3.3c1.3,0.7,2.9,1.5,3.7,2.1c1.8,1.5,4.5,5.1,6.1,6.8c1.3,1.4,4.2,4.1,5.5,5.7c0.7,0.9,2,2.7,2.6,3.7
		c0.4,0.8,0.9,2.7,1.5,3.5c0.4,0.5,1.4,1.3,1.9,1.6c0.6,0.4,2.3,0.4,2.5,1.1c0.1,0.6-1,1.7-1.5,1.9c-0.9,0.5-3,0.4-4,0.3
		c-0.9-0.1-2.7-0.7-3.3-1.4c-0.9-1-1-4-1.9-5c-0.7-0.8-2.8-1.4-3.7-1.9c-1-0.6-2.9-1.9-3.7-2.6c-0.9-0.8-2.4-2.8-3.3-3.7
		c-0.8-0.8-2.4-2.2-3.2-2.9c-0.9-0.9-2.9-2.6-3.7-3.6c-0.8-1-2.1-3.3-3-4.2c-0.7-0.6-2.3-1.3-3.2-1.7c-1.1-0.4-3.4-0.8-4.4-1.2
		c-0.9-0.4-2.7-1.4-3.6-1.8C90.3,52.5,88,51.7,87,51c-1.1-0.8-3-2.9-4-3.9c-1-0.9-2.8-2.8-3.9-3.6c-0.5-0.4-1.2-0.9-2-1.4L77,45.7
		h-4l2.3,8.9l-1,1.6L62.9,56c0,0-1.3-0.8-1.5-1.2c-0.3-0.6,0.3-2,0.2-2.6c-0.1-0.5-0.4-1.8-0.9-2c-0.3-0.1-0.9,0.3-1.1,0.4
		c-0.5,0.2-1.5,0.7-2,0.9c-0.5,0.2-1.6,0.1-2.1,0.4c-0.3,0.2-0.6,1.2-0.9,1.5c-0.3,0.2-1,0.4-1.3,0.5c-0.4,0.1-1.1,0-1.5,0.2
		c-0.5,0.2-1.6,1.4-1.6,1.4l1.3,6.7l8.5-0.3l6.1,5.8l2.5,0.1l1.1,1l-8.4,8.5l-8.9,5.9c0,0-1.7-2-2.5-2.4c-0.4-0.2-1.5-0.2-1.9-0.1
		c-0.4,0.1-0.9,0.7-1.2,0.9c-0.4,0.2-1.2,0.2-1.5,0.5c-0.3,0.3-0.6,1.1-0.7,1.6c0,0.5,0.6,1.3,0.5,1.8c-0.1,0.4-0.8,1.1-1,1.5
		c-0.4,0.6-1.3,1.7-1.5,2.3c-0.2,0.7,0,2.2,0.1,2.9c0.1,1.3,0.5,3.7,0.6,5c0.3,2.2,1.5,6.5,1.2,8.7c-0.1,0.8-0.8,2.1-1.1,2.9
		c-0.2,0.6-0.8,1.6-0.8,2.2c0,0.5,0.4,1.6,0.8,2c0.2,0.1,0.7,0.1,0.9,0.2c0.4,0.1,1.2,0.3,1.6,0.6c0.4,0.3,1,1.3,1.1,1.9
		c0.3,1,0,3.2,0.2,4.3c0.1,0.9,0.9,2.6,0.8,3.4c-0.1,0.6-0.8,1.8-1.3,2.1c-0.4,0.2-1.4-0.1-1.8,0.1c-0.5,0.2-1.5,1.1-1.6,1.6
		c0,0.5,1.2,1.1,1,1.6c-0.2,0.7-2,0.8-2.6,1c-0.7,0.2-2.1,0.4-2.7,0.8c-0.5,0.3-1.4,1-1.7,1.5c-0.2,0.3-0.2,1.3-0.5,1.5
		c-0.6,0.4-2.1,0.1-2.8,0.2c-0.9,0-2.8-0.2-3.7,0c-0.5,0.1-1.4,0.4-1.8,0.7c-0.4,0.3-1,1-1.1,1.4c-0.1,0.5,0.4,1.6,0.3,2.1
		c-0.1,0.5-0.8,1.2-1.1,1.6c-0.2,0.3-0.7,1-1,1.4c-0.2,0.3-0.6,1.3-1,1.2c-0.5,0-0.9-1.2-1.1-1.6c-0.3-0.7-0.5-2.4-0.8-3.2
		c-0.2-0.7-0.5-2.1-1-2.6c-0.2-0.3-0.9-0.6-1.2-0.6c-0.5,0-1.5,0.3-1.9,0.7c-0.3,0.4-0.4,1.5-0.4,2c0,0.9,0.7,2.6,1,3.5
		c0.2,0.6,0.7,1.7,0.8,2.3c0.1,0.3,0.1,1.1,0.1,1.4c-0.1,0.4-0.4,1.4-0.8,1.7c-0.4,0.3-1.4,0.3-1.9,0.4c-1.1,0.3-3.2,1-4.2,1.5
		c-1,0.4-3,1.3-3.9,1.8c-0.9,0.4-2.9,1.2-3.8,1.7c-0.3,0.2-0.8,0.8-1.2,0.8c-0.1,0-0.2,0-0.2,0l-1.1,4.9l0.8,10.3c0,0,0.9,0,1.2,0
		c0.3,0.1,1.1,0.2,1.3,0.4c0.2,0.2,0.6,0.8,0.5,1.1c0,0.3-0.7,0.8-0.7,0.8l3,4.8l0.1,2.5l-2.3,1.1l1.7,7.9l-7.5,5.7l0.7,8.8l2.2,7.9
		c0,0,1.7,0.6,2.2,0.8c0.5,0.1,1.2,0.3,2,0.5c0.5,0.1,1,0.2,1.3,0.2c1,0.1,3.2-0.3,4.2-0.2c0.9,0.2,2.8,0.8,3.5,1.4
		c0.4,0.3,0.6,1.3,0.9,1.7c0.7,0.9,2.6,2.4,3.5,3.1c0.5,0.4,1.5,1.1,2,1.3c0.6,0.3,1.8,0.9,2.4,1.1c0.8,0.3,2.2,1.2,3.1,1.3
		c0.4,0.1,1.2,0.2,1.6,0.1c0.4-0.2,0.9-0.9,1.1-1.2c0.1-0.3,0-1,0.1-1.4c0.2-0.3,1-1,1-1l11.9-0.3l1.1-1l-0.9-6.1
		c0,0,1.6-0.2,2.1-0.4c0.5-0.1,1.3-0.6,1.8-0.8c0.6-0.3,1.7-0.9,2.4-1.1c0.5-0.1,1.5-0.3,1.9-0.1c0.3,0.2,0.7,0.9,0.9,1.2
		c0.2,0.4,0.7,1.2,0.7,1.6c0,0.4-0.4,1.1-0.6,1.4c-0.3,0.3-1.2,0.7-1.3,1.1c-0.1,0.4,0.3,1.1,0.3,1.5c0,0.5,0,1.5-0.1,2
		c-0.1,0.5-0.3,1.6-0.5,2.1c-0.2,0.5-0.8,1.8-0.8,1.8l1.3,2.4l18.8-0.8l10-3.4l2.2,1.6c-0.2-0.5-0.6-1.2-0.7-1.6
		c-0.2-0.9-0.3-2.8-0.1-3.7c0.1-0.6,0.3-1.8,0.8-2.2c0.3-0.2,1.1-0.4,1.5-0.3c0.4,0.1,0.7,1.2,1.1,1.2c0.3,0,0.9-0.5,1.2-0.8
		c0.3-0.4,0.5-1.5,0.9-1.8c0.3-0.2,1.2,0.1,1.6,0.1c0.4,0,1.3,0.2,1.7-0.1c0.3-0.2,0.3-1.1,0.6-1.3c0.3-0.3,1.3-0.6,1.7-0.7
		c0.7-0.1,2.2-0.3,2.8-0.1c0.9,0.3,2.3,1.6,3,2.3c0.6,0.6,1.3,2.2,1.9,2.6c0.4,0.3,1.5,0.4,2.1,0.4c0.4,0,1.3-0.1,1.7-0.3
		c0.4-0.2,0.9-0.9,1.2-1c0.5-0.2,1.6,0.1,2.1,0c0.4-0.1,1.2-0.1,1.4-0.4c0.4-0.4,0.1-1.8,0.3-2.3c0.2-0.6,1-1.7,1.5-2
		c0.5-0.4,1.8-0.7,2.4-0.7c0.8,0,2.4,0.3,3.2,0.6c0.8,0.3,2,1.4,2.8,1.7c0.6,0.3,1.9,0.7,2.6,0.6c0.5-0.1,1.3-0.7,1.7-1
		c0.5-0.5,1.2-1.9,1.5-2.6c0.2-0.5,0.4-1.6,0.8-1.9c0.5-0.5,1.8-0.8,2.4-0.9c0.9-0.1,2.8,0.4,3.7,0.6c0.8,0.1,2.5,0.5,3.4,0.4
		c0.5,0,1.4-0.4,1.8-0.6c0.5-0.3,1-1.4,1.5-1.7c0.5-0.2,1.8-0.3,2.3-0.1c0.7,0.3,1.4,1.6,1.9,2.1c0.6,0.6,1.8,1.8,2.5,2.2
		c1.2,0.7,3.9,1.6,5.3,1.9c1.2,0.2,3.7,0,4.9,0.1c1,0,2.9,0.1,3.9,0.3c1,0.2,2.9,0.8,3.9,1c1.7,0.2,5.1,0.4,6.7,0
		c0.2,0,0.3-0.1,0.5-0.2c-0.6-0.4-1.6-0.9-2.1-1.2c-0.6-0.4-2-1-2.5-1.6c-0.3-0.5-0.7-1.7-0.6-2.3c0.1-0.8,1.3-2,1.5-2.8
		c0.3-0.8,0.7-2.5,0.7-3.4c0-0.6-0.6-1.8-0.8-2.4c-0.1-0.4-0.6-1.2-0.5-1.7c0.1-0.3,0.6-0.9,0.9-1c0.4-0.3,1.6-0.2,2-0.6
		c0.4-0.3,0.9-1.1,1-1.6c0.2-0.9-0.2-2.7-0.4-3.5c-0.2-0.8-0.5-2.6-1.1-3.2c-0.4-0.4-1.8-0.4-2.3-0.7c-0.4-0.2-1.1-0.8-1.3-1.2
		c-0.3-0.6-0.4-1.8-0.4-2.5c0-0.8-0.3-2.4,0.1-3.1c0.2-0.3,0.9-0.5,1.1-0.7c0.3-0.2,0.9-0.7,1-1c0.1-0.6-0.3-1.8-0.6-2.3
		c-0.5-0.7-2.2-1.5-3.1-1.8c-0.4-0.1-1.2-0.3-1.6-0.2c-0.6,0.1-1.6,0.9-2.2,0.9c-0.6,0-1.7-0.6-2.2-1c-0.3-0.2-0.9-1.2-0.9-1.2
		l0.2-11.4l7,2.7c0,0,0.4-1.2,0.5-1.6c0.1-0.7,0.1-2.2-0.2-2.8c-0.3-0.6-1.6-1.5-1.8-2.1c-0.2-0.6,0.2-2,0-2.6
		c-0.2-0.5-1-1.1-1.3-1.5c-0.3-0.4-1-1-1.2-1.4c-0.3-0.7-0.5-2.9-0.5-2.9l-0.6-11.2l2.6-0.4l2.9,6.9l10-2.1
		c-0.1-0.5-0.2-1.1-0.2-1.4c0-1.1,0.6-3.4,1.3-4.3c0.5-0.7,2.2-1.4,3-1.7c0.8-0.2,2.6,0.2,3.4,0c0.8-0.2,2.4-1.1,2.9-1.8
		c0.6-0.8,1.1-3,1-4c0-1.1-1.3-3-1.5-4c-0.2-1.1,0.4-3.5,0.1-4.6c-0.4-1.3-2.2-3.5-2.9-4.7c-0.5-0.9-1.7-2.6-2-3.5
		c-0.3-1.1,0.1-3.5-0.3-4.6c-0.3-0.7-1.8-1.7-2.1-2.4c-0.4-0.9,0.1-2.9-0.2-3.8c-0.2-0.8-1-2.3-1.6-2.9c-0.6-0.6-2-1.6-2.7-2.1
		c-0.6-0.4-2-1.1-2.7-1.2c-0.7-0.2-2.2,0.1-2.8-0.2c-0.7-0.3-1.6-1.9-2.3-2.2c-1-0.4-3.2-0.4-4.3-0.4c-0.6,0-1.8,0-2.4,0
		c-0.7,0-2.3,0.1-2.9-0.3c-0.4-0.3-1-1.3-0.8-1.8c0.2-0.6,1.7-1,2.3-1.2c1-0.3,3.1-0.7,4.2-0.6c0.9,0,2.6,0.7,3.5,0.8
		c1,0.2,3,0.2,3.9,0.4c0.9,0.2,2.6,0.8,3.4,1.1c0.8,0.4,2.3,1.3,2.9,1.9c0.5,0.4,1,1.8,1.6,2.1c0.6,0.3,2.2,0.3,2.9,0.1
		c0.5-0.2,1.5-1,1.8-1.5c0.4-0.6,0.4-2.2,0.5-2.9c0.1-0.7-0.1-2.3,0.3-2.9c0.4-0.6,2-0.7,2.4-1.2c0.5-0.7,0.5-2.6,0.9-3.3
		c0.5-0.8,1.8-2.2,2.6-2.7c0.7-0.4,2.3-0.9,3-0.7c0.5,0.1,1.4,1,1.6,1.6c0.2,0.7-0.3,2.2-0.6,2.9c-0.5,0.9-1.9,2.4-2.7,3
		c-0.7,0.6-2.5,1.2-3.1,1.9c-0.7,0.8-1.3,2.8-1.7,3.7c-0.4,0.9-1.2,2.8-1.5,3.7c-0.3,1-0.7,3.2-0.6,4.3c0.1,1.1,0.8,3.3,1.2,4.4
		c0.5,1.2,2,3.4,2.3,4.7c0.3,1.3-0.2,4.1,0.1,5.4c0.2,0.8,0.7,2.5,1.2,3.2c0.5,0.6,2.2,1.2,2.7,1.9c0.5,0.7,0.7,2.3,0.7,3.1
		c0,0.7-0.8,2.1-0.8,2.8c-0.1,1.2,0.5,3.7,0.7,4.9c0.1,0.6,0.1,2,0.5,2.5c0.6,0.6,2.5,1,3.3,1c0.6,0,1.6-0.5,2.2-0.6
		c0.5-0.2,1.6-0.8,2.2-0.6c0.7,0.2,1.8,1.5,1.9,2.2c0.1,0.3-0.1,0.8-0.3,1.3l11.6,4.5l6.2,4.4l14.7-9.8l2.2,6l6.9-1.7l0.4,4.3
		l10.1-1.7l1.2,5.3l9.4-3.7l1.2,5.4l-2.9,2.1l6.9,4.5l3.3,4.3l-2.7,6l-4.8-0.3l1.4,5.6l19.1-0.6l0,3.6l2.3-0.4l1.6-3.5l14.4,0.5
		l0.5-2.7l8.7-0.1l-0.6-0.3l-4.3-5.6l-0.1-3.7l5.2,0.3c0,0,1.5-3.3,0.9-4.2c-1-1.4-6.9-0.7-6.9-0.7l0.1-4.3c0,0,0.4-4.5,1-5.9
		c0.4-0.9,1.8-2.5,2.5-3.1c1-0.8,3.2-2.4,4.4-2.6c1.7-0.3,5.1,0.5,6.7,1c1.7,0.5,4.8,1.9,6.4,2.6c0.6,0.2,2.2,1,2.2,1l7.6-6.7
		l-1.5-4.4L335.4,119.1z M76.5,136c-0.9,0.8-1.9,1.2-3.3,1.2h-3v-8.6h3c1.3,0,2.4,0.4,3.3,1.2c0.8,0.8,1.3,1.8,1.3,3.1
		C77.8,134.2,77.4,135.2,76.5,136z M88.3,137.2h-0.8l-5.5-7v7h-0.9v-8.6H82l5.4,6.9v-6.9h0.9V137.2z M93,137.2h-1v-8.6h1V137.2z
		 M102.2,133.5c-0.6,0.5-1.4,0.7-2.4,0.7h-2.1v3h-1v-8.6h3.2c1,0,1.8,0.2,2.3,0.7c0.6,0.5,0.9,1.2,0.9,2
		C103.2,132.3,102.8,133,102.2,133.5z M112,137.2l-2.5-3.3h-2.4v3.3h-1v-8.6h3.7c1.1,0,1.9,0.3,2.4,0.9c0.4,0.4,0.7,1,0.7,1.7
		c0,0.7-0.2,1.2-0.6,1.7s-1,0.7-1.7,0.8l2.6,3.5H112z M123.3,136.1c-0.8,0.9-1.9,1.3-3.1,1.3s-2.3-0.4-3.1-1.3
		c-0.8-0.9-1.2-1.9-1.2-3.1c0-1.2,0.4-2.3,1.2-3.1s1.9-1.3,3.1-1.3s2.3,0.4,3.1,1.3c0.8,0.9,1.2,1.9,1.2,3.1
		C124.6,134.2,124.1,135.2,123.3,136.1z"/>
	<path class="st0" d="M120.2,129.4c-1,0-1.8,0.3-2.4,1c-0.6,0.7-0.9,1.5-0.9,2.5c0,1,0.3,1.8,1,2.5c0.6,0.7,1.4,1,2.4,1
		c1,0,1.8-0.3,2.4-1s0.9-1.5,0.9-2.5c0-1-0.3-1.8-1-2.5C121.9,129.8,121.1,129.4,120.2,129.4z"/>
	<path class="st0" d="M111.9,131.3c0-0.5-0.2-0.9-0.6-1.2c-0.4-0.3-0.9-0.4-1.6-0.4h-2.6v3.5h2.6c0.7,0,1.2-0.2,1.6-0.5
		C111.7,132.3,111.9,131.8,111.9,131.3z"/>
	<path class="st1" d="M73.3,128.7h-3v8.6h3c1.3,0,2.4-0.4,3.3-1.2c0.9-0.8,1.3-1.8,1.3-3.1c0-1.2-0.4-2.3-1.3-3.1
		C75.7,129.1,74.6,128.7,73.3,128.7z M75.8,135.4c-0.6,0.6-1.5,1-2.6,1h-2v-6.8h2c1.1,0,1.9,0.3,2.6,1c0.7,0.6,1,1.5,1,2.4
		C76.8,133.9,76.5,134.8,75.8,135.4z"/>
	<polygon class="st1" points="87.4,135.5 82,128.7 81.1,128.7 81.1,137.2 82,137.2 82,130.2 87.6,137.2 88.3,137.2 88.3,128.7 
		87.4,128.7 	"/>
	<rect x="92.1" y="128.7" class="st1" width="1" height="8.6"/>
	<path class="st1" d="M100,128.7h-3.2v8.6h1v-3h2.1c1,0,1.8-0.2,2.4-0.7c0.6-0.5,1-1.2,1-2.1c0-0.8-0.3-1.5-0.9-2
		C101.7,128.9,100.9,128.7,100,128.7z M101.5,132.8c-0.4,0.3-1,0.5-1.7,0.5h-2.1v-3.8h2.2c0.7,0,1.3,0.2,1.7,0.5
		c0.4,0.3,0.6,0.8,0.6,1.4C102.2,132,102,132.5,101.5,132.8z"/>
	<path class="st1" d="M112.3,132.9c0.4-0.4,0.6-1,0.6-1.7c0-0.7-0.2-1.3-0.7-1.7c-0.6-0.6-1.4-0.9-2.4-0.9h-3.7v8.6h1v-3.3h2.4
		l2.5,3.3h1.2l-2.6-3.5C111.3,133.6,111.9,133.3,112.3,132.9z M107.1,133.1v-3.5h2.6c0.7,0,1.2,0.1,1.6,0.4c0.4,0.3,0.6,0.7,0.6,1.2
		c0,0.6-0.2,1-0.6,1.3c-0.4,0.3-0.9,0.5-1.6,0.5H107.1z"/>
	<path class="st1" d="M120.2,128.5c-1.3,0-2.3,0.4-3.1,1.3s-1.2,1.9-1.2,3.1c0,1.2,0.4,2.3,1.2,3.1c0.8,0.9,1.9,1.3,3.1,1.3
		s2.3-0.4,3.1-1.3s1.2-1.9,1.2-3.1c0-1.2-0.4-2.3-1.2-3.1C122.5,129,121.5,128.5,120.2,128.5z M122.6,135.5c-0.6,0.7-1.4,1-2.4,1
		c-1,0-1.8-0.3-2.4-1c-0.6-0.7-1-1.5-1-2.5c0-1,0.3-1.8,0.9-2.5c0.6-0.7,1.4-1,2.4-1c1,0,1.8,0.3,2.4,1c0.6,0.7,1,1.5,1,2.5
		C123.6,134,123.2,134.8,122.6,135.5z"/>
</g>
<path class="st2" d="M105.6,113.8c-3.7-5.9-7.3-11.8-9.9-18.1c-1.8-4.3-1.4-8.4,1.5-12.1c3-3.7,7.1-4.5,11.6-3.4
	c4.3,1.1,6.7,4.1,7.5,8.4c0.4,2.2,0.2,4.3-0.6,6.4C113.2,101.7,109.4,107.6,105.6,113.8z M105.5,94.8c2.1,0,3.8-1.6,3.9-3.7
	c0-2.1-1.6-3.9-3.8-3.9c-2.1,0-3.8,1.7-3.8,3.7C101.8,93,103.5,94.7,105.5,94.8z"/>
</svg>
