<svg id="Layer_1" data-name="Layer 1" xmlns="http://www.w3.org/2000/svg" viewBox="0 0 176.48 233.24"><defs><style>.cls-1{fill:#e6e6e6;stroke:#023f2c;stroke-width:0.25px;}.cls-2{fill:#002c1b;}.cls-3{fill:#023f2c;}</style></defs><title>Ivano-frankivsk</title><polygon class="cls-1" points="67.28 114.79 71.17 114.79 69.23 110.43 67.28 114.79"/><path class="cls-1" d="M104.17,101.48a3.78,3.78,0,0,0,0-5,3.2,3.2,0,0,0-2.42-1,3.14,3.14,0,0,0-2.4,1,3.55,3.55,0,0,0-1,2.51,3.51,3.51,0,0,0,1,2.5,3.16,3.16,0,0,0,2.42,1A3.13,3.13,0,0,0,104.17,101.48Z"/><polygon class="cls-1" points="77.66 100.12 81.56 100.12 79.61 95.75 77.66 100.12"/><path class="cls-1" d="M171.29,143.58c-.07-1.68,0-5.05-.21-6.72-.14-1.46-.84-4.34-1-5.81s-.05-4.31,0-5.75c0-.64.21-2.56.21-2.56l6.16-2.6a9.38,9.38,0,0,1-.9-.93,18.17,18.17,0,0,1-2.77-5.12c-.18-.74.09-2.29,0-3-.12-1.11-.35-3.44-1-4.36a5.65,5.65,0,0,0-2.07-1.46c-.75-.29-2.43-.15-3.19-.41a7.85,7.85,0,0,1-4.43-3.88c-.41-.77-.77-2.54-1.17-3.32a8.17,8.17,0,0,0-1.39-1.94,4.08,4.08,0,0,0-2.07-1,2.2,2.2,0,0,0-1,.69c-.32.37-.61,1.34-.9,1.73s-1.1,1.5-1.66,1.66a3.44,3.44,0,0,1-1.67-.34,16,16,0,0,1-2.69-1.8c-.78-.61-2.08-2.16-2.91-2.7a9.74,9.74,0,0,0-3-1.25c-.47,0-1.45.52-1.87.28a3,3,0,0,1-.83-2c0-.4.5-1.08.63-1.46.2-.57.78-1.77.62-2.35s-1-1.55-1.59-1.59-1.2.76-1.53,1.1-.72,1.35-1.1,1.66a3.48,3.48,0,0,1-1.73.7,4.23,4.23,0,0,1-2.08-1.18,5.74,5.74,0,0,1-.9-2.28c-.1-.83.51-2.5.42-3.33a13.67,13.67,0,0,0-1-2.63,7.57,7.57,0,0,0-1-2c-.72-.69-2.76-1.14-3.67-1.53a19.91,19.91,0,0,1-4.08-1.8,28.21,28.21,0,0,1-1.8-2.62,18.68,18.68,0,0,0-2.36-2.08c-.47-.34-1.56-.8-2-1.18a9.21,9.21,0,0,1-1.39-1.66c-.31-.5-1.11-1.58-1-2.14.11-.4.93-.85,1.32-1s1.67.17,2.21.06,1.32-.72,1.8-.83a4.07,4.07,0,0,1,1.87,0c.51.24,1,1.44,1.46,1.74.3.18,1.07.51,1.38.34s.45-1.07.48-1.45a5.39,5.39,0,0,0-.34-2.22,11.05,11.05,0,0,0-2.63-2.42c-.71-.53-2.32-1.3-3.05-1.8a14.83,14.83,0,0,1-2.7-2.15,9.45,9.45,0,0,1-1.24-2.9,5.82,5.82,0,0,1,0-2.56,6.72,6.72,0,0,1,2-2c1-.66,3.27-1.31,4.29-1.87.5-.27,1.61-.75,1.87-1.24a1.64,1.64,0,0,0,0-1.25c-.36-.54-1.82-.72-2.42-1-.92-.38-2.77-1.15-3.67-1.59-.62-.3-2.42-1.32-2.42-1.32l-2.14-16.75-3.33-6.57.38-6.21L97.49,4.51,93,5.81l-1.72-.88L90.54.2l-5.4.57-3,6.8,1.45,2.6-4.31,4.72,1.82,3.95-.37,4.83-2.64,4.41L73.77,26l-2.86,4.26L74,32.91l.31,4.2,9.76,1.45.78,1.56-1.46,7.63-4,.36-1.25-3.37H74.39l-3.63,2-6.23,2.5-5.92,1-4.88-1.24-4.25-1.92L46.83,49,38,48.69l-5,1L26.32,47l-8.09,4.67v2.91L9.3,62.29,6,71.79l2.23,4.15,0,3.63L4.16,80.71,2.45,88,.39,94.4c.65.47,1.51,1.1,1.88,1.42.58.49,1.67,1.55,2.22,2.08A12.84,12.84,0,0,1,6,99.42c.47.71.85,2.42,1.25,3.18a25.77,25.77,0,0,0,2.14,3.26c.28.35.83,1.13,1.25,1.31a9.28,9.28,0,0,0,2.84.07c.84,0,2.54-.1,3.39-.07s2.41-.26,2.9.28c.34.37,0,1.5,0,2s-.16,1.86-.2,2.49c-.06.84-.21,2.54-.21,3.39a10.3,10.3,0,0,0,.14,2.42,5.56,5.56,0,0,0,1.1,1.8,18,18,0,0,0,3.53,1.94c.8.38,2.5.93,3.26,1.38a5.63,5.63,0,0,1,1.87,1.45,5.05,5.05,0,0,1-.07,2.08c-.09.64-.52,1.86-.63,2.49-.17,1-.75,3.2-.34,4.16a2.58,2.58,0,0,0,1.45,1.17,3.29,3.29,0,0,0,1.73-.83,13.12,13.12,0,0,0,1.52-2.14,6.74,6.74,0,0,1,1-1.46,3.59,3.59,0,0,1,1.39-.27,19.33,19.33,0,0,0,2.49.27c.79-.17,2-1.33,2.77-1.66a16.07,16.07,0,0,1,2.63-.83,8.75,8.75,0,0,1,2.49-.21,4.48,4.48,0,0,1,2.08,1.11c.43.6.31,2.19.48,2.91a13.76,13.76,0,0,1,.69,2.21,6.59,6.59,0,0,1-.69,2.22c-.35.68-1.62,1.7-1.87,2.42a5.11,5.11,0,0,0,0,1.87,23.33,23.33,0,0,0,1,2.77,18.73,18.73,0,0,0,1.31,3.73,14.35,14.35,0,0,0,4,3,11.44,11.44,0,0,0,3.53,1,4.5,4.5,0,0,0,2.15-.49c.36-.28.49-1.34.83-1.66a9.89,9.89,0,0,1,2.9-1.24c.39-.14,1.22-.58,1.59-.42.59.25.91,1.68,1.25,2.22s1.34,1.93,1.8,2.56c.61.82,1.94,2.39,2.49,3.25a29,29,0,0,1,1.73,3.26c.58,1.32,1.42,4.09,1.87,5.46.27.84.82,2.54,1,3.39a10.62,10.62,0,0,1,.62,3.05,11.3,11.3,0,0,1-1.38,2.49c-.35.64-1.12,1.88-1.39,2.56-.15.39-.55,1.2-.41,1.59s1,.83,1.38,1c.69.4,2.23.84,2.91,1.25a41,41,0,0,1,4.29,3.53,14.92,14.92,0,0,1,2.35,2.28,6.86,6.86,0,0,1,.9,2.84,9.22,9.22,0,0,1-1.17,2.91c-.43.75-1.81,1.94-2.08,2.76s0,2.76,0,3.67-.12,2.83-.17,3.94l.31.14a3.27,3.27,0,0,1,.69.7A21.71,21.71,0,0,1,82.21,205c.39,1,1,3.08,1.39,4.08a36.4,36.4,0,0,0,2,4.29,17.13,17.13,0,0,0,1.73,2.15c1,1,3.36,2.66,4.43,3.6a25.55,25.55,0,0,1,3.46,3.18c.57.82,1,2.8,1.53,3.67s1.91,2.66,2.56,3.53,1.46,2.53,2.28,3,2.29.08,3,.2l.59.11c.32-.94.81-2.35,1.07-2.95.58-1.32,2.19-3.76,2.7-5.12a37.2,37.2,0,0,0,1.38-5.81,17,17,0,0,0,.28-4.91c-.28-1.1-1.86-2.86-2.35-3.88a12.53,12.53,0,0,1-1.39-6.92,22.43,22.43,0,0,1,1-4.5,73.91,73.91,0,0,1,3.53-6.78c.71-1.34,1.79-4.3,2.91-5.33a7,7,0,0,1,2.14-1,20.29,20.29,0,0,0,2.84-.49c1.06-.56,2.39-2.7,3.32-3.46s2.76-1.63,3.6-2.28a15,15,0,0,0,2.35-2.21c.62-.87,1-3.07,1.74-3.88s2.5-1.58,3.25-2.22a40.7,40.7,0,0,0,3.11-3.32c1-1.14,2.67-3.65,3.74-4.7a61,61,0,0,1,6.51-5c1.82-1.24,5.47-3.81,7.54-4.57a15.84,15.84,0,0,1,5.19-.83,19.94,19.94,0,0,1,4,1.53c1.25.5,3.58,2.07,4.92,2.14a5.57,5.57,0,0,0,3.05-1,4.42,4.42,0,0,0,.89-2.28c0-.87-.82-2.47-1-3.32C171.38,148.22,171.36,145.12,171.29,143.58ZM52.47,110.25H47.28v3.06h4.64v.88H47.28v3.73h-1v-8.56h6.15Zm9,7.67L59,114.6H56.53v3.32h-1v-8.56h3.68a3.29,3.29,0,0,1,2.43.86,2.5,2.5,0,0,1,0,3.37,3.08,3.08,0,0,1-1.69.83l2.63,3.5Zm1.65-14.67h-1V94.69h1Zm9.45,14.67-1-2.26H66.9l-1,2.26h-1l3.9-8.62h.91l3.9,8.62Zm-1.92-14.61h-.86L66.1,94.69h1.08l3,7.37,3.06-7.37h1Zm13.11,14.61H83l-5.52-7v7h-.94v-8.56h.9l5.39,6.86v-6.86h1Zm-.81-14.67-1-2.26H77.28l-1,2.26h-1l3.9-8.62h.91l3.9,8.62Zm4,0V94.69h.9l5.4,6.86V94.69h.94v8.56h-.77l-5.53-7v7Zm6.57,14.67-3.28-4.14-1.83,1.84v2.3h-1v-8.56h1v5.11l4.92-5.11h1.25l-3.67,3.74,3.83,4.82Zm5,0h-1v-8.56h1Zm.16-15.82A4.43,4.43,0,0,1,97.39,99a4.32,4.32,0,0,1,1.24-3.12,4.42,4.42,0,0,1,6.27,0,4.6,4.6,0,0,1,0,6.25,4.45,4.45,0,0,1-6.28,0ZM106,118h-.86l-3.68-8.62h1.08l3,7.37,3.06-7.37h1Zm3-17.91v-1h3.4v1Zm8.34,17.31a3.26,3.26,0,0,1-2.1.66,5.05,5.05,0,0,1-3.5-1.37l.6-.7a4.8,4.8,0,0,0,1.37.91,3.88,3.88,0,0,0,1.56.3,2.2,2.2,0,0,0,1.38-.41,1.31,1.31,0,0,0,.53-1.07,1.18,1.18,0,0,0-.46-1,4.48,4.48,0,0,0-1.77-.64,5.33,5.33,0,0,1-2.2-.89,2,2,0,0,1-.67-1.6,2.09,2.09,0,0,1,.8-1.68,3,3,0,0,1,2-.66,4.66,4.66,0,0,1,3,1.05l-.56.75a3.82,3.82,0,0,0-2.47-.93,2,2,0,0,0-1.32.4,1.28,1.28,0,0,0,0,2,5.28,5.28,0,0,0,1.84.66,4.85,4.85,0,0,1,2.12.88,1.93,1.93,0,0,1,.67,1.56A2.18,2.18,0,0,1,117.31,117.38Zm10.09.54-3.29-4.14-1.82,1.84v2.3h-1v-8.56h1v5.11l4.91-5.11h1.25l-3.67,3.74,3.83,4.82Z"/><path class="cls-1" d="M61.36,111.94a1.5,1.5,0,0,0-.58-1.24,2.59,2.59,0,0,0-1.61-.45H56.53v3.48h2.63a2.51,2.51,0,0,0,1.59-.48A1.59,1.59,0,0,0,61.36,111.94Z"/><rect class="cls-2" x="62.14" y="94.69" width="0.97" height="8.56"/><polygon class="cls-2" points="70.22 102.06 67.18 94.69 66.1 94.69 69.78 103.31 70.64 103.31 74.32 94.69 73.28 94.69 70.22 102.06"/><path class="cls-2" d="M79.17,94.63l-3.9,8.62h1l1-2.26h4.66l1,2.26h1l-3.9-8.62Zm-1.51,5.49,2-4.37,2,4.37Z"/><polygon class="cls-2" points="87.83 96.23 93.36 103.25 94.13 103.25 94.13 94.69 93.19 94.69 93.19 101.55 87.79 94.69 86.89 94.69 86.89 103.25 87.83 103.25 87.83 96.23"/><path class="cls-2" d="M104.89,102.09a4.6,4.6,0,0,0,0-6.25,4.42,4.42,0,0,0-6.27,0A4.32,4.32,0,0,0,97.39,99a4.43,4.43,0,0,0,1.22,3.13,4.45,4.45,0,0,0,6.28,0ZM98.39,99a3.55,3.55,0,0,1,1-2.51,3.14,3.14,0,0,1,2.4-1,3.2,3.2,0,0,1,2.42,1,3.78,3.78,0,0,1,0,5,3.13,3.13,0,0,1-2.4,1,3.16,3.16,0,0,1-2.42-1A3.51,3.51,0,0,1,98.39,99Z"/><rect class="cls-2" x="108.97" y="99.08" width="3.4" height="0.99"/><polygon class="cls-2" points="46.32 117.92 47.28 117.92 47.28 114.19 51.92 114.19 51.92 113.31 47.28 113.31 47.28 110.25 52.47 110.25 52.47 109.36 46.32 109.36 46.32 117.92"/><path class="cls-2" d="M61.7,113.59a2.5,2.5,0,0,0,0-3.37,3.29,3.29,0,0,0-2.43-.86H55.56v8.56h1V114.6H59l2.49,3.32h1.18L60,114.42A3.08,3.08,0,0,0,61.7,113.59Zm-5.17.14v-3.48h2.64a2.59,2.59,0,0,1,1.61.45,1.5,1.5,0,0,1,.58,1.24,1.59,1.59,0,0,1-.61,1.31,2.51,2.51,0,0,1-1.59.48Z"/><path class="cls-2" d="M68.79,109.3l-3.9,8.62h1l1-2.26h4.65l1,2.26h1l-3.9-8.62Zm-1.52,5.49,2-4.36,1.94,4.36Z"/><polygon class="cls-2" points="82.8 116.22 77.41 109.36 76.51 109.36 76.51 117.92 77.45 117.92 77.45 110.9 82.97 117.92 83.75 117.92 83.75 109.36 82.8 109.36 82.8 116.22"/><polygon class="cls-2" points="94.52 109.36 93.27 109.36 88.36 114.47 88.36 109.36 87.39 109.36 87.39 117.92 88.36 117.92 88.36 115.62 90.18 113.78 93.47 117.92 94.68 117.92 90.85 113.1 94.52 109.36"/><rect class="cls-2" x="97.49" y="109.36" width="0.97" height="8.56"/><polygon class="cls-2" points="105.57 116.73 102.53 109.36 101.45 109.36 105.13 117.98 105.99 117.98 109.67 109.36 108.63 109.36 105.57 116.73"/><path class="cls-2" d="M115.34,113.18a5.28,5.28,0,0,1-1.84-.66,1.28,1.28,0,0,1,0-2,2,2,0,0,1,1.32-.4,3.82,3.82,0,0,1,2.47.93l.56-.75a4.66,4.66,0,0,0-3-1.05,3,3,0,0,0-2,.66,2.09,2.09,0,0,0-.8,1.68,2,2,0,0,0,.67,1.6,5.33,5.33,0,0,0,2.2.89,4.48,4.48,0,0,1,1.77.64,1.18,1.18,0,0,1,.46,1,1.31,1.31,0,0,1-.53,1.07,2.2,2.2,0,0,1-1.38.41,3.88,3.88,0,0,1-1.56-.3,4.8,4.8,0,0,1-1.37-.91l-.6.7a5.05,5.05,0,0,0,3.5,1.37,3.26,3.26,0,0,0,2.1-.66,2.18,2.18,0,0,0,.82-1.76,1.93,1.93,0,0,0-.67-1.56A4.85,4.85,0,0,0,115.34,113.18Z"/><polygon class="cls-2" points="128.45 109.36 127.2 109.36 122.29 114.47 122.29 109.36 121.32 109.36 121.32 117.92 122.29 117.92 122.29 115.62 124.11 113.78 127.4 117.92 128.61 117.92 124.78 113.1 128.45 109.36"/><path class="cls-3" d="M70.25,88.54c-3.71-6-7.31-11.75-9.91-18.1-1.75-4.3-1.44-8.44,1.5-12.06S69,53.85,73.43,55c4.26,1.13,6.7,4.09,7.51,8.41a11.37,11.37,0,0,1-.57,6.37C77.8,76.43,74,82.41,70.25,88.54Zm-.09-19A3.76,3.76,0,0,0,74,65.85,3.81,3.81,0,0,0,70.27,62a3.86,3.86,0,0,0-3.85,3.74A3.8,3.8,0,0,0,70.16,69.52Z"/></svg>